SplineFontDB: 1.0
FontName: GaramondNo8-MedIta
FullName: GaramondNo8 Medium Italic
FamilyName: GaramondNo8
Weight: Medium
Copyright: Copyright (URW)++,Copyright 2000 by (URW)++ Design & Development
Version: 1.05
ItalicAngle: -16
UnderlinePosition: -225
UnderlineWidth: 51
Ascent: 800
Descent: 200
NeedsXUIDChange: 1
UniqueID: 4038273
OS2WinAscent: 0
OS2WinAOffset: 1
OS2WinDescent: 0
OS2WinDOffset: 1
HheadAscent: 0
HheadAOffset: 1
HheadDescent: 0
HheadDOffset: 1
ScriptLang: 2
 1 latn 1 dflt 
 1 DFLT 1 dflt 
Encoding: AdobeStandard
UnicodeInterp: none
DisplaySize: -24
AntiAlias: 1
FitToEm: 1
WinInfo: 32 16 4
BeginPrivate: 7
BlueValues 31 [-20 0 432 452 689 711 653 673]
BlueScale 8 0.039625
StdHW 4 [38]
StdVW 5 [109]
StemSnapH 200 [38 44 49 59 64 71] 
systemdict /internaldict known
{1183615869 systemdict /internaldict get exec
/StemSnapLength 2 copy known { get 6 lt } { pop pop true } ifelse }
{ true } ifelse { pop [38 44] } if
StemSnapV 2 []
ForceBold 5 false
EndPrivate
BeginChars: 353 353
StartChar: exclam
Encoding: 33 33 2
Width: 258
Flags: MW
HStem: -19 20 675 20<221.5 266.5>
Fore
150 192 m 1
 120 201 l 1
 161 553 l 1
 173 658 196 695 247 695 c 0
 286 695 318 666 318 631 c 0
 318 611 310 582 288 529 c 2
 150 192 l 1
111 134 m 0
 151 134 178 105 178 63 c 0
 178 16 146 -19 102 -19 c 0
 62 -19 36 8 36 50 c 0
 36 98 68 134 111 134 c 0
EndSplineSet
EndChar
StartChar: quotedbl
Encoding: 34 34 3
Width: 424
Flags: MW
HStem: 684 20<224 246.5 391 413.5>
Fore
258 606 m 2
 184 442 l 1
 179 432 176 430 165 430 c 2
 150 430 l 2
 141 430 138 432 138 438 c 0
 138 439 138 439 140 455 c 1
 155 606 l 1
 159 648 163 661 175 675 c 0
 190 693 213 704 235 704 c 0
 258 704 277 687 277 666 c 0
 277 652 273 640 258 606 c 2
425 606 m 1
 351 442 l 1
 347 432 343 430 332 430 c 2
 317 430 l 2
 308 430 305 432 305 438 c 2
 305 442 l 1
 307 455 l 1
 322 606 l 1
 326 648 330 661 342 675 c 0
 357 693 380 704 402 704 c 0
 425 704 444 687 444 666 c 0
 444 652 440 638 425 606 c 1
EndSplineSet
EndChar
StartChar: numbersign
Encoding: 35 35 4
Width: 498
Flags: MW
HStem: -15 20 201 81<84 126 202 300 373 408> 375 82<148 184 260 358 432 465>
Fore
126 201 m 1
 61 201 l 2
 54 201 48 206 48 213 c 0
 48 216 49 220 51 225 c 2
 65 265 l 2
 68 274 77 282 84 282 c 2
 153 282 l 1
 184 375 l 1
 121 375 l 2
 113 375 108 380 108 387 c 0
 108 390 109 394 110 397 c 2
 125 441 l 1
 128 451 137 457 148 457 c 2
 212 457 l 1
 280 658 l 1
 284 671 287 674 293 674 c 2
 323 674 l 2
 327 674 329 672 329 667 c 0
 329 662 329 659 328 656 c 2
 260 457 l 1
 386 457 l 1
 453 653 l 1
 459 669 462 674 470 674 c 2
 493 674 l 2
 498 674 501 671 501 665 c 0
 501 660 500 657 499 653 c 1
 432 457 l 1
 497 457 l 2
 503 457 507 453 507 446 c 0
 507 444 507 442 506 441 c 1
 487 385 l 1
 484 378 479 375 465 375 c 2
 405 375 l 1
 373 282 l 1
 438 282 l 2
 445 282 449 280 449 276 c 0
 449 274 448 271 446 266 c 2
 430 219 l 1
 426 206 419 201 408 201 c 2
 345 201 l 1
 277 0 l 2
 273 -12 270 -15 262 -15 c 2
 239 -15 l 2
 234 -15 229 -11 229 -8 c 0
 229 -6 230 -3 231 1 c 1
 300 201 l 1
 174 201 l 1
 106 0 l 2
 102 -12 99 -15 89 -15 c 2
 66 -15 l 2
 60 -15 57 -12 57 -6 c 0
 57 -4 57 -1 58 1 c 2
 126 201 l 1
202 282 m 1
 327 282 l 1
 358 375 l 1
 233 375 l 1
 202 282 l 1
EndSplineSet
EndChar
StartChar: dollar
Encoding: 36 36 5
Width: 498
Flags: MW
HStem: -13 49 413 20<277 277>
VStem: 153 83 347 83<146.5 153>
Fore
137 -63 m 2
 153 -7 l 1
 111 7 95 18 72 49 c 0
 51 77 39 107 39 133 c 0
 39 168 59 190 91 190 c 0
 124 190 137 169 151 88 c 0
 156 66 159 60 170 53 c 1
 240 301 l 1
 175 377 153 422 153 476 c 0
 153 540 188 604 242 639 c 0
 271 659 296 667 345 675 c 1
 355 711 l 1
 359 723 364 728 375 728 c 2
 391 728 l 2
 397 728 400 725 400 721 c 0
 400 719 399 716 398 712 c 2
 387 672 l 1
 452 658 493 615 493 561 c 0
 493 530 474 509 446 509 c 0
 418 509 406 524 394 573 c 0
 388 597 385 603 372 620 c 1
 312 405 l 1
 413 286 430 257 430 205 c 0
 430 88 329 -13 212 -13 c 2
 194 -13 l 1
 179 -67 l 2
 174 -85 172 -87 160 -87 c 2
 144 -87 l 2
 138 -87 134 -83 134 -78 c 0
 134 -74 135 -69 137 -63 c 2
276 277 m 1
 209 41 l 1
 223 37 229 36 240 36 c 0
 307 36 347 72 347 131 c 0
 347 175 332 206 276 277 c 1
277 433 m 1
 333 632 l 1
 304 631 290 626 272 610 c 0
 247 589 236 566 236 534 c 0
 236 501 244 482 277 433 c 1
EndSplineSet
EndChar
StartChar: percent
Encoding: 37 37 6
Width: 830
Flags: W
HStem: -18 41<570.5 598> 283 41<636 667.5> 313 41<210.5 238> 623 41<276 307>
VStem: 101 75<413 436.5> 344 76<534.5 566> 461 75<80 103> 704 76<197 228.5>
Fore
652 681 m 1xdf
 705 681 l 1
 222 -28 l 1
 169 -28 l 1
 652 681 l 1xdf
652 324 m 0
 726 324 780 267 780 190 c 0
 780 80 690 -18 587 -18 c 0
 515 -18 461 40 461 120 c 0
 461 171 488 231 528 271 c 0
 564 306 606 324 652 324 c 0
651 283 m 0
 621 283 596 262 573 219 c 0
 553 181 536 120 536 86 c 0
 536 47 555 23 586 23 c 0
 610 23 631 36 648 60 c 0
 682 107 704 172 704 222 c 0
 704 259 684 283 651 283 c 0
292 664 m 0
 366 664 420 606 420 526 c 0
 420 414 330 313 229 313 c 0x3f
 155 313 101 372 101 454 c 0
 101 507 128 569 168 610 c 0
 204 646 246 664 292 664 c 0
291 623 m 0
 261 623 236 601 213 557 c 0
 193 518 176 454 176 419 c 0
 176 378 195 354 226 354 c 0
 250 354 271 367 288 392 c 0
 322 441 344 509 344 560 c 0
 344 598 323 623 291 623 c 0
EndSplineSet
EndChar
StartChar: ampersand
Encoding: 38 38 7
Width: 701
Flags: MW
HStem: -21 79<335.5 347.5> 426 20 642 40<360 403>
VStem: 74 104<198 223.5> 194 95<513.5 553> 522 51<170.5 198>
Fore
719 314 m 1
 550 265 l 1
 568 231 573 213 573 183 c 0
 573 139 555 96 525 65 c 0
 472 12 388 -21 307 -21 c 0
 172 -21 74 65 74 185 c 0
 74 262 111 330 182 382 c 0
 203 397 225 409 268 430 c 1
 214 459 194 489 194 538 c 0
 194 625 283 682 416 682 c 0
 509 682 558 656 558 608 c 0
 558 577 538 556 509 556 c 0
 485 556 482 559 454 603 c 0
 437 630 417 642 389 642 c 0
 331 642 289 589 289 517 c 0
 289 486 298 461 317 446 c 1
 349 457 372 462 393 462 c 0
 428 462 452 446 452 421 c 0
 452 394 432 378 399 378 c 0
 374 378 359 382 317 403 c 2
 306 409 l 1
 230 377 178 302 178 223 c 0
 178 173 201 125 237 97 c 1
 269 74 316 58 355 58 c 0
 393 58 440 74 474 98 c 0
 506 120 522 151 522 190 c 0
 522 211 518 224 506 247 c 1
 363 190 l 1
 343 261 l 1
 504 308 577 332 698 382 c 1
 719 314 l 1
EndSplineSet
EndChar
StartChar: quoteright
Encoding: 39 8217 8
Width: 258
Flags: MW
HStem: 675 20<201 248>
VStem: 233 79
Fore
103 416 m 1
 109 450 l 1
 199 475 233 501 233 545 c 0
 233 565 225 574 201 584 c 0
 165 599 155 611 155 637 c 0
 155 671 182 695 220 695 c 0
 276 695 312 651 312 584 c 0
 312 532 286 493 229 459 c 0
 195 438 162 427 103 416 c 1
EndSplineSet
KernsSLIF: 121 25 1 0 119 21 1 0 118 17 1 0 116 8 1 0 115 5 1 0 114 15 1 0 46 -43 1 0 111 -2 1 0 100 -20 1 0 44 -39 1 0 261 -57 1 0 256 -57 1 0 257 -57 1 0 225 -81 1 0 65 -57 1 0
EndChar
StartChar: parenleft
Encoding: 40 40 9
Width: 295
Flags: MW
VStem: 39 106<152 226>
Fore
232 -161 m 1
 199 -184 l 1
 97 -66 39 82 39 222 c 0
 39 423 164 610 400 760 c 1
 426 728 l 1
 328 662 270 597 219 500 c 1
 169 401 145 293 145 159 c 0
 145 17 164 -51 232 -161 c 1
EndSplineSet
EndChar
StartChar: parenright
Encoding: 41 41 10
Width: 295
Flags: MW
VStem: 170 106<349.5 424>
Fore
83 736 m 1
 116 760 l 1
 218 643 276 494 276 354 c 0
 276 153 149 -37 -85 -184 c 1
 -111 -152 l 1
 -14 -86 45 -21 95 76 c 0
 146 174 170 283 170 416 c 0
 170 558 151 628 83 736 c 1
EndSplineSet
EndChar
StartChar: asterisk
Encoding: 42 42 11
Width: 498
Flags: MW
HStem: 412 20 672 20<328 361.5>
Fore
360 494 m 2
 432 524 l 2
 457 534 466 537 477 537 c 0
 504 537 522 513 522 477 c 0
 522 441 505 419 478 419 c 0
 466 419 456 422 437 430 c 2
 360 463 l 2
 347 469 347 469 347 476 c 2
 347 482 l 2
 347 488 347 489 360 494 c 2
304 539 m 1
 297 617 l 2
 296 628 296 638 296 645 c 0
 296 673 314 692 342 692 c 0
 381 692 413 669 413 641 c 0
 413 626 406 613 388 592 c 2
 333 529 l 1
 325 521 325 520 322 520 c 0
 321 520 319 520 317 521 c 2
 311 523 l 2
 305 525 305 526 304 539 c 1
252 490 m 2
 176 509 l 2
 129 520 115 531 115 558 c 0
 115 590 148 628 176 628 c 0
 195 628 210 616 227 587 c 2
 270 515 l 2
 273 510 275 505 275 503 c 0
 275 502 274 500 273 498 c 2
 269 493 l 2
 266 489 265 488 262 488 c 0
 261 488 261 488 252 490 c 2
272 431 m 2
 231 364 l 2
 209 327 199 319 178 319 c 0
 149 319 115 357 115 389 c 0
 115 413 132 428 172 437 c 2
 253 456 l 1
 261 457 l 2
 262 458 264 458 265 458 c 0
 267 458 269 457 271 453 c 1
 275 448 l 2
 276 446 277 444 277 442 c 0
 277 440 276 438 272 431 c 2
342 422 m 2
 393 363 l 2
 416 336 421 326 421 311 c 0
 421 283 387 258 349 258 c 0
 320 258 304 278 304 311 c 0
 304 318 304 323 305 329 c 1
 312 412 l 1
 314 426 314 426 321 429 c 2
 326 430 l 2
 328 431 329 431 331 431 c 0
 334 431 335 430 342 422 c 2
EndSplineSet
EndChar
StartChar: plus
Encoding: 43 43 12
Width: 830
Flags: MW
HStem: -3 20 214 81<170 374 455 659>
VStem: 374 81<10 214 295 498>
Fore
374 295 m 1
 374 498 l 2
 374 507 377 511 384 511 c 2
 445 511 l 2
 452 511 455 507 455 498 c 2
 455 295 l 1
 659 295 l 2
 667 295 671 292 671 285 c 2
 671 224 l 2
 671 217 667 214 659 214 c 2
 455 214 l 1
 455 10 l 2
 455 1 452 -3 445 -3 c 2
 384 -3 l 2
 377 -3 374 1 374 10 c 2
 374 214 l 1
 170 214 l 2
 161 214 157 217 157 224 c 2
 157 285 l 2
 157 292 161 295 170 295 c 2
 374 295 l 1
EndSplineSet
EndChar
StartChar: comma
Encoding: 44 44 13
Width: 258
Flags: MW
VStem: 139 70
Fore
30 -139 m 1
 23 -109 l 1
 103 -87 139 -58 139 -16 c 0
 139 4 131 13 107 24 c 0
 70 39 60 51 60 78 c 0
 60 112 86 135 124 135 c 0
 173 135 209 92 209 33 c 0
 209 -18 179 -68 130 -101 c 0
 103 -119 74 -130 30 -139 c 1
EndSplineSet
KernsSLIF: 39 13 1 0 186 28 1 0
EndChar
StartChar: hyphen
Encoding: 45 45 14
Width: 258
Flags: MW
HStem: 199 72<45 222>
Fore
45 271 m 2
 224 271 l 2
 240 271 242 270 242 260 c 2
 242 252 l 1
 241 214 l 1
 241 199 241 199 222 199 c 2
 43 199 l 2
 28 199 28 199 28 217 c 2
 28 255 l 2
 28 270 29 271 45 271 c 2
EndSplineSet
KernsSLIF: 89 -69 1 0 87 -42 1 0 86 -47 1 0 84 -62 1 0 261 9 1 0 256 9 1 0 257 9 1 0 225 8 1 0 65 9 1 0
EndChar
StartChar: period
Encoding: 46 46 15
Width: 258
Flags: MW
HStem: -15 20
Fore
127 132 m 0
 163 132 190 101 190 60 c 0
 190 18 160 -15 121 -15 c 0
 86 -15 60 16 60 57 c 0
 60 98 90 132 127 132 c 0
EndSplineSet
KernsSLIF: 39 3 1 0 186 19 1 0
EndChar
StartChar: slash
Encoding: 47 47 16
Width: 498
Flags: MW
HStem: 675 20<531 604 604 604>
Fore
531 695 m 1
 604 695 l 1
 79 -49 l 1
 7 -49 l 1
 531 695 l 1
EndSplineSet
EndChar
StartChar: zero
Encoding: 48 48 17
Width: 518
Flags: HMW
Fore
511.691 214 m 4
 495.071 151 460.089 98 407.009 56 c 4
 354.192 15 295.651 -6 231.651 -6 c 4
 167.651 -6 120.192 15 89.0088 56 c 4
 57.8252 97 50.8076 150 67.6914 214 c 4
 84.5752 278 119.294 330 172.375 372 c 4
 223.927 412 282.468 433 347.468 433 c 4
 412.468 433 459.927 412 490.375 372 c 4
 521.294 330 528.575 278 511.691 214 c 4
410.219 216 m 4
 421.827 260 421.589 297 410.502 327 c 4
 397.472 361 371.957 378 332.957 378 c 4
 294.957 378 260.472 361 229.239 326 c 4
 202.324 296 182.562 259 170.691 214 c 4
 158.819 169 158.795 131 170.617 100 c 4
 182.647 66 208.898 48 246.898 48 c 4
 284.898 48 319.647 66 350.88 101 c 4
 379.322 133 398.348 171 410.219 216 c 4
EndSplineSet
EndChar
StartChar: one
Encoding: 49 49 18
Width: 518
Flags: HW
HStem: 1 21G<335.266 343.766>
DStem: 239.923 345 330.512 337 196.37 98 286.959 90
Fore
451.026 416 m 0
 448.389 406 429.542 399 396.223 394 c 1
 368.376 387 349.364 368 341.186 337 c 2
 276.022 90 l 2
 268.9 63 272.679 47 286.832 40 c 0
 295.041 37 308.722 32 329.402 27 c 0
 338.875 25 342.82 21 340.974 14 c 0
 338.599 5 331.543 1 318.543 1 c 0
 314.543 1 308.808 2 301.808 2 c 0
 294.335 4 288.335 4 284.335 4 c 2
 153.335 4 l 1
 89.543 1 l 2
 71.2793 0 63.5986 5 65.9736 14 c 0
 67.8203 21 88.4023 27 127.722 32 c 0
 155.513 35 175.317 57 186.134 98 c 2
 251.296 345 l 2
 252.087 348 252.144 352 251.726 358 c 0
 252.309 364 252.628 369 253.419 372 c 0
 253.002 378 240.113 386 215.751 396 c 0
 191.652 407 179.499 414 180.291 417 c 0
 182.401 425 189.457 429 202.457 429 c 2
 280.873 423 l 1
 333.61 422 l 1
 435.192 428 l 2
 448.457 429 453.401 425 451.026 416 c 0
EndSplineSet
EndChar
StartChar: two
Encoding: 50 50 19
Width: 518
Flags: HW
HStem: 3 72<203 300> 380 55<235.741 285.439>
Fore
406.231 89 m 0
 403.856 80 382.734 53 367.194 32 c 1
 349.654 11 337.752 0 331.016 1 c 2
 281.808 4 l 1
 102.543 3 l 1
 34.4883 -1 l 2
 23.2246 -2 18.543 3 21.4463 14 c 0
 22.501 18 33.875 27 55.5684 41 c 0
 64.1514 47 75.998 54 89.8447 61 c 1
 216.853 152 274.901 228 290.731 288 c 0
 305.24 343 305.002 380 250.002 380 c 0
 231.002 380 213.836 368 190.352 351 c 1
 165.382 317 l 1
 155.382 317 138.339 332 140.449 340 c 0
 141.769 345 149.406 355 163.364 370 c 0
 203.708 413 250.512 435 304.512 435 c 0
 341.512 435 369.61 424 387.542 401 c 0
 405.475 378 409.56 348 399.799 311 c 0
 393.731 288 386.51 272 378.608 261 c 0
 360.276 237 318.724 197 257.741 144 c 0
 211.189 104 194.76 91 187.648 83 c 1
 186.329 78 188.538 75 193.538 75 c 2
 333.538 75 l 2
 340.538 75 352.594 79 369.968 88 c 0
 386.342 97 394.397 101 395.397 101 c 0
 404.397 101 408.342 97 406.231 89 c 0
EndSplineSet
EndChar
StartChar: three
Encoding: 51 51 20
Width: 518
Flags: HW
HStem: 375 61<268.288 318.044>
Fore
383.886 76 m 0
 370.432 25 343.031 -22 302.688 -65 c 0
 260.816 -110 213.901 -140 162.209 -154 c 1
 109.987 -170 79.1406 -177 70.1406 -177 c 0
 61.1406 -177 58.46 -172 61.0977 -162 c 0
 63.209 -154 88.0127 -132 106.595 -126 c 0
 112.859 -125 124.914 -121 143.233 -116 c 1
 218.092 -90 265.02 -41 284.806 34 c 0
 302.745 102 285.451 135 231.451 135 c 0
 226.451 135 216.924 133 204.868 129 c 0
 192.549 124 184.021 122 180.021 122 c 0
 170.021 122 162.033 141 164.937 152 c 0
 167.311 161 184.322 180 197.906 186 c 0
 274.819 216 320.9 258 334.882 311 c 0
 346.227 354 330.767 375 289.767 375 c 0
 275.767 375 254.656 367 227.436 351 c 0
 199.95 334 187.84 326 191.84 326 c 1
 183.84 326 173.214 335 175.324 343 c 0
 177.171 350 186.073 361 201.767 375 c 0
 247.583 416 294.859 436 344.859 436 c 0
 376.859 436 400.485 427 415.001 410 c 0
 429.252 392 432.656 367 424.478 336 c 0
 421.84 326 419.729 318 417.41 313 c 0
 411.453 298 396.704 280 373.164 259 c 1
 317.029 213 l 1
 316.237 210 317.445 207 322.183 206 c 0
 380.642 185 401.298 142 383.886 76 c 0
EndSplineSet
EndChar
StartChar: four
Encoding: 52 52 21
Width: 518
Flags: HMW
Fore
474.192 65 m 0
 469.971 49 459.75 33 448.75 33 c 2
 345.75 33 l 2
 338.75 33 333.695 29 331.32 20 c 2
 282.778 -164 l 2
 280.932 -171 267.141 -174 242.404 -173 c 0
 217.668 -172 196.195 -170 197.515 -165 c 2
 245.793 18 l 2
 248.432 28 237.75 33 215.015 34 c 2
 129.542 36 l 1
 16.75 33 l 2
 5.75 33 1.06934 38 3.9707 49 c 0
 4.7627 52 24.7754 71 64.0088 106 c 0
 112.617 150 202.777 234 333.49 358 c 2
 353.503 377 l 1
 417.332 437 l 2
 418.596 438 421.596 438 425.596 438 c 0
 436.596 438 440.54 434 438.694 427 c 2
 353.481 104 l 2
 351.106 95 352.787 90 359.787 90 c 2
 461.787 90 l 2
 474.787 90 478.678 82 474.192 65 c 0
271.009 106 m 1
 316.066 273 l 1
 317.122 277 316.649 279 313.649 279 c 0
 309.649 279 279.262 251 215.488 195 c 0
 150.715 139 118.536 108 116.689 101 c 0
 115.106 95 117.315 92 121.315 92 c 2
 257.315 92 l 2
 264.315 92 268.635 97 271.009 106 c 1
EndSplineSet
EndChar
StartChar: five
Encoding: 53 53 22
Width: 518
Flags: HMW
HStem: 422 20<378.5 380.5>
VStem: 139 61 292 89<39 60>
Fore
457.222 431 m 0
 454.583 421 456.307 401 440.35 386 c 1
 426.393 371 413.018 362 403.49 360 c 0
 399.227 359 373.171 355 325.797 346 c 0
 311.006 343 296.478 341 281.95 339 c 1
 261.367 333 251.576 330 248.146 317 c 0
 243.661 300 246.969 286 259.594 277 c 0
 347.918 210 381.924 138 361.609 61 c 0
 350.001 17 323.922 -25 282.633 -64 c 0
 246.399 -99 202.748 -128 154.209 -149 c 0
 116.987 -165 91.877 -173 83.877 -173 c 0
 73.877 -173 61.46 -167 64.8896 -154 c 0
 66.209 -149 73.791 -143 88.374 -137 c 0
 93.9014 -135 102.957 -131 117.54 -125 c 0
 200.037 -89 246.492 -38 265.486 34 c 0
 279.205 86 263.604 133 219.685 175 c 0
 180.445 212 167.624 243 173.164 264 c 0
 178.704 285 191.3 310 209.687 338 c 0
 228.337 367 247.613 387 265.516 398 c 0
 284.682 410 334.583 421 413.957 430 c 1
 440.068 438 461.123 442 458.123 442 c 1
 465.123 442 459.068 438 457.222 431 c 0
EndSplineSet
EndChar
StartChar: six
Encoding: 54 54 23
Width: 518
Flags: HMW
Fore
558.747 634 m 4
 557.691 630 552.053 620 488.292 583 c 4
 444.696 558 387.727 524 321.426 466 c 4
 247.806 403 181.614 353 171.853 316 c 4
 170.533 311 180.743 308 184.743 308 c 5
 178.743 308 176.006 309 176.271 310 c 4
 177.062 313 211.02 328 241.921 339 c 4
 285.878 354 281.878 354 294.878 354 c 4
 339.878 354 374.656 338 400.215 306 c 4
 427.036 275 434.012 237 422.403 193 c 4
 407.366 136 374.967 89 325.206 52 c 4
 274.181 14 220.169 -5 163.169 -5 c 4
 105.169 -5 64.4443 15 42.2607 56 c 4
 21.0215 93 18.9492 142 34.5146 201 c 4
 58.5215 292 110.683 376 189.996 453 c 4
 265.254 526 351.501 580 448.733 615 c 4
 502.747 634 536.384 644 549.384 644 c 4
 557.384 644 560.594 641 558.747 634 c 4
310.961 161 m 4
 327.582 224 320.049 294 264.049 294 c 4
 235.049 294 216.466 288 175.024 256 c 4
 168.705 251 145.791 221 139.195 196 c 4
 119.673 122 130.095 44 196.095 44 c 4
 223.095 44 248.261 56 269.856 81 c 4
 289.396 102 302.256 128 310.961 161 c 4
EndSplineSet
EndChar
StartChar: seven
Encoding: 55 55 24
Width: 518
Flags: HMW
Fore
540.957 419 m 1
 315.88 142 l 2
 221.015 25 139.05 -81 69.251 -175 c 0
 65.9316 -180 60.4043 -182 52.4043 -182 c 0
 45.4043 -182 14.9316 -180 7.9873 -176 c 0
 1.04297 -172 -1.6377 -167 -0.0556641 -161 c 1
 74.7432 -67 l 2
 290.71 202 378.938 309 380.257 314 c 0
 383.159 325 380.478 330 371.478 330 c 2
 189.478 330 l 2
 171.478 330 145.785 316 111.397 288 c 1
 102.397 288 106.367 322 108.742 331 c 0
 106.895 324 123.018 351 156.11 412 c 0
 159.957 419 165.013 423 172.276 424 c 2
 483.54 425 l 1
 529.596 429 l 2
 538.596 429 542.805 426 540.957 419 c 1
EndSplineSet
EndChar
StartChar: eight
Encoding: 56 56 25
Width: 518
Flags: HW
HStem: -199 45<198 219> 392 45<308 327>
Fore
465.903 293 m 0
 457.462 261 441.075 233 415.743 209 c 0
 411.424 204 392.994 191 360.927 168 c 0
 330.123 146 314.221 135 313.957 134 c 0
 313.693 133 322.265 120 340.196 97 c 0
 359.129 74 369.435 60 371.115 55 c 0
 384.465 26 385.231 -9 374.943 -48 c 0
 363.071 -93 337.573 -129 299.188 -157 c 0
 260.8 -185 218.106 -199 173.106 -199 c 0
 128.106 -199 94.2725 -187 71.3398 -164 c 0
 45.9355 -139 39.1689 -104 50.5127 -61 c 0
 60.2744 -24 80.9805 9 113.895 39 c 0
 125.796 50 143.227 63 167.711 80 c 0
 188.404 94 198.779 103 199.57 106 c 0
 200.89 111 188.847 126 164.178 150 c 1
 135.467 189 127.548 231 139.947 278 c 0
 152.346 325 179.371 363 221.022 392 c 0
 262.936 422 307.894 437 354.894 437 c 0
 398.894 437 431.463 424 451.604 398 c 0
 472.745 372 477.512 337 465.903 293 c 0
379.903 293 m 0
 386.764 319 386.831 342 379.58 360 c 0
 371.119 381 356.022 392 334.022 392 c 0
 311.022 392 290.384 382 271.371 363 c 1
 245.358 344 238.554 322 232.695 296 c 0
 228.21 279 230.934 259 238.866 236 c 0
 246.59 216 256.369 200 268.467 189 c 0
 280.301 177 286.719 171 287.719 171 c 0
 292.719 171 299.773 175 308.885 183 c 0
 344.535 212 368.032 248 379.903 293 c 0
283.194 -66 m 0
 294.274 -24 283.563 15 251.061 51 c 0
 240.227 63 233.81 69 230.81 69 c 0
 220.81 69 204.38 56 185.048 32 c 0
 161.397 3 146.011 -25 139.151 -51 c 0
 131.764 -79 131.433 -103 138.685 -121 c 0
 146.881 -143 162.978 -154 186.978 -154 c 0
 209.978 -154 230.089 -146 247.31 -130 c 0
 264.531 -114 276.071 -93 283.194 -66 c 0
EndSplineSet
EndChar
StartChar: nine
Encoding: 57 57 26
Width: 518
Flags: HMWO
Fore
479.174 229 m 0
 454.11 134 403.95 50 329.428 -24 c 0
 255.433 -96 168.507 -145 70.4385 -168 c 0
 31.0645 -177 7.74512 -182 -0.254883 -182 c 0
 -11.2549 -182 -17.1455 -174 -14.5068 -164 c 0
 -11.0771 -151 40.5732 -122 85.4766 -111 c 0
 129.113 -101 178.501 -73 232.747 -19 c 0
 284.201 32 319.392 82 338.319 131 c 0
 350.762 163 360.62 189 365.896 209 c 0
 375.922 247 378.628 280 376.015 308 c 0
 371.095 350 351.635 371 316.635 371 c 0
 290.635 371 266.996 361 247.721 341 c 0
 227.18 320 213.584 295 205.406 264 c 0
 198.02 236 195.16 210 197.565 185 c 0
 199.804 148 214.055 130 240.055 130 c 0
 246.055 130 254.583 132 266.639 136 c 0
 278.693 140 287.221 142 292.221 142 c 0
 299.221 142 301.166 138 299.319 131 c 0
 298.265 127 291.945 122 281.099 115 c 0
 258.404 101 233.503 90 203.503 90 c 0
 162.503 90 134.46 105 117.11 134 c 0
 99.7617 163 97.2588 199 108.075 240 c 0
 122.849 296 152.984 342 200.745 379 c 1
 246.507 416 298.255 434 355.255 434 c 0
 414.255 434 454.979 414 475.427 374 c 0
 493.929 338 495.266 290 479.174 229 c 0
EndSplineSet
EndChar
StartChar: colon
Encoding: 58 58 27
Width: 258
Flags: MW
HStem: -15 20
Fore
93 132 m 0
 129 132 156 101 156 60 c 0
 156 18 126 -15 87 -15 c 0
 52 -15 26 16 26 57 c 0
 26 98 56 132 93 132 c 0
184 471 m 0
 221 471 248 440 248 399 c 0
 248 357 218 324 179 324 c 0
 144 324 118 355 118 395 c 0
 118 437 148 471 184 471 c 0
EndSplineSet
EndChar
StartChar: semicolon
Encoding: 59 59 28
Width: 258
Flags: MW
VStem: 125 70
Fore
16 -139 m 1
 9 -109 l 1
 89 -87 125 -58 125 -16 c 0
 125 4 117 13 93 24 c 0
 56 39 46 51 46 78 c 0
 46 112 72 135 110 135 c 0
 159 135 195 92 195 33 c 0
 195 -18 165 -68 116 -101 c 0
 89 -119 60 -130 16 -139 c 1
174 471 m 0
 210 471 237 440 237 399 c 0
 237 357 207 324 169 324 c 0
 134 324 108 354 108 395 c 0
 108 437 138 471 174 471 c 0
EndSplineSet
EndChar
StartChar: less
Encoding: 60 60 29
Width: 996
Flags: W
Fore
797 616 m 1
 797 522 l 1
 321 309 l 1
 797 97 l 1
 797 2 l 1
 199 271 l 1
 199 348 l 1
 797 616 l 1
EndSplineSet
EndChar
StartChar: equal
Encoding: 61 61 30
Width: 830
Flags: MW
HStem: 124 81<170 657> 285 81<170 657>
Fore
157 134 m 2
 157 195 l 2
 157 202 161 205 170 205 c 2
 657 205 l 2
 666 205 670 202 670 195 c 2
 670 134 l 2
 670 127 666 124 657 124 c 2
 170 124 l 2
 161 124 157 127 157 134 c 2
157 295 m 2
 157 356 l 2
 157 363 161 366 170 366 c 2
 657 366 l 2
 666 366 670 363 670 356 c 2
 670 295 l 2
 670 288 666 285 657 285 c 2
 170 285 l 2
 161 285 157 288 157 295 c 2
EndSplineSet
EndChar
StartChar: greater
Encoding: 62 62 31
Width: 996
Flags: W
Fore
199 616 m 1
 797 348 l 1
 797 271 l 1
 199 2 l 1
 199 97 l 1
 675 309 l 1
 199 522 l 1
 199 616 l 1
EndSplineSet
EndChar
StartChar: question
Encoding: 63 63 32
Width: 387
Flags: MW
HStem: -19 20 192 85 625 70
VStem: 107 51<315.5 331> 371 52<560 581.5>
Fore
261 281 m 0
 286 281 304 263 304 237 c 0
 304 210 283 192 249 192 c 0
 179 192 107 275 107 356 c 0
 107 387 118 416 135 435 c 0
 165 467 169 468 288 506 c 0
 348 525 371 544 371 576 c 0
 371 604 350 625 324 625 c 0
 313 625 308 623 285 614 c 0
 263 604 245 599 232 599 c 0
 206 599 187 617 187 643 c 0
 187 675 214 695 256 695 c 0
 353 695 423 628 423 535 c 0
 423 488 402 446 364 422 c 1
 346 409 317 399 254 381 c 0
 180 360 158 345 158 317 c 0
 158 292 177 277 208 277 c 0
 214 277 224 278 234 279 c 0
 246 280 253 281 261 281 c 0
167 134 m 0
 206 134 231 108 231 68 c 0
 231 19 197 -19 151 -19 c 0
 112 -19 88 5 88 45 c 0
 88 95 123 134 167 134 c 0
EndSplineSet
EndChar
StartChar: at
Encoding: 64 64 33
Width: 830
Flags: W
HStem: -157 76<397 456.5> -19 85<586 610.5> -9 55<351.5 371.5> 435 55<483 506> 568 76<442 577>
VStem: 9 108<152 242.5> 208 106<94 128> 768 80<300 402>
Fore
743 15 m 1xdf
 788 -17 l 1
 733 -61 708 -77 660 -99 c 0
 579 -137 496 -157 417 -157 c 0
 307 -157 199 -118 121 -51 c 0
 49 11 9 102 9 202 c 0
 9 445 223 644 483 644 c 0
 696 644 848 512 848 326 c 0
 848 155 703 -19 560 -19 c 0xdf
 519 -19 495 -2 480 41 c 1
 423 2 393 -9 350 -9 c 0x37
 268 -9 208 52 208 136 c 0
 208 217 246 315 306 391 c 0
 358 455 420 490 484 490 c 0
 528 490 556 472 592 420 c 1
 611 464 l 1
 711 464 l 1
 573 109 l 1
 570 100 568 92 568 86 c 0
 568 75 579 66 593 66 c 0
 628 66 677 98 711 144 c 0
 746 193 768 266 768 334 c 0
 768 470 656 568 498 568 c 0
 386 568 286 523 213 439 c 0
 149 364 117 286 117 199 c 0
 117 103 156 28 232 -23 c 0
 289 -61 360 -81 434 -81 c 0
 532 -81 623 -53 743 15 c 1xdf
499 435 m 0
 467 435 435 407 403 353 c 0
 354 268 314 155 314 101 c 0
 314 69 336 46 367 46 c 0x37
 398 46 434 76 465 129 c 0
 516 215 553 319 553 375 c 0
 553 410 530 435 499 435 c 0
EndSplineSet
EndChar
StartChar: A
Encoding: 65 65 34
Width: 738
Flags: W
HStem: -6 20 -5 20 0 20
Fore
469 268 m 1x80
 232 268 l 1
 187 185 l 2
 152 119 136 83 136 67 c 0
 136 61 139 54 143 50 c 0
 154 39 154 39 203 33 c 0
 209 32 212 30 212 26 c 0
 212 24 211 19 210 17 c 1
 207 7 l 2
 204 -2 202 -5 195 -5 c 2
 136 -3 l 2
 114 -1 98 0 95 0 c 0
 92 0 76 -1 54 -3 c 2
 -7 -5 l 2
 -17 -5 -21 -2 -21 3 c 0
 -21 5 -21 9 -20 12 c 1
 -18 22 l 1
 -15 33 -14 34 4 34 c 0
 36 36 45 46 100 140 c 2
 431 705 l 1
 465 708 504 713 521 718 c 1
 606 113 l 1
 615 42 621 35 668 33 c 0
 691 32 692 32 692 27 c 0
 692 26 692 22 691 19 c 1
 689 8 l 2
 687 -2 684 -5 674 -5 c 0x40
 660 -5 613 -4 596 -3 c 0
 568 -1 548 0 542 0 c 0x20
 536 0 517 -1 493 -3 c 0
 475 -4 429 -6 413 -6 c 0
 404 -6 399 -4 399 1 c 0
 399 2 399 2 401 9 c 1
 404 22 l 1
 405 28 406 31 409 33 c 2
 416 35 l 1
 437 35 l 2
 471 36 488 50 488 78 c 0
 488 89 488 89 482 146 c 2
 469 268 l 1x80
462 317 m 1
 427 618 l 1
 259 318 l 1
 462 317 l 1
EndSplineSet
KernsSLIF: 121 -45 0 0 119 -39 0 0 118 -42 0 0 117 -4 0 0 116 -3 0 0 39 -71 0 0 186 -56 0 0 113 -3 0 0 46 -4 0 0 111 -20 0 0 45 2 0 0 172 -26 0 0 171 -29 0 0 103 -28 0 0 101 -11 0 0 100 -6 0 0 44 -4 0 0 293 -11 0 0 99 -13 0 0 98 -2 0 0 97 1 0 0 89 -49 0 0 87 -100 0 0 86 -102 0 0 281 -56 0 0 279 -56 0 0 282 -56 0 0 280 -56 0 0 85 -56 0 0 84 -47 0 0 81 -53 0 0 273 -53 0 0 79 -53 0 0 71 -61 0 0 262 -57 0 0 67 -57 0 0
EndChar
StartChar: B
Encoding: 66 66 35
Width: 627
Flags: W
HStem: -5 44<251 313.5> 0 20 666 45<377.5 427.5>
VStem: 447 132<165.5 229> 506 115<524.5 595>
Fore
139 667 m 2x50
 139 681 l 1
 140 691 143 694 156 696 c 0
 250 708 292 711 364 711 c 0
 537 711 621 658 621 551 c 0xa8
 621 489 590 438 537 410 c 0
 501 392 474 384 410 371 c 1
 472 364 504 350 535 318 c 1
 563 291 579 250 579 208 c 0
 579 81 451 -5 262 -5 c 0xb0
 240 -5 212 -4 183 -2 c 0
 154 -1 132 0 119 0 c 0
 104 0 33 -2 23 -3 c 0
 7 -4 -8 -5 -13 -5 c 0
 -20 -5 -22 -3 -22 3 c 2
 -22 8 l 1
 -20 20 l 1
 -19 28 -19 29 -16 31 c 0
 -13 33 -12 33 9 36 c 0
 51 41 62 54 86 133 c 1
 210 550 l 1
 226 601 230 620 230 636 c 0
 230 652 219 661 199 661 c 0
 191 661 179 659 165 656 c 0
 160 655 154 654 151 654 c 0
 142 654 139 658 139 667 c 2x50
281 391 m 1
 294 391 l 2
 330 391 360 395 389 403 c 0
 459 424 506 488 506 561 c 0
 506 629 465 666 390 666 c 0
 365 666 364 666 353 630 c 2
 281 391 l 1
270 346 m 1xb0
 202 108 l 2
 194 79 193 76 193 70 c 0
 193 50 217 39 259 39 c 0
 368 39 447 114 447 217 c 0
 447 270 419 314 374 331 c 0
 343 342 318 346 270 346 c 1xb0
EndSplineSet
KernsSLIF: 89 -38 0 0 87 -24 0 0 86 -21 0 0 233 -4 0 0 275 -3 0 0 273 -3 0 0 276 -3 0 0 274 -3 0 0 79 -3 0 0 260 -19 0 0 261 -19 0 0 256 -19 0 0 259 -19 0 0 257 -19 0 0 225 1 0 0 65 -19 0 0
EndChar
StartChar: C
Encoding: 67 67 36
Width: 738
Flags: MW
HStem: -20 44<349.5 447> 667 44<434 539>
VStem: 82 131<207.5 383>
Fore
764 617 m 1
 719 499 l 2
 714 485 714 485 711 485 c 2
 708 485 l 1
 701 487 l 1
 686 489 l 2
 676 491 673 493 673 498 c 0
 673 501 674 504 675 509 c 0
 680 522 684 545 684 558 c 0
 684 591 669 614 635 635 c 0
 604 655 560 667 518 667 c 0
 350 667 213 491 213 275 c 0
 213 113 285 24 414 24 c 0
 485 24 539 49 582 103 c 0
 592 116 592 116 624 166 c 0
 625 169 628 171 629 171 c 0
 630 171 630 171 637 169 c 2
 657 162 l 2
 662 160 663 159 663 157 c 0
 663 155 663 155 660 147 c 2
 617 27 l 1
 534 -7 480 -20 414 -20 c 0
 217 -20 82 112 82 303 c 0
 82 532 267 711 504 711 c 0
 606 711 689 681 764 617 c 1
EndSplineSet
KernsSLIF: 273 -13 0 0 274 -13 0 0 79 -13 0 0 75 -10 0 0 72 -6 0 0 261 -4 0 0 256 -5 0 0 257 -5 0 0 225 16 0 0 65 -5 0 0
EndChar
StartChar: D
Encoding: 68 68 37
Width: 774
Flags: W
HStem: -5 43<313.5 411.5> 0 20 666 43<408.5 504>
VStem: 653 131<313.5 504.5>
Fore
105 132 m 2x50
 220 515 l 2
 236 568 244 606 244 624 c 0
 244 647 229 659 200 659 c 0
 193 659 185 658 177 657 c 0
 168 656 161 655 156 655 c 0
 151 655 147 658 147 663 c 1
 148 671 l 1
 152 684 l 2
 155 694 161 697 190 700 c 0
 241 705 340 709 396 709 c 0
 662 709 784 614 784 406 c 0
 784 167 591 -5 324 -5 c 0xb0
 303 -5 275 -4 239 -2 c 0
 205 -1 183 0 168 0 c 0
 108 0 55 -2 24 -4 c 0
 19 -5 12 -5 7 -5 c 0
 0 -5 -2 -3 -2 3 c 2
 -2 8 l 1
 0 20 l 1
 1 28 2 29 4 31 c 0
 5 32 7 33 9 33 c 2
 29 34 l 1
 73 44 82 55 105 132 c 2x50
362 601 m 1
 230 140 l 1
 215 84 215 84 215 76 c 0
 215 53 253 38 312 38 c 0
 511 38 653 200 653 427 c 0
 653 582 576 666 432 666 c 0
 385 666 380 661 362 601 c 1
EndSplineSet
KernsSLIF: 89 -56 0 0 88 -44 0 0 87 -37 0 0 86 -39 0 0 84 -21 0 0 74 -8 0 0 260 -39 0 0 261 -39 0 0 258 -39 0 0 256 -39 0 0 259 -39 0 0 257 -39 0 0 65 -39 0 0
EndChar
StartChar: E
Encoding: 69 69 38
Width: 627
Flags: W
HStem: -5 20 0 39 346 46<290 369 369 379> 650 39<441 476> 674 20
Fore
290 392 m 1x30
 369 392 l 2
 435 392 463 406 491 456 c 0
 495 462 498 464 506 464 c 2
 523 464 l 2
 532 464 535 462 535 457 c 0
 535 454 534 452 530 442 c 0
 515 401 489 316 479 273 c 0
 476 260 474 258 458 258 c 2
 441 258 l 2
 431 258 428 260 428 265 c 0
 428 268 428 268 433 285 c 0
 438 300 441 312 441 320 c 0
 441 341 429 346 379 346 c 2
 278 346 l 1
 221 140 l 1
 206 81 206 81 206 72 c 0
 206 44 228 39 343 39 c 0x60
 416 39 446 43 476 58 c 0
 505 72 528 94 545 123 c 0
 564 155 565 157 570 157 c 0
 572 157 572 157 578 154 c 2
 594 146 l 2
 602 142 604 140 604 136 c 0
 604 133 604 133 599 122 c 2
 564 42 l 2
 560 33 556 23 552 12 c 0
 546 -2 544 -5 535 -5 c 0x80
 532 -5 522 -5 514 -4 c 0
 495 -3 296 0 257 0 c 0x60
 242 0 221 0 192 -1 c 2
 125 -1 l 1
 36 -3 l 2
 21 -4 6 -5 1 -5 c 0
 -6 -5 -8 -3 -8 3 c 2
 -8 8 l 1
 -6 20 l 1
 -5 28 -5 29 -2 31 c 0
 -1 32 1 33 3 33 c 2
 18 35 l 2
 64 41 75 55 99 132 c 1
 217 556 l 2
 227 592 230 605 230 617 c 0
 230 641 214 651 169 653 c 0
 146 655 144 656 144 662 c 0
 144 665 144 667 145 670 c 1
 147 681 l 1
 150 693 152 694 165 694 c 2x88
 441 689 l 1x10
 511 689 598 691 625 693 c 0
 632 694 639 694 643 694 c 0
 650 694 654 692 654 687 c 0
 654 685 654 685 651 674 c 2x88
 620 559 l 1
 616 539 616 539 605 539 c 2
 589 539 l 2
 578 539 576 540 576 548 c 2
 576 550 l 1
 577 562 577 574 577 581 c 0
 577 636 558 650 482 650 c 2
 415 650 l 2
 369 650 362 643 343 574 c 1
 290 392 l 1x30
EndSplineSet
EndChar
StartChar: F
Encoding: 70 70 39
Width: 572
Flags: W
HStem: -5 20 0 20 346 45<304 395> 669 20<408 408> 674 20<169.5 175 632 642.5>
Fore
304 391 m 1x28
 409 391 l 2
 466 391 471 394 494 450 c 0
 498 460 500 461 512 461 c 2
 526 461 l 2
 536 461 541 458 541 451 c 0
 541 447 541 447 528 414 c 0
 511 370 492 305 485 264 c 0
 484 257 481 254 475 254 c 0
 473 254 470 254 466 255 c 2
 451 256 l 2
 437 257 435 258 435 263 c 0
 435 265 435 265 440 284 c 0
 445 302 447 311 447 318 c 0
 447 338 433 346 395 346 c 2
 292 346 l 1
 233 132 l 2
 223 95 221 84 221 72 c 0
 221 48 238 37 282 35 c 0
 305 34 307 33 307 27 c 1
 306 19 l 1
 303 9 l 1
 301 -4 299 -5 286 -5 c 0xa0
 277 -5 256 -4 229 -3 c 0
 194 -1 163 0 133 0 c 0x40
 97 0 84 -1 23 -4 c 0
 16 -5 6 -5 -1 -5 c 0xa0
 -8 -5 -10 -3 -10 3 c 2
 -10 8 l 1
 -8 20 l 2
 -7 27 -6 30 -5 31 c 0
 -3 33 0 33 20 34 c 0
 78 39 87 48 109 132 c 1
 229 557 l 1
 238 591 241 605 241 617 c 0
 241 642 225 651 180 654 c 0
 157 655 155 656 155 662 c 0
 155 663 155 663 157 670 c 1
 159 680 l 1
 161 692 164 694 175 694 c 2x48
 408 689 l 1x10
 572 692 l 2
 602 693 626 694 638 694 c 0
 647 694 652 691 652 685 c 0
 652 682 650 674 648 663 c 1
 621 561 l 2
 617 545 614 541 606 541 c 2
 601 541 l 1
 588 543 l 2
 578 544 574 547 574 556 c 0
 574 562 574 567 575 573 c 0
 577 584 578 594 578 600 c 0
 578 637 550 649 466 649 c 2
 409 649 l 2
 378 649 375 646 362 600 c 2
 304 391 l 1x28
EndSplineSet
KernsSLIF: 117 -17 0 0 114 -13 0 0 46 -73 0 0 249 -28 0 0 250 -28 0 0 303 -14 0 0 304 -28 0 0 111 -28 0 0 106 -17 0 0 105 -8 0 0 45 6 0 0 295 -32 0 0 101 -32 0 0 44 -66 0 0 292 -51 0 0 241 -59 0 0 287 -19 0 0 288 -56 0 0 97 -56 0 0 273 -6 0 0 79 -6 0 0 74 18 0 0 260 -63 0 0 261 -63 0 0 258 -63 0 0 256 -63 0 0 259 -63 0 0 257 -63 0 0 65 -63 0 0
EndChar
StartChar: G
Encoding: 71 71 40
Width: 793
Flags: MW
HStem: -20 44<385.5 465> 667 44<494.5 550>
VStem: 91 132<262 348.5>
Fore
772 266 m 2
 752 266 l 1
 716 263 706 249 690 184 c 0
 671 104 654 48 639 11 c 1
 553 -13 508 -20 443 -20 c 0
 328 -20 244 12 178 81 c 0
 121 141 91 219 91 305 c 0
 91 526 287 711 519 711 c 0
 606 711 720 680 776 643 c 0
 793 631 800 624 800 620 c 0
 800 618 799 614 797 610 c 2
 786 583 l 1
 758 506 l 2
 753 493 752 491 747 491 c 0
 745 491 745 491 736 492 c 2
 723 494 l 2
 716 495 713 497 713 502 c 0
 713 505 713 505 716 514 c 0
 719 525 720 535 720 544 c 0
 720 577 701 607 665 628 c 0
 625 651 571 667 529 667 c 0
 460 667 383 632 328 574 c 1
 261 506 223 403 223 294 c 0
 223 127 302 24 428 24 c 0
 502 24 541 49 557 109 c 1
 574 168 l 1
 586 212 590 229 590 240 c 0
 590 262 579 266 519 267 c 0
 484 267 484 267 484 272 c 0
 484 274 484 274 486 281 c 2
 489 291 l 1
 492 304 495 307 506 307 c 0
 523 307 557 306 586 304 c 0
 614 302 635 301 643 301 c 0
 647 301 656 301 747 306 c 0
 758 307 770 307 777 307 c 0
 785 307 789 304 789 299 c 0
 789 297 789 296 786 286 c 2
 784 279 l 2
 782 271 781 270 779 268 c 0
 778 267 775 266 772 266 c 2
EndSplineSet
KernsSLIF: 89 -24 0 0 87 -10 0 0 86 -7 0 0 84 -9 0 0 260 -19 0 0 261 -18 0 0 258 -19 0 0 256 -19 0 0 259 -19 0 0 257 -19 0 0 225 2 0 0 65 -19 0 0
EndChar
StartChar: H
Encoding: 72 72 41
Width: 812
Flags: W
HStem: -5 20 0 20 342 50<299 592> 669 20 674 20<165.5 176 452.5 457.5 595.5 606 882.5 887.5>
Fore
299 392 m 1x30
 606 392 l 1
 653 556 l 1
 666 599 667 605 667 617 c 0
 667 642 651 651 606 654 c 0
 583 655 581 656 581 662 c 1
 582 670 l 1
 585 680 l 1
 587 692 589 694 602 694 c 0x28
 610 694 612 694 659 691 c 0
 690 690 721 689 752 689 c 0x10
 792 689 820 690 867 693 c 0
 874 694 881 694 884 694 c 0x28
 891 694 893 692 893 687 c 2
 893 681 l 1
 891 669 l 1
 890 661 890 660 888 658 c 0
 885 656 884 656 862 655 c 0
 811 650 800 637 777 556 c 2
 655 132 l 2
 645 98 642 83 642 71 c 0
 642 47 659 37 702 35 c 0
 725 34 727 33 727 27 c 1
 726 19 l 1
 724 9 l 1
 721 -3 719 -5 707 -5 c 0x90
 698 -5 696 -5 649 -2 c 0
 618 -1 587 0 555 0 c 0x40
 513 0 500 0 441 -4 c 0
 434 -5 427 -5 424 -5 c 0x90
 417 -5 415 -3 415 3 c 2
 415 8 l 1
 417 20 l 1x40
 418 28 419 29 421 31 c 0
 424 33 424 33 446 34 c 0
 497 39 508 52 532 132 c 1
 592 342 l 1
 285 342 l 1
 225 132 l 2
 216 100 212 83 212 71 c 0
 212 47 229 37 272 35 c 0
 295 34 297 33 297 27 c 1
 296 19 l 1
 294 9 l 1
 291 -3 289 -5 277 -5 c 0x90
 268 -5 266 -5 219 -2 c 0
 188 -1 157 0 126 0 c 0x40
 87 0 57 -1 11 -4 c 0
 4 -5 -3 -5 -6 -5 c 0x90
 -13 -5 -15 -3 -15 3 c 2
 -15 8 l 1
 -13 20 l 1
 -12 28 -11 29 -9 31 c 0
 -6 33 -6 33 16 34 c 0
 67 39 78 52 101 132 c 2
 223 556 l 2
 232 588 236 606 236 617 c 0
 236 642 220 651 176 654 c 0
 153 655 151 656 151 662 c 0
 151 664 151 667 152 670 c 1
 154 680 l 2
 157 693 159 694 172 694 c 0x28
 180 694 182 694 229 691 c 0
 260 690 291 689 322 689 c 0x10
 362 689 389 690 437 693 c 0
 444 694 451 694 454 694 c 0x28
 461 694 463 692 463 687 c 2
 463 681 l 1
 461 669 l 1
 460 660 460 660 457 658 c 0
 454 656 453 656 432 655 c 0
 381 650 370 637 347 556 c 1
 299 392 l 1x30
EndSplineSet
EndChar
StartChar: I
Encoding: 73 73 42
Width: 387
Flags: W
HStem: -5 20 0 20 669 20 674 20<171.5 182 460 465.5>
Fore
107 132 m 2x40
 229 557 l 2
 238 588 242 606 242 617 c 0
 242 642 226 651 182 654 c 0
 159 655 157 656 157 662 c 0
 157 664 157 667 158 670 c 1
 160 680 l 2
 163 693 165 694 178 694 c 0x10
 186 694 188 694 235 691 c 0
 266 690 297 689 329 689 c 0x20
 371 689 384 689 443 693 c 0
 450 694 458 694 462 694 c 0x10
 469 694 471 692 471 686 c 2
 471 681 l 1
 469 669 l 1
 468 661 468 660 465 658 c 0
 463 656 461 656 440 655 c 0
 387 650 377 638 353 557 c 1
 231 132 l 2
 222 101 218 83 218 71 c 0
 218 47 235 37 278 35 c 0
 301 34 303 33 303 27 c 1
 302 19 l 1
 300 9 l 1
 297 -3 295 -5 283 -5 c 0xa0
 274 -5 272 -5 225 -2 c 0
 194 -1 163 0 132 0 c 0x40
 93 0 63 -1 17 -4 c 0
 10 -5 3 -5 0 -5 c 0xa0
 -7 -5 -9 -3 -9 3 c 2
 -9 8 l 1
 -7 20 l 1
 -6 28 -5 29 -3 31 c 0
 0 33 0 33 22 34 c 0
 73 39 84 52 107 132 c 2x40
EndSplineSet
EndChar
StartChar: J
Encoding: 74 74 43
Width: 351
Flags: W
HStem: -233 58 669 20 674 20<145 160 437.5 443>
Fore
83 56 m 2xc0
 213 556 l 2
 223 594 225 604 225 616 c 0
 225 642 205 653 157 654 c 0
 137 654 132 656 132 663 c 0
 132 664 132 667 133 670 c 1
 135 680 l 1
 137 692 139 694 151 694 c 0x20
 169 694 180 694 216 692 c 0
 251 690 281 689 308 689 c 0x40
 340 689 380 690 422 693 c 0
 429 694 436 694 439 694 c 0x20
 447 694 449 690 448 681 c 1
 446 669 l 1
 445 661 444 659 443 657 c 1
 439 656 l 1
 419 655 l 2
 367 649 358 638 337 556 c 1
 215 90 l 2
 186 -22 151 -108 119 -151 c 0
 76 -207 28 -233 -31 -233 c 0
 -88 -233 -116 -211 -116 -165 c 0
 -116 -124 -95 -102 -56 -102 c 0
 -20 -102 -13 -109 -6 -152 c 0
 -4 -167 5 -175 18 -175 c 0
 44 -175 49 -162 60 -69 c 0
 66 -18 71 10 83 56 c 2xc0
EndSplineSet
KernsSLIF: 261 -20 0 0 256 -21 0 0 65 -21 0 0
EndChar
StartChar: K
Encoding: 75 75 44
Width: 719
Flags: W
HStem: -5 20 0 20 669 20 674 20<176 190 441 452.5 546.5 560 761.5 772>
Fore
322 331 m 1x90
 267 292 l 1
 218 121 l 1
 205 78 205 78 205 67 c 0
 205 46 222 35 257 35 c 0
 280 35 281 34 281 28 c 0
 281 26 281 26 280 20 c 2x40
 278 8 l 2
 276 -3 274 -5 264 -5 c 0x90
 252 -5 239 -4 194 -2 c 0
 169 -1 150 0 136 0 c 0x40
 125 0 106 -1 82 -2 c 0
 47 -4 17 -5 6 -5 c 0
 -4 -5 -7 -3 -7 4 c 1
 -7 4 -7 12 -6 14 c 1
 -6 21 l 1
 -4 32 -3 34 6 34 c 0
 70 34 87 54 117 163 c 2
 224 549 l 1
 238 609 238 609 238 618 c 0
 238 632 228 645 212 650 c 0
 201 654 201 654 166 655 c 0
 162 655 160 657 160 660 c 0
 160 662 160 662 162 668 c 2
 166 681 l 2
 169 692 171 694 181 694 c 0x90
 199 694 224 693 262 691 c 0
 286 690 305 689 314 689 c 0x20
 325 689 343 690 368 691 c 0
 398 693 435 694 447 694 c 0x90
 458 694 462 692 462 686 c 0
 462 684 462 684 460 679 c 1
 458 667 l 1
 456 660 454 657 450 655 c 0
 447 654 447 654 427 653 c 0
 375 650 369 644 348 571 c 1
 287 364 l 1
 517 552 l 1
 596 624 596 624 596 636 c 0
 596 648 578 656 552 656 c 0
 533 655 529 656 529 661 c 0
 529 662 530 668 531 669 c 1x20
 535 683 l 1
 538 691 542 694 551 694 c 0x90
 569 694 596 693 668 689 c 1x20
 717 692 755 694 768 694 c 0
 776 694 780 690 780 684 c 1
 780 684 780 682 779 679 c 1
 778 670 l 2
 777 662 776 660 774 658 c 2
 769 656 l 1
 751 652 l 2
 728 648 695 628 646 590 c 1
 417 405 l 1
 589 98 l 2
 620 43 626 37 651 33 c 0
 665 31 666 31 666 26 c 0
 666 24 666 21 665 17 c 2
 663 8 l 1
 660 -3 658 -5 646 -5 c 0x90
 635 -5 602 -4 585 -3 c 0
 562 -1 544 0 541 0 c 0x40
 536 0 517 -1 489 -3 c 2
 408 -5 l 2
 401 -5 398 -3 398 2 c 2
 398 8 l 1
 400 22 l 1
 402 29 403 31 406 33 c 0
 407 34 410 34 417 34 c 2
 442 35 l 2
 462 36 470 42 470 57 c 0
 470 67 466 77 450 105 c 2
 322 331 l 1x90
EndSplineSet
KernsSLIF: 121 -81 0 0 309 -7 0 0 117 -7 0 0 303 -24 0 0 304 -25 0 0 111 -25 0 0 45 -22 0 0 101 -15 0 0 241 -4 0 0 287 -2 0 0 97 -2 0 0 84 8 0 0 83 7 0 0 273 -51 0 0 274 -51 0 0 234 -53 0 0 79 -51 0 0 71 -64 0 0 67 -54 0 0
EndChar
StartChar: L
Encoding: 76 76 45
Width: 627
Flags: W
HStem: -5 20 0 38 669 20 674 20<168.5 179 464 470.5>
Fore
99 132 m 1x80
 223 557 l 1
 238 604 238 605 238 618 c 0
 238 642 222 651 178 654 c 0
 155 655 153 656 153 662 c 1
 154 670 l 1
 156 680 l 1
 159 692 162 694 175 694 c 0x10
 183 694 204 693 231 692 c 0
 266 690 298 689 329 689 c 0x20
 367 689 381 690 444 693 c 0
 450 694 461 694 467 694 c 0x10
 474 694 477 690 476 681 c 1
 474 669 l 1
 473 656 471 655 444 655 c 0
 388 652 377 640 350 557 c 1
 231 161 l 1
 213 96 213 96 213 85 c 0
 213 51 245 38 328 38 c 0x60
 402 38 459 47 493 65 c 0
 522 80 526 84 572 154 c 0
 574 157 577 159 579 159 c 0
 581 159 585 158 589 156 c 2
 603 150 l 2
 610 147 612 145 612 142 c 0
 612 139 610 134 608 130 c 2
 558 14 l 2
 551 -2 548 -5 537 -5 c 0x80
 521 -5 362 -2 256 0 c 1x60
 187 -1 l 1
 114 -1 l 1
 37 -3 l 2
 22 -4 8 -5 4 -5 c 0
 -3 -5 -5 -3 -5 3 c 2
 -5 8 l 1
 -3 20 l 1
 -2 28 -2 29 1 31 c 0
 2 32 4 33 6 33 c 2
 23 35 l 2
 66 43 76 56 99 132 c 1x80
EndSplineSet
KernsSLIF: 121 -18 0 0 309 -2 0 0 117 -2 0 0 39 -81 0 0 186 -66 0 0 45 47 0 0 89 -56 0 0 87 -85 0 0 86 -82 0 0 279 -19 0 0 85 -19 0 0 84 -54 0 0 83 13 0 0 277 -14 0 0 275 -14 0 0 273 -14 0 0 276 -14 0 0 274 -14 0 0 79 -14 0 0 71 -26 0 0 262 -19 0 0 67 -20 0 0 261 24 0 0 256 24 0 0 257 24 0 0 225 45 0 0 65 24 0 0
EndChar
StartChar: M
Encoding: 77 77 46
Width: 867
Flags: W
HStem: -5 20 0 20 669 20 673 20<341.5 352 916 922.5>
Fore
337 -3 m 1x90
 312 -3 l 1
 267 492 l 1
 121 120 l 2
 112 97 107 78 107 66 c 0
 107 45 125 35 160 35 c 0
 177 35 181 33 181 26 c 0
 181 24 181 21 180 16 c 2
 178 7 l 1
 177 -2 173 -5 163 -5 c 0x90
 152 -5 138 -4 109 -2 c 0
 91 -1 78 0 69 0 c 0x40
 63 0 48 -1 28 -2 c 0
 1 -4 -26 -5 -38 -5 c 0
 -46 -5 -49 -3 -49 4 c 2
 -49 10 l 1
 -47 23 l 1
 -46 28 -45 30 -44 31 c 0
 -42 32 -40 33 -37 33 c 2
 -13 36 l 2
 27 42 39 56 65 120 c 2
 101 208 l 1
 141 306 l 1
 256 590 l 1
 239 648 228 655 152 654 c 0
 145 654 141 657 142 661 c 1
 143 669 l 1xa0
 144 676 l 2
 146 688 148 690 160 690 c 2
 191 690 l 1
 250 691 l 1
 320 692 l 2
 329 693 339 693 344 693 c 0x10
 360 693 362 691 364 668 c 1
 401 184 l 1
 724 689 l 1
 818 689 l 2xa0
 850 689 865 690 894 692 c 0
 903 693 913 693 919 693 c 0
 926 693 929 691 929 686 c 2
 929 677 l 1
 927 668 l 1
 925 657 922 655 890 654 c 0
 844 653 833 642 819 578 c 1
 709 126 l 1
 698 84 698 84 698 74 c 0
 698 50 719 36 756 35 c 0
 778 35 781 34 781 27 c 0
 781 24 781 24 779 18 c 2
 775 6 l 2
 772 -2 769 -5 761 -5 c 0x90
 739 -5 699 -4 676 -3 c 0
 649 -1 629 0 624 0 c 0x40
 618 0 598 -1 569 -3 c 2
 489 -5 l 2
 482 -5 479 -3 479 1 c 2
 479 9 l 1
 481 21 l 1
 482 30 482 30 485 32 c 0
 486 33 489 34 491 35 c 2
 515 35 l 2
 554 37 565 48 580 108 c 2
 693 554 l 1
 337 -3 l 1x90
EndSplineSet
EndChar
StartChar: N
Encoding: 78 78 47
Width: 793
Flags: W
HStem: -5 20 0 20 669 20 674 20<129 138.5 327 327 669 673 878 882.5>
Fore
570 -5 m 1xa0
 274 531 l 1
 175 190 l 1
 162 144 151 91 151 71 c 0
 151 43 165 36 216 34 c 0
 235 33 238 33 238 28 c 0
 238 26 237 20 236 18 c 1
 233 7 l 2
 230 -4 229 -5 220 -5 c 0x80
 213 -5 213 -5 117 0 c 1x40
 70 -2 l 2
 52 -4 16 -5 4 -5 c 0
 -3 -5 -5 -4 -5 2 c 0
 -5 5 -5 7 -4 9 c 1
 -1 22 l 1
 0 30 1 31 5 33 c 2
 10 34 l 1
 34 35 l 1
 69 40 78 52 98 123 c 1
 242 600 l 1
 215 641 189 654 130 655 c 0
 121 655 117 657 117 662 c 0
 117 664 117 664 118 671 c 1
 120 680 l 1
 122 692 124 694 134 694 c 0x90
 143 694 161 693 177 692 c 0
 198 690 212 689 223 689 c 0x20
 230 689 258 690 296 693 c 2
 327 694 l 1
 615 160 l 1
 716 517 l 1
 728 558 737 603 737 619 c 0
 737 644 719 656 682 655 c 0
 662 655 658 656 658 664 c 1
 659 673 l 1
 661 681 l 1
 663 691 665 694 673 694 c 2
 702 693 l 2
 728 691 767 689 779 689 c 0
 789 689 837 691 854 693 c 2
 878 694 l 2x90
 887 694 889 691 889 682 c 1
 888 669 l 1
 888 659 886 657 879 656 c 0
 820 650 804 633 781 548 c 1
 648 93 l 1
 693 6 l 2
 695 3 695 3 695 2 c 0
 695 -2 690 -5 683 -5 c 2
 570 -5 l 1xa0
EndSplineSet
KernsSLIF: 309 -11 0 0 117 -11 0 0 46 -11 0 0 249 -6 0 0 303 -6 0 0 304 -8 0 0 111 -8 0 0 295 -6 0 0 101 -6 0 0 44 -7 0 0 292 -21 0 0 241 -25 0 0 287 -11 0 0 288 -23 0 0 97 -23 0 0 273 -4 0 0 274 -4 0 0 79 -4 0 0 71 -12 0 0 262 -7 0 0 67 -7 0 0 261 7 0 0 256 7 0 0 257 7 0 0 225 28 0 0 65 7 0 0
EndChar
StartChar: O
Encoding: 79 79 48
Width: 830
Flags: MW
HStem: -20 44<334 429.5> 667 44<456 551.5>
VStem: 75 131<204.5 338.5> 682 131<364 487.5>
Fore
492 711 m 0
 687 711 813 585 813 390 c 0
 813 151 638 -20 394 -20 c 0
 195 -20 75 103 75 306 c 0
 75 536 256 711 492 711 c 0
490 667 m 0
 422 667 364 640 317 587 c 0
 248 511 206 395 206 282 c 0
 206 116 273 24 395 24 c 0
 464 24 529 55 575 110 c 0
 642 190 682 306 682 422 c 0
 682 578 613 667 490 667 c 0
EndSplineSet
KernsSLIF: 89 -70 0 0 88 -48 0 0 87 -51 0 0 86 -56 0 0 84 -39 0 0 261 -47 0 0 256 -48 0 0 257 -48 0 0 225 -27 0 0 65 -48 0 0
EndChar
StartChar: P
Encoding: 80 80 49
Width: 627
Flags: W
HStem: -5 20 0 20 301 44<403.5 423> 664 45<392.5 443.5>
VStem: 512 138<483.5 578>
Fore
114 132 m 2x48
 230 573 l 2
 237 599 240 616 240 629 c 0
 240 647 231 657 213 657 c 0
 210 657 204 656 197 654 c 0
 179 650 167 647 160 647 c 0
 156 647 153 649 153 654 c 0
 153 656 154 660 155 664 c 1
 157 675 l 2
 159 686 162 689 172 691 c 0
 226 702 301 709 377 709 c 0
 562 709 650 645 650 511 c 0
 650 384 565 301 436 301 c 0
 371 301 318 311 318 323 c 0
 318 324 319 329 320 332 c 2
 325 345 l 2
 327 351 331 354 335 354 c 0
 337 354 340 353 343 352 c 0
 358 348 375 345 387 345 c 0
 459 345 512 427 512 540 c 0
 512 623 478 664 409 664 c 0
 376 664 373 661 352 583 c 2
 232 132 l 1
 219 86 219 86 219 72 c 0
 219 47 237 37 285 35 c 0
 306 35 310 33 310 27 c 0
 310 24 310 22 309 19 c 1
 307 9 l 1
 305 -4 303 -5 287 -5 c 0xb8
 278 -5 252 -4 228 -3 c 0
 194 -1 165 0 142 0 c 0x48
 111 0 98 -1 34 -4 c 0
 27 -5 17 -5 11 -5 c 0xb8
 4 -5 2 -3 2 3 c 2
 2 8 l 1
 4 20 l 2
 5 27 6 30 7 31 c 0
 9 33 11 33 32 34 c 0
 83 39 93 51 114 132 c 2x48
EndSplineSet
KernsSLIF: 46 -95 0 0 249 -25 0 0 250 -24 0 0 303 -24 0 0 304 -24 0 0 111 -24 0 0 45 -17 0 0 295 -33 0 0 101 -33 0 0 44 -95 0 0 292 -68 0 0 241 -72 0 0 287 -50 0 0 288 -70 0 0 97 -70 0 0 74 -29 0 0 261 -73 0 0 256 -73 0 0 257 -73 0 0 225 -82 0 0 65 -73 0 0
EndChar
StartChar: Q
Encoding: 81 81 50
Width: 830
Flags: MW
HStem: -234 44 667 44
VStem: 75 131 682 131
Fore
1630 -263 m 0
 1630 -269 1628 -270 1594 -289 c 0
 1546 -316 1504 -339 1429 -341 c 2
 1355 -343 l 2
 1278 -345 1188 -335 1083 -312 c 0
 996 -293 926 -274 874 -256 c 0
 716 -200 546 -128 357 -19 c 1
 288 -4 234 0 189 41 c 0
 80 140 68 274 75 300 c 1
 80 528 243 712 492 711 c 0
 678 710 826 596 813 390 c 0
 792 50 566 16 510 -8 c 1
 510 -17 533 -33 582 -60 c 0
 771 -163 959 -228 1126 -268 c 0
 1229 -293 1333 -305 1410 -305 c 0
 1459 -305 1489 -301 1538 -283 c 2
 1616 -254 l 1
 1625 -254 1630 -257 1630 -263 c 0
490 667 m 0
 422 667 364 640 317 587 c 0
 248 510 206 394 206 281 c 0
 206 115 273 23 395 23 c 0
 464 23 529 54 575 109 c 0
 642 189 682 305 682 421 c 0
 682 578 613 667 490 667 c 0
EndSplineSet
EndChar
StartChar: R
Encoding: 82 82 51
Width: 738
Flags: W
HStem: -5 20 0 20 666 43<412.5 483.5>
VStem: 564 127<529 581.5>
Fore
289 347 m 1xb0
 226 133 l 2
 215 95 212 84 212 71 c 0
 212 47 228 38 273 35 c 0
 301 34 302 34 302 27 c 1
 301 19 l 1
 299 9 l 2
 296 -4 294 -5 279 -5 c 0xb0
 271 -5 248 -4 219 -2 c 0
 189 -1 160 0 132 0 c 0x50
 97 0 48 -2 17 -4 c 0
 12 -5 6 -5 4 -5 c 0xb0
 -3 -5 -5 -3 -5 3 c 2
 -5 8 l 1
 -3 20 l 1x50
 -2 28 -2 29 1 31 c 0
 2 32 5 33 6 33 c 2
 26 35 l 1
 71 43 81 55 104 133 c 2
 216 514 l 1
 239 594 242 606 242 624 c 0
 242 647 228 658 198 658 c 0
 190 658 183 658 176 656 c 0
 166 655 158 654 155 654 c 0
 149 654 146 657 146 661 c 0
 146 662 146 662 149 670 c 1
 152 682 l 2
 155 693 162 696 190 699 c 0
 244 704 359 709 437 709 c 0
 530 709 581 700 625 675 c 0
 667 651 691 607 691 556 c 0
 691 455 602 375 466 352 c 1
 499 344 510 325 560 195 c 0
 606 73 626 44 667 38 c 0
 685 35 687 34 687 28 c 0
 687 26 687 25 685 17 c 2
 682 5 l 2
 680 -3 677 -5 670 -5 c 0xb0
 665 -5 657 -5 650 -4 c 0
 624 -1 608 0 600 0 c 0x50
 589 0 567 -2 553 -3 c 0
 546 -4 539 -5 535 -5 c 0
 518 -5 509 6 496 40 c 2
 407 271 l 2
 382 335 366 347 304 347 c 2
 289 347 l 1xb0
299 392 m 1
 351 392 l 2
 423 392 468 402 503 425 c 0
 542 451 564 499 564 559 c 0
 564 636 529 666 439 666 c 0
 386 666 379 660 361 600 c 2
 299 392 l 1
EndSplineSet
KernsSLIF: 121 -53 0 0 309 -6 0 0 310 -6 0 0 117 -6 0 0 250 -22 0 0 303 -23 0 0 304 -23 0 0 111 -23 0 0 45 -18 0 0 295 -13 0 0 101 -13 0 0 292 1 0 0 241 -2 0 0 89 -51 0 0 87 -44 0 0 86 -41 0 0 279 -47 0 0 85 -47 0 0 84 -32 0 0 273 -34 0 0 274 -34 0 0 234 -35 0 0 79 -34 0 0 71 -46 0 0 262 -38 0 0 67 -38 0 0
EndChar
StartChar: S
Encoding: 83 83 52
Width: 498
Flags: MW
HStem: -20 44<192.5 243> 667 44<322.5 385.5>
VStem: 130 109<527 532> 333 115<113.5 161.5>
Fore
479 530 m 2
 460 535 l 2
 452 538 449 540 449 544 c 1
 450 550 l 1
 455 563 457 573 457 583 c 0
 457 632 415 667 356 667 c 0
 288 667 239 620 239 554 c 0
 239 500 260 462 332 388 c 0
 422 294 448 246 448 171 c 0
 448 56 357 -20 219 -20 c 0
 166 -20 93 -5 43 16 c 0
 27 23 21 29 21 38 c 0
 21 43 22 45 27 59 c 0
 29 67 31 74 33 80 c 2
 48 126 l 1
 50 134 55 155 57 165 c 0
 58 170 60 172 64 172 c 0
 66 172 66 172 72 171 c 2
 88 169 l 2
 98 167 100 166 100 162 c 1
 99 153 l 1
 95 136 93 122 93 112 c 0
 93 62 142 24 207 24 c 0
 279 24 333 72 333 134 c 0
 333 189 310 228 227 317 c 0
 153 395 130 439 130 505 c 0
 130 559 152 611 191 650 c 0
 233 691 287 711 358 711 c 0
 416 711 472 695 511 666 c 0
 522 659 527 654 527 650 c 0
 527 647 525 641 520 629 c 0
 505 589 495 555 492 534 c 0
 491 529 490 528 487 528 c 0
 486 528 484 528 479 530 c 2
EndSplineSet
KernsSLIF: 89 -4 0 0 87 6 0 0 86 9 0 0 84 -3 0 0 225 21 0 0
EndChar
StartChar: T
Encoding: 84 84 53
Width: 682
Flags: W
HStem: -5 20 0 20 644 49<269 354 579 615 615 642>
Fore
354 644 m 2x60
 266 644 l 2
 206 644 192 636 163 586 c 0
 149 563 148 562 142 562 c 0
 129 562 107 572 107 577 c 0
 107 580 108 582 109 585 c 2
 112 594 l 1
 154 718 l 1
 160 737 160 737 172 737 c 2
 191 737 l 2
 199 737 201 736 201 733 c 0
 201 732 201 729 200 727 c 0
 198 720 198 717 198 713 c 0
 198 696 210 693 269 693 c 2
 660 693 l 2
 716 693 729 698 745 727 c 0
 749 735 751 737 755 737 c 0
 757 737 757 737 764 736 c 2
 780 734 l 2
 788 733 790 731 790 728 c 0
 790 726 790 726 786 712 c 1
 747 561 l 2
 742 541 742 540 735 540 c 0
 718 540 703 545 703 551 c 2
 703 556 l 1
 704 562 l 1
 707 588 l 2
 708 596 709 602 709 606 c 0
 710 631 687 644 642 644 c 2
 615 644 l 2
 543 644 535 639 519 584 c 2
 390 132 l 2
 381 101 377 83 377 72 c 0
 377 48 395 37 438 35 c 0
 461 34 463 33 463 27 c 0
 463 25 463 22 462 19 c 1
 460 9 l 1
 457 -3 455 -5 442 -5 c 0xa0
 433 -5 413 -4 385 -3 c 0
 350 -1 318 0 287 0 c 0x40
 248 0 234 -1 171 -4 c 0
 164 -5 154 -5 148 -5 c 0xa0
 140 -5 138 -1 139 8 c 1
 141 20 l 1
 142 28 142 29 144 31 c 0
 147 33 151 34 170 34 c 1
 227 38 237 49 262 132 c 1
 393 585 l 2
 399 606 403 623 403 629 c 0
 403 641 394 644 354 644 c 2x60
EndSplineSet
KernsSLIF: 121 -90 0 0 119 -93 0 0 118 -97 0 0 117 -88 0 0 59 -40 0 0 115 -78 0 0 114 -89 0 0 46 -89 0 0 249 -83 0 0 111 -85 0 0 106 -14 0 0 105 -8 0 0 45 -55 0 0 172 -82 0 0 171 -85 0 0 103 -100 0 0 101 -89 0 0 44 -84 0 0 58 -42 0 0 99 -83 0 0 241 -86 0 0 97 -84 0 0 89 28 0 0 87 38 0 0 86 41 0 0 83 10 0 0 277 2 0 0 233 -2 0 0 275 2 0 0 273 2 0 0 276 2 0 0 274 2 0 0 234 -1 0 0 79 2 0 0 74 26 0 0 71 -9 0 0 67 -2 0 0 260 -54 0 0 261 -54 0 0 258 -54 0 0 256 -54 0 0 259 -54 0 0 257 -54 0 0 225 -33 0 0 65 -54 0 0
EndChar
StartChar: U
Encoding: 85 85 54
Width: 812
Flags: W
HStem: -21 50<351.5 435.5> 669 20 674 20<165.5 173 443 450 671 677.5 882 888>
VStem: 114 123<123.5 180>
Fore
332 556 m 1x50
 266 328 l 1
 246 257 237 208 237 166 c 0
 237 81 300 29 403 29 c 0
 540 29 610 100 659 289 c 2
 712 494 l 1
 736 601 736 601 736 618 c 0
 736 641 716 654 680 654 c 0
 659 654 657 655 657 659 c 0
 657 661 658 664 659 668 c 2
 663 683 l 1
 665 692 667 694 675 694 c 0xb0
 680 694 695 693 709 692 c 0
 734 691 771 689 781 689 c 2x50
 856 692 l 2
 869 693 879 694 885 694 c 0
 891 694 895 691 895 686 c 0
 895 685 895 681 894 677 c 2
 893 672 l 2
 890 657 888 655 878 654 c 0
 827 654 808 634 789 562 c 2
 711 270 l 2
 680 154 647 87 600 45 c 1
 553 1 482 -21 389 -21 c 0
 220 -21 114 49 114 162 c 0
 114 198 129 267 165 394 c 1
 212 556 l 2
 223 594 225 604 225 617 c 0
 225 641 210 652 170 654 c 0
 148 655 146 655 146 661 c 0
 146 663 147 665 149 671 c 1
 154 681 l 2
 159 692 161 694 170 694 c 0xb0
 176 694 183 694 191 693 c 0
 222 691 289 689 315 689 c 0x50
 345 689 354 689 420 693 c 0
 429 694 439 694 447 694 c 0xb0
 453 694 456 692 456 689 c 0
 456 688 455 685 454 681 c 2
 451 669 l 1
 449 663 447 659 445 658 c 0
 443 656 438 655 420 655 c 1
 367 651 355 638 332 556 c 1x50
EndSplineSet
KernsSLIF: 114 -19 0 0 46 -32 0 0 112 -16 0 0 110 -28 0 0 109 -22 0 0 44 -24 0 0 260 -53 0 0 261 -52 0 0 256 -53 0 0 259 -53 0 0 257 -53 0 0 225 -32 0 0 65 -53 0 0
EndChar
StartChar: V
Encoding: 86 86 55
Width: 738
Flags: W
HStem: 669 20 674 20<115 129 378 381 617.5 628.5 813.5 823.5>
Fore
357 -21 m 1x80
 321 -21 l 1
 186 581 l 1
 174 644 166 654 129 656 c 1
 104 655 101 656 101 661 c 0
 101 663 101 668 102 671 c 1
 104 683 l 1
 105 693 107 694 123 694 c 0x40
 135 694 171 692 195 691 c 0
 219 690 231 689 241 689 c 2x80
 378 694 l 2
 384 694 388 692 388 688 c 1
 387 684 l 1
 387 678 l 1
 384 667 l 1
 382 657 380 655 367 654 c 1
 342 655 334 654 325 649 c 0
 313 644 305 629 305 612 c 0
 305 598 310 563 315 537 c 1
 398 138 l 1
 639 549 l 2
 663 589 674 614 674 629 c 0
 674 645 656 655 628 655 c 0
 604 656 602 656 602 661 c 0
 602 663 602 663 604 672 c 2
 607 684 l 2
 609 692 613 694 622 694 c 0x40
 635 694 670 693 685 692 c 0
 707 690 723 689 725 689 c 0x80
 778 692 807 694 820 694 c 0x40
 827 694 830 692 830 687 c 2
 830 679 l 1
 829 669 l 2
 828 660 825 657 816 656 c 0
 765 649 759 644 707 560 c 1
 357 -21 l 1x80
EndSplineSet
KernsSLIF: 121 -51 0 0 117 -60 0 0 59 -28 0 0 114 -60 0 0 46 -97 0 0 249 -67 0 0 111 -68 0 0 105 -9 0 0 45 -33 0 0 172 -65 0 0 171 -68 0 0 103 -76 0 0 101 -72 0 0 44 -92 0 0 58 -24 0 0 241 -90 0 0 97 -88 0 0 84 25 0 0 83 -4 0 0 277 -39 0 0 233 -46 0 0 275 -39 0 0 273 -39 0 0 276 -39 0 0 274 -39 0 0 79 -39 0 0 71 -54 0 0 67 -45 0 0 260 -90 0 0 261 -90 0 0 258 -90 0 0 256 -90 0 0 259 -90 0 0 257 -90 0 0 225 -96 0 0 65 -90 0 0
EndChar
StartChar: W
Encoding: 87 87 56
Width: 996
Flags: W
HStem: 669 20 674 20<120 129 344 354.5 403 413 604 613.5 653.5 661.5 818.5 830 906 918 1088.5 1096>
Fore
395 128 m 1x40
 512 321 l 1
 448 596 l 2
 436 648 431 654 404 655 c 0
 393 655 392 656 392 661 c 0
 392 665 392 667 393 672 c 2
 395 682 l 1
 396 691 399 694 407 694 c 0x40
 419 694 450 693 465 692 c 0
 487 690 502 689 504 689 c 0x80
 565 693 597 694 611 694 c 0
 616 694 618 693 618 690 c 0
 618 688 617 685 616 680 c 2
 614 671 l 1
 613 663 611 660 609 659 c 2
 602 657 l 1
 590 656 l 2
 568 655 554 646 554 631 c 0
 554 626 554 625 561 592 c 1
 591 459 l 1
 660 574 l 2
 672 595 683 620 683 630 c 0
 683 645 671 653 646 653 c 0
 641 654 640 654 640 658 c 0
 640 660 641 665 642 668 c 1
 645 683 l 1
 647 691 650 694 657 694 c 0x40
 666 694 696 693 707 692 c 0
 725 690 738 689 739 689 c 0x80
 789 693 810 694 827 694 c 0x40
 833 694 836 692 836 687 c 1
 835 676 l 1
 833 666 l 2
 832 661 830 658 827 656 c 2
 822 655 l 1
 803 653 l 2
 771 650 760 641 733 597 c 1
 603 395 l 1
 668 123 l 1
 913 539 l 2
 935 576 952 616 952 631 c 0
 952 650 941 655 898 655 c 0
 894 655 892 657 892 660 c 0
 892 661 892 663 893 665 c 1
 894 669 l 1x80
 897 681 l 1
 899 691 902 694 910 694 c 0x40
 926 694 954 692 1004 689 c 1x80
 1040 692 l 2
 1051 693 1084 694 1093 694 c 0
 1099 694 1101 692 1101 688 c 0
 1101 687 1100 684 1099 680 c 2
 1096 666 l 1
 1093 658 1091 656 1084 654 c 0
 1041 644 1026 629 983 556 c 1
 629 -21 l 1
 588 -21 l 1
 525 262 l 1
 356 -21 l 1
 312 -21 l 1
 172 583 l 1
 160 637 155 643 112 655 c 0
 108 656 107 657 107 660 c 1
 108 670 l 1
 112 684 l 1
 113 692 116 694 124 694 c 0x40
 134 694 163 693 237 689 c 1x80
 283 691 l 2
 308 693 337 694 351 694 c 0
 358 694 360 693 360 688 c 0
 360 685 360 685 358 679 c 1
 356 667 l 1
 354 661 353 658 351 657 c 2
 346 655 l 1
 331 655 l 2
 302 653 287 640 287 617 c 0
 287 606 294 563 299 540 c 1
 395 128 l 1x40
EndSplineSet
KernsSLIF: 121 -42 0 0 117 -51 0 0 59 -15 0 0 114 -50 0 0 46 -84 0 0 249 -60 0 0 111 -62 0 0 105 -3 0 0 45 -27 0 0 172 -58 0 0 171 -61 0 0 103 -67 0 0 101 -66 0 0 44 -85 0 0 58 -17 0 0 241 -84 0 0 97 -82 0 0 84 30 0 0 83 4 0 0 277 -30 0 0 233 -34 0 0 275 -30 0 0 273 -30 0 0 276 -30 0 0 274 -30 0 0 79 -30 0 0 71 -44 0 0 67 -36 0 0 260 -84 0 0 261 -84 0 0 258 -84 0 0 256 -84 0 0 259 -84 0 0 257 -84 0 0 225 -89 0 0 65 -84 0 0
EndChar
StartChar: X
Encoding: 88 88 57
Width: 719
Flags: W
HStem: -5 20 0 20 669 20 674 20<147 157.5 410 420 559.5 563 786 789.5>
Fore
344 330 m 1xa0
 247 568 l 2
 215 647 205 656 143 655 c 0
 136 655 133 659 133 664 c 0
 133 666 134 669 135 673 c 2
 138 683 l 1
 140 692 143 694 151 694 c 0x10
 164 694 214 693 232 692 c 0
 262 690 283 689 288 689 c 0x20
 294 689 315 690 343 692 c 0
 363 693 404 694 416 694 c 0
 424 694 427 692 427 685 c 0
 427 683 427 679 426 676 c 1
 425 666 l 1
 424 661 422 657 420 656 c 2
 414 655 l 1
 398 655 l 2
 373 655 356 642 356 625 c 0
 356 615 361 600 375 564 c 2
 433 417 l 1
 570 562 l 2
 605 598 617 616 617 630 c 0
 617 648 601 655 553 658 c 0
 549 658 547 660 547 663 c 1
 548 672 l 1
 551 684 l 2
 553 692 556 694 563 694 c 2
 637 692 l 1
 661 690 678 689 682 689 c 0
 684 689 700 690 722 692 c 2
 786 694 l 2x10
 793 694 796 692 796 688 c 0
 796 687 796 687 795 678 c 1
 793 669 l 1
 791 657 790 656 781 655 c 0
 733 649 704 631 653 580 c 1
 454 372 l 1
 559 111 l 2
 588 39 595 34 659 34 c 0
 665 33 668 32 668 28 c 0
 668 27 668 27 666 17 c 1
 665 7 l 2
 664 -2 660 -5 652 -5 c 0xa0
 635 -5 605 -4 516 0 c 1x40
 452 -3 l 1
 403 -4 l 1
 373 -5 l 1
 371 -5 l 2
 367 -5 365 -4 365 -1 c 0
 365 0 365 0 367 7 c 2
 371 23 l 1
 372 29 373 30 373 30 c 1
 375 34 377 34 400 34 c 0
 431 34 446 45 446 66 c 0
 446 78 439 99 418 151 c 2
 363 286 l 1
 226 135 l 2
 178 83 168 69 168 56 c 0
 168 45 186 36 212 35 c 0
 232 35 235 34 235 29 c 0
 235 28 235 27 233 18 c 1
 230 8 l 1
 227 -4 225 -5 213 -5 c 2xa0
 185 -4 l 1
 146 -2 l 2
 127 -1 112 0 104 0 c 0x40
 96 0 80 -1 58 -2 c 0
 38 -3 0 -5 -12 -5 c 0
 -19 -5 -22 -3 -22 1 c 0
 -22 2 -22 4 -21 6 c 2
 -19 12 l 1
 -16 24 l 2
 -14 32 -13 33 -11 34 c 2
 -7 36 l 1
 16 37 l 2
 55 40 94 67 161 137 c 2
 344 330 l 1xa0
EndSplineSet
KernsSLIF: 121 -79 0 0 117 -6 0 0 111 -23 0 0 45 -24 0 0 101 -13 0 0 81 -48 0 0 273 -48 0 0 79 -48 0 0 67 -51 0 0
EndChar
StartChar: Y
Encoding: 89 89 58
Width: 738
Flags: W
HStem: -5 20 0 20 669 20<287 291.5 695 696 813 813> 674 20<144 149 583 587 796.5 808> 675 20<406 415.5>
Fore
422 371 m 1x08
 596 556 l 2
 633 595 646 614 646 630 c 0
 646 646 629 654 596 655 c 0
 574 656 572 657 572 664 c 0
 572 666 572 666 574 671 c 1
 576 684 l 1
 577 692 579 694 587 694 c 2x10
 652 692 l 2
 676 690 694 689 696 689 c 0
 758 693 788 694 805 694 c 0
 811 694 813 693 813 689 c 1
 813 689 813 688 812 679 c 1
 810 665 l 1
 808 657 807 655 799 654 c 0
 755 644 726 625 683 576 c 1
 447 322 l 1
 395 132 l 1
 384 95 382 84 382 72 c 0
 382 46 396 39 450 34 c 0
 457 34 460 31 460 27 c 0
 460 26 459 23 458 19 c 2
 456 9 l 1
 454 -3 451 -5 442 -5 c 0xa0
 437 -5 432 -5 425 -4 c 0
 393 -2 323 0 299 0 c 0x40
 277 0 252 -1 225 -3 c 0
 187 -5 184 -5 151 -5 c 0xa0
 144 -5 142 -3 142 3 c 2
 142 8 l 1
 144 20 l 1
 145 31 147 33 152 33 c 2
 171 34 l 1
 196 36 l 2
 250 39 259 49 280 132 c 1
 323 307 l 1
 218 594 l 1
 202 641 192 651 158 653 c 0
 129 654 129 654 129 659 c 0
 129 661 130 664 131 670 c 1
 134 683 l 1
 137 692 139 694 149 694 c 2x50
 237 692 l 1
 265 690 285 689 289 689 c 0x20
 294 689 314 690 341 692 c 0
 362 693 400 695 412 695 c 0
 419 695 422 693 422 688 c 0
 422 686 422 683 421 679 c 2
 418 667 l 2
 415 654 414 654 387 654 c 0
 356 654 340 644 340 624 c 0
 340 618 340 618 356 563 c 1
 422 371 l 1x08
EndSplineSet
KernsSLIF: 118 -105 0 0 117 -111 0 0 59 -64 0 0 46 -112 0 0 112 -108 0 0 249 -106 0 0 111 -108 0 0 105 -19 0 0 45 -77 0 0 172 -105 0 0 171 -108 0 0 103 -116 0 0 101 -106 0 0 44 -114 0 0 58 -58 0 0 241 -115 0 0 97 -114 0 0 84 14 0 0 83 -14 0 0 277 -50 0 0 233 -57 0 0 275 -50 0 0 273 -50 0 0 276 -50 0 0 274 -50 0 0 79 -50 0 0 71 -64 0 0 67 -56 0 0 260 -84 0 0 261 -84 0 0 258 -84 0 0 256 -84 0 0 259 -84 0 0 257 -84 0 0 225 -63 0 0 65 -84 0 0
EndChar
StartChar: Z
Encoding: 90 90 59
Width: 664
Flags: W
HStem: -5 20 0 20 651 45<318 517>
Fore
517 651 m 1xa0
 280 651 l 2
 212 651 181 633 158 580 c 0
 155 573 153 571 147 571 c 0
 145 571 140 572 138 573 c 2
 126 578 l 2
 120 581 118 583 118 587 c 0
 118 589 118 590 120 594 c 1
 172 740 l 1
 204 740 l 1
 240 700 250 696 318 696 c 2
 661 696 l 2
 672 696 675 695 675 690 c 0
 675 687 671 680 664 670 c 2
 213 67 l 1
 204 57 204 57 204 54 c 0
 204 50 210 48 226 48 c 2
 398 49 l 2
 465 50 485 52 500 59 c 0
 510 65 520 73 528 82 c 0
 537 94 543 103 548 112 c 2
 566 141 l 2
 575 155 580 160 584 160 c 2
 591 159 l 1
 603 154 l 2
 610 152 614 148 614 143 c 0
 614 141 613 137 611 132 c 0
 596 95 581 45 572 9 c 0
 570 -3 567 -5 559 -5 c 2xa0
 499 -4 l 2
 459 -2 331 0 301 0 c 2x40
 123 -3 l 2
 96 -4 74 -5 60 -5 c 0
 45 -5 38 0 38 9 c 0
 38 14 43 22 54 37 c 2
 517 651 l 1xa0
EndSplineSet
KernsSLIF: 121 -32 0 0 118 -26 0 0
EndChar
StartChar: bracketleft
Encoding: 91 91 60
Width: 295
Flags: W
Fore
-54 -141 m 1
 201 714 l 1
 205 729 207 731 217 731 c 0
 221 731 236 730 254 729 c 0
 262 728 271 728 283 728 c 0
 308 728 336 729 355 730 c 0
 375 732 394 733 404 733 c 0
 407 733 409 732 409 729 c 0
 409 727 409 727 407 721 c 1
 402 700 l 1
 401 697 399 695 397 695 c 2
 392 694 l 1
 384 694 l 1
 343 694 l 2
 288 694 283 690 265 629 c 2
 69 -34 l 1
 55 -79 55 -79 55 -90 c 0
 55 -102 61 -111 73 -115 c 0
 82 -119 87 -120 139 -120 c 2
 168 -120 l 2
 179 -120 179 -120 179 -123 c 0
 179 -124 179 -124 177 -130 c 2
 171 -147 l 2
 168 -155 168 -156 164 -156 c 2
 162 -156 l 2
 145 -155 77 -153 56 -153 c 0
 24 -153 24 -153 -33 -157 c 0
 -38 -158 -45 -158 -50 -158 c 0
 -55 -158 -57 -157 -57 -153 c 1
 -56 -147 l 1
 -54 -141 l 1
EndSplineSet
EndChar
StartChar: backslash
Encoding: 92 92 61
Width: 498
Flags: W
Fore
172 710 m 2
 214 710 l 2
 226 710 229 707 232 696 c 1
 406 -4 l 1
 408 -10 409 -16 409 -18 c 0
 409 -21 405 -23 395 -23 c 2
 360 -23 l 2
 344 -23 336 -19 334 -8 c 1
 160 693 l 2
 159 697 158 701 158 703 c 0
 158 707 164 710 172 710 c 2
EndSplineSet
EndChar
StartChar: bracketright
Encoding: 93 93 62
Width: 295
Flags: W
Fore
371 715 m 1
 117 -140 l 1
 112 -155 111 -157 100 -157 c 0
 97 -157 82 -156 64 -155 c 0
 55 -154 47 -154 34 -154 c 0
 13 -154 -17 -155 -37 -156 c 0
 -57 -157 -77 -158 -85 -158 c 0
 -89 -158 -91 -157 -91 -154 c 0
 -91 -153 -91 -153 -90 -147 c 1
 -84 -126 l 2
 -83 -123 -82 -122 -80 -121 c 2
 -75 -120 l 1
 -66 -120 l 1
 -25 -120 l 2
 29 -120 34 -116 52 -55 c 2
 249 608 l 1
 263 652 263 652 263 664 c 0
 263 676 257 685 245 689 c 0
 235 693 230 694 179 694 c 2
 150 694 l 2
 139 694 139 694 139 697 c 0
 139 698 139 698 141 704 c 2
 147 721 l 1
 149 729 150 730 154 730 c 2
 155 730 l 2
 173 729 241 727 262 727 c 0
 295 727 295 727 351 731 c 0
 357 732 364 732 368 732 c 0
 373 732 375 730 375 727 c 1
 374 721 l 1
 371 715 l 1
EndSplineSet
EndChar
StartChar: asciicircum
Encoding: 94 94 63
Width: 498
Flags: W
Fore
263 573 m 1
 250 586 l 1
 245 581 241 577 236 573 c 1
 189 521 129 493 48 485 c 1
 48 530 l 1
 139 576 214 672 220 750 c 1
 279 750 l 1
 284 673 360 576 451 530 c 1
 451 485 l 1
 371 492 309 522 263 573 c 1
EndSplineSet
EndChar
StartChar: underscore
Encoding: 95 95 64
Width: 498
Flags: MW
HStem: -250 51<-1 499>
Fore
-1 -199 m 1
 499 -199 l 1
 499 -250 l 1
 -1 -250 l 1
 -1 -199 l 1
EndSplineSet
EndChar
StartChar: quoteleft
Encoding: 96 8216 65
Width: 258
Flags: MW
HStem: 675 20<329 329>
VStem: 120 79
Fore
329 695 m 1
 323 662 l 1
 236 639 199 610 199 566 c 0
 199 547 207 537 231 527 c 0
 267 512 277 501 277 474 c 0
 277 440 250 416 212 416 c 0
 156 416 120 460 120 528 c 0
 120 579 146 619 203 652 c 0
 237 673 270 684 329 695 c 1
EndSplineSet
KernsSLIF: 89 14 1 0 87 24 1 0 86 28 1 0 84 11 1 0 261 -55 1 0 256 -55 1 0 257 -55 1 0 225 -80 1 0 65 -55 1 0
EndChar
StartChar: a
Encoding: 97 97 66
Width: 516
Flags: MW
HStem: -19 89
VStem: 28 102<101 139.5> 282 100
Fore
471 146 m 1
 494 126 l 1
 430 30 376 -19 333 -19 c 0
 303 -19 282 1 282 31 c 0
 282 58 282 58 318 166 c 0
 321 174 324 184 326 193 c 1
 285 134 274 118 249 87 c 0
 198 22 138 -19 93 -19 c 0
 53 -19 28 13 28 63 c 0
 28 216 228 427 373 427 c 0
 383 427 393 426 415 422 c 1
 445 464 448 466 473 466 c 0
 496 466 509 462 509 456 c 0
 509 454 508 448 506 445 c 1
 440 281 l 2
 401 183 382 125 382 102 c 0
 382 87 390 76 400 76 c 0
 414 76 424 85 471 146 c 1
330 363 m 0
 295 365 242 331 198 280 c 1
 157 230 130 167 130 117 c 0
 130 85 141 70 163 70 c 0
 196 70 227 100 284 187 c 1
 331 256 366 321 366 337 c 0
 366 352 352 362 330 363 c 0
EndSplineSet
KernsSLIF: 121 -8 0 0 119 -7 0 0 118 -11 0 0 39 -1 0 0 106 -14 0 0
EndChar
StartChar: b
Encoding: 98 98 67
Width: 553
Flags: MW
HStem: -19 58<181.5 221> 431 20<402 466>
VStem: 422 109<306 339>
Fore
339 765 m 1
 175 250 l 1
 271 379 365 451 439 451 c 0
 493 451 531 409 531 350 c 0
 531 184 311 -19 131 -19 c 0
 74 -19 36 11 36 56 c 0
 36 82 44 122 60 175 c 2
 158 500 l 2
 182 579 202 659 202 673 c 0
 202 695 189 701 129 703 c 1
 138 734 l 1
 220 745 242 750 331 773 c 1
 339 765 l 1
379 372 m 0
 340 375 286 336 228 264 c 0
 177 199 148 141 144 96 c 0
 141 64 165 39 198 39 c 0
 250 39 312 92 369 185 c 0
 405 245 422 288 422 324 c 0
 422 354 407 370 379 372 c 0
EndSplineSet
KernsSLIF: 121 11 0 0 119 5 0 0 118 1 0 0
EndChar
StartChar: c
Encoding: 99 99 68
Width: 424
Flags: MW
HStem: -19 70<201 218.5> 412 39<256 299>
VStem: 34 108<126 223>
Fore
348 113 m 1
 371 94 l 1
 310 12 257 -19 180 -19 c 0
 89 -19 34 42 34 142 c 0
 34 305 165 451 310 451 c 0
 385 451 437 414 437 361 c 0
 437 327 414 304 380 304 c 0
 344 304 328 322 328 364 c 0
 328 386 327 393 323 399 c 0
 318 406 305 412 293 412 c 0
 219 412 142 284 142 162 c 0
 142 90 173 51 229 51 c 0
 271 51 300 66 348 113 c 1
EndSplineSet
KernsSLIF: 107 -19 0 0 104 -16 0 0
EndChar
StartChar: d
Encoding: 100 100 69
Width: 553
Flags: W
HStem: -19 79<168 171.5> 411 40<304 341.5> 414 20<410 410>
Fore
500 150 m 1x20
 526 131 l 1
 445 11 412 -19 357 -19 c 0
 329 -19 313 -2 313 28 c 0
 313 49 313 49 333 124 c 1
 337 144 l 1
 258 21 208 -19 135 -19 c 0
 71 -19 32 30 32 112 c 0
 32 285 179 451 332 451 c 0xc0
 358 451 376 447 410 434 c 1
 445 555 l 2
 474 654 474 654 474 668 c 0
 474 694 460 700 391 702 c 1
 402 735 l 1
 472 742 525 753 594 772 c 1
 605 763 l 1
 432 184 l 1
 422 152 410 98 410 87 c 0
 410 76 415 70 423 70 c 0
 440 70 453 84 500 150 c 1x20
324 411 m 0
 284 411 243 385 213 340 c 0
 172 278 144 195 140 121 c 0
 138 83 154 60 182 60 c 0
 218 60 255 86 293 137 c 0
 339 200 384 307 384 356 c 0
 384 388 359 411 324 411 c 0
EndSplineSet
EndChar
StartChar: e
Encoding: 101 101 70
Width: 424
Flags: MW
HStem: -19 64<199.5 219> 412 39<276.5 302.5>
VStem: 33 109<115.5 154> 336 91<341 366>
Fore
342 104 m 1
 363 86 l 1
 303 8 257 -19 181 -19 c 0
 88 -19 33 37 33 132 c 0
 33 218 70 306 134 372 c 0
 185 425 243 451 310 451 c 0
 381 451 427 415 427 359 c 0
 427 310 392 266 328 236 c 0
 287 217 226 204 148 197 c 1
 143 173 142 162 142 146 c 0
 142 85 175 45 224 45 c 0
 263 45 298 62 342 104 c 1
153 237 m 1
 187 239 213 244 236 252 c 0
 293 273 336 320 336 362 c 0
 336 370 333 380 325 396 c 0
 319 406 309 412 296 412 c 0
 249 412 192 343 153 237 c 1
EndSplineSet
KernsSLIF: 121 20 0 0 120 13 0 0 119 15 0 0 118 11 0 0 116 8 0 0 39 18 0 0
EndChar
StartChar: f
Encoding: 102 102 71
Width: 295
Flags: MW
HStem: -255 60<-10 -8.5> 375 45<60 120 244 322> 724 44<341.5 357>
Fore
235 375 m 1
 171 91 l 1
 121 -128 38 -255 -55 -255 c 0
 -86 -255 -105 -238 -105 -210 c 0
 -105 -182 -85 -158 -62 -158 c 0
 -49 -158 -38 -165 -24 -183 c 0
 -17 -191 -12 -195 -8 -195 c 0
 6 -195 30 -126 46 -36 c 2
 120 375 l 1
 48 375 l 2
 36 375 34 376 34 381 c 0
 34 382 34 384 35 386 c 1
 37 394 l 1
 41 408 l 2
 44 420 44 420 60 420 c 2
 129 420 l 1
 131 430 132 440 134 449 c 0
 150 542 151 546 167 587 c 0
 215 708 284 768 376 768 c 0
 431 768 473 740 473 703 c 0
 473 678 452 657 428 657 c 0
 409 657 398 666 385 693 c 0
 376 713 363 724 351 724 c 0
 332 724 306 700 297 674 c 0
 275 614 267 579 244 420 c 1
 333 420 l 2
 344 420 346 419 346 415 c 0
 346 413 346 413 344 406 c 1
 341 389 l 1
 338 375 338 375 322 375 c 2
 235 375 l 1
EndSplineSet
KernsSLIF: 116 32 0 0 115 9 0 0 39 43 0 0 249 -3 0 0 250 -3 0 0 303 23 0 0 304 -2 0 0 111 -2 0 0 108 61 0 0 106 18 0 0 105 24 0 0 102 41 0 0 295 -12 0 0 101 -12 0 0 292 -27 0 0 241 -31 0 0 287 17 0 0 288 -29 0 0 97 -29 0 0
EndChar
StartChar: g
Encoding: 103 103 72
Width: 480
Flags: W
HStem: -270 40<142.5 217.5> 412 39<261 289>
VStem: -40 88<-164.5 -118.5> 68 96<231 251.5> 91 95 308 108<-174 -130.5> 333 101
Fore
376 420 m 1xd2
 484 428 l 2
 494 429 494 429 497 429 c 0
 504 429 509 425 509 419 c 0
 509 417 508 413 505 404 c 2
 495 378 l 2
 491 367 489 365 484 365 c 2
 471 366 l 1
 414 369 l 1
 430 336 434 321 434 293 c 0xd2
 434 188 355 127 216 123 c 1
 194 107 186 97 186 83 c 0
 186 62 201 51 279 17 c 0
 337 -10 361 -24 381 -44 c 0
 404 -69 416 -98 416 -131 c 0
 416 -218 329 -270 185 -270 c 0
 99 -270 30 -251 -12 -216 c 0
 -30 -201 -40 -178 -40 -151 c 0
 -40 -83 3 -50 135 -19 c 1
 103 0 91 14 91 34 c 0xec
 91 61 108 83 159 120 c 2
 175 132 l 1
 99 159 68 197 68 265 c 0
 68 371 155 451 270 451 c 0
 308 451 331 445 376 420 c 1xd2
278 412 m 0
 244 412 217 391 195 348 c 0
 175 310 164 268 164 235 c 0
 164 191 188 162 226 162 c 0
 254 162 277 177 296 207 c 0
 320 245 333 291 333 335 c 0
 333 383 313 412 278 412 c 0
173 -41 m 1xe4
 84 -66 48 -95 48 -142 c 0
 48 -193 104 -230 181 -230 c 0
 254 -230 308 -197 308 -151 c 0
 308 -110 270 -79 173 -41 c 1xe4
EndSplineSet
KernsSLIF: 114 10 0 0 303 -11 0 0 304 -11 0 0 108 -19 0 0 295 -16 0 0 101 -16 0 0 292 -30 0 0 241 -36 0 0 287 -33 0 0 97 -33 0 0
EndChar
StartChar: h
Encoding: 104 104 73
Width: 553
Flags: W
HStem: -19 64 -14 20 381 70
VStem: 416 109<311.5 348.5>
Fore
142 703 m 1x70
 149 735 l 1
 199 740 264 753 337 772 c 1
 349 767 l 1
 304 611 l 1
 277 519 l 2
 270 494 263 470 255 446 c 0
 249 429 243 411 238 394 c 2
 185 224 l 1
 246 315 256 328 283 357 c 0
 341 420 395 451 448 451 c 0
 497 451 525 412 525 342 c 0
 525 271 490 178 432 95 c 0
 380 20 324 -19 269 -19 c 0
 237 -19 215 -1 215 26 c 0
 215 53 235 74 259 74 c 0
 272 74 283 69 295 57 c 0
 306 47 308 45 315 45 c 0xb0
 332 45 356 79 373 128 c 0
 397 200 416 289 416 334 c 0
 416 363 406 381 389 381 c 0
 351 381 302 336 245 250 c 0
 205 190 145 77 128 31 c 0
 117 3 113 -6 108 -9 c 0
 104 -13 93 -14 68 -14 c 0
 35 -14 23 -10 23 1 c 0
 23 7 23 8 89 210 c 0
 103 254 115 296 126 335 c 2
 184 536 l 2
 199 589 215 658 215 670 c 0
 215 695 198 703 142 703 c 1x70
EndSplineSet
KernsSLIF: 121 10 0 0 39 3 0 0
EndChar
StartChar: i
Encoding: 105 105 74
Width: 313
Flags: W
HStem: -19 20 431 20<180 219> 582 127<235.5 270.5>
VStem: 37 113 142 113 190 127<628 662.5>
Fore
262 140 m 1xf4
 286 120 l 1
 215 28 152 -19 98 -19 c 0
 62 -19 37 3 37 33 c 0xf4
 37 56 45 81 98 213 c 0
 128 290 142 332 142 343 c 0
 142 353 134 361 124 361 c 0
 105 361 91 351 53 312 c 0
 51 310 49 309 47 309 c 0
 46 309 45 310 41 313 c 2
 32 322 l 2
 29 325 28 327 28 329 c 0
 28 331 31 336 40 347 c 0
 93 410 158 451 202 451 c 0
 236 451 255 432 255 398 c 0xe8
 255 365 251 352 200 223 c 0
 192 202 192 202 184 183 c 1
 157 114 l 1
 152 103 150 93 150 86 c 0
 150 74 160 64 170 64 c 0
 188 64 206 79 262 140 c 1xf4
253 709 m 0
 288 709 317 681 317 646 c 0
 317 610 289 582 253 582 c 0
 218 582 190 611 190 645 c 0
 190 680 218 709 253 709 c 0
EndSplineSet
KernsSLIF: 106 -22 0 0 84 -19 0 0
EndChar
StartChar: j
Encoding: 106 106 75
Width: 295
Flags: MW
HStem: -270 57 431 20<197.5 235> 582 127<247 282>
VStem: 201 127<628 662.5>
Fore
29 -164 m 1
 152 280 l 2
 161 312 165 332 165 342 c 0
 165 352 157 361 148 361 c 0
 134 361 111 345 82 315 c 0
 71 304 68 301 65 301 c 0
 64 301 64 301 59 306 c 2
 50 315 l 2
 45 319 45 320 45 321 c 0
 45 326 67 351 98 382 c 0
 147 433 179 451 216 451 c 0
 254 451 277 429 277 392 c 0
 277 365 273 345 236 207 c 0
 191 39 174 -10 131 -99 c 0
 76 -215 19 -270 -45 -270 c 0
 -76 -270 -99 -248 -99 -219 c 0
 -99 -192 -83 -173 -59 -173 c 0
 -41 -173 -31 -181 -15 -204 c 0
 -11 -210 -7 -213 -1 -213 c 0
 13 -213 18 -206 29 -164 c 1
264 709 m 0
 300 709 328 681 328 646 c 0
 328 610 300 582 264 582 c 0
 230 582 201 611 201 645 c 0
 201 680 230 709 264 709 c 0
EndSplineSet
EndChar
StartChar: k
Encoding: 107 107 76
Width: 535
Flags: W
HStem: -19 70 -13 20 387 64
VStem: 425 96<327 356>
Fore
146 704 m 1x50
 155 735 l 1
 169 737 l 1
 253 751 l 2
 267 753 305 761 348 773 c 1
 359 765 l 1
 226 328 l 1
 259 361 271 372 290 389 c 0
 336 430 387 451 439 451 c 0
 490 451 521 419 521 366 c 0
 521 288 443 234 307 219 c 1
 331 203 344 184 363 134 c 0
 387 71 403 51 428 51 c 0
 451 51 475 70 500 109 c 1
 518 93 l 1
 467 10 430 -19 376 -19 c 0xb0
 358 -19 340 -13 329 -3 c 0
 301 21 294 35 261 128 c 0
 235 199 225 213 193 220 c 1
 133 25 l 2
 122 -11 119 -13 82 -13 c 0
 48 -13 30 -6 30 6 c 0
 30 15 64 120 108 250 c 0
 125 302 138 341 144 365 c 1
 206 590 l 2
 225 659 225 659 225 669 c 0
 225 695 208 703 146 704 c 1x50
201 252 m 1
 220 252 l 2
 354 252 425 284 425 343 c 0
 425 369 412 387 394 387 c 0
 344 387 266 332 201 252 c 1
EndSplineSet
KernsSLIF: 309 2 0 0 117 2 0 0 115 13 0 0 46 3 0 0 303 2 0 0 304 2 0 0 111 2 0 0 45 6 0 0 103 -14 0 0 295 7 0 0 101 7 0 0 44 6 0 0 292 11 0 0 241 7 0 0 287 9 0 0 288 9 0 0 97 9 0 0
EndChar
StartChar: l
Encoding: 108 108 77
Width: 295
Flags: MW
HStem: -17 20
VStem: 39 109
Fore
248 137 m 1
 272 117 l 1
 183 13 144 -17 98 -17 c 0
 66 -17 39 10 39 43 c 0
 39 68 53 128 80 218 c 1
 177 534 l 1
 199 608 208 646 208 664 c 0
 208 692 187 701 125 702 c 1
 131 733 l 1
 258 750 265 751 335 772 c 1
 346 761 l 1
 277 559 148 119 148 87 c 0
 148 74 154 66 165 66 c 0
 183 66 186 68 248 137 c 1
EndSplineSet
KernsSLIF: 121 -19 0 0 118 -20 0 0
EndChar
StartChar: m
Encoding: 109 109 78
Width: 812
Flags: W
HStem: -19 20 -13 20 381 70
VStem: 387 101 650 105
Fore
64 302 m 1x78
 41 316 l 1
 78 398 133 451 182 451 c 0
 215 451 232 431 232 393 c 0
 232 367 229 347 218 302 c 1
 230 317 l 1
 262 359 l 2
 305 415 364 451 416 451 c 0
 458 451 488 424 488 386 c 0
 488 376 485 357 480 335 c 1
 476 313 l 1
 478 315 499 338 540 381 c 0
 581 426 635 451 690 451 c 0
 728 451 755 424 755 385 c 0
 755 352 743 313 707 223 c 0
 677 150 666 115 666 94 c 0
 666 79 672 71 685 71 c 0
 699 71 725 96 755 137 c 1
 777 114 l 1
 711 26 653 -19 603 -19 c 0xb8
 570 -19 548 4 548 37 c 0
 548 65 559 100 598 195 c 0
 633 278 650 331 650 351 c 0
 650 367 636 381 618 381 c 0
 580 381 524 329 480 253 c 0
 458 213 413 105 391 39 c 0
 374 -12 374 -13 344 -13 c 0
 307 -13 283 -6 283 6 c 0
 283 8 286 19 288 26 c 1
 362 239 l 2
 375 276 387 325 387 342 c 0
 387 364 372 381 352 381 c 0
 318 381 282 343 238 260 c 0
 209 203 154 74 135 16 c 0
 128 -8 120 -13 94 -13 c 0
 55 -13 36 -6 36 9 c 0
 36 15 39 28 42 36 c 2
 105 196 l 2
 122 240 142 307 142 322 c 0
 142 338 133 349 120 349 c 0
 102 349 83 332 64 302 c 1x78
EndSplineSet
KernsSLIF: 121 -11 0 0 119 -15 0 0 118 -19 0 0 112 -13 0 0
EndChar
StartChar: n
Encoding: 110 110 79
Width: 553
Flags: W
HStem: -19 20 -13 20 381 70
VStem: 153 91 294 114 396 108
Fore
75 301 m 1x74
 53 319 l 1
 85 370 94 383 113 406 c 0
 136 434 166 451 193 451 c 0
 225 451 244 431 244 396 c 0
 244 382 240 355 234 327 c 1
 228 302 l 1
 263 344 275 358 293 377 c 0
 337 423 392 451 441 451 c 0
 475 451 504 421 504 387 c 0xb4
 504 356 498 337 454 228 c 0
 425 158 408 106 408 92 c 0
 408 79 416 70 427 70 c 0
 442 70 453 80 491 123 c 1
 501 136 l 1
 523 115 l 1
 442 14 398 -19 344 -19 c 0
 313 -19 294 2 294 36 c 0xa8
 294 67 310 117 372 279 c 0
 389 322 396 345 396 357 c 0
 396 362 396 362 387 374 c 0
 381 381 381 381 374 381 c 0
 322 381 258 299 204 163 c 2
 153 36 l 2
 149 27 146 18 143 9 c 0
 136 -10 130 -13 106 -13 c 0
 66 -13 46 -6 46 8 c 0
 46 13 48 28 50 31 c 1
 113 186 l 2
 135 240 153 300 153 318 c 0
 153 336 143 348 129 348 c 0
 113 348 100 337 75 301 c 1x74
EndSplineSet
KernsSLIF: 121 -9 0 0 119 -12 0 0 118 -16 0 0 39 -9 0 0 112 -10 0 0 84 -80 0 0
EndChar
StartChar: o
Encoding: 111 111 80
Width: 479
Flags: MW
HStem: -19 38<178.5 209> 431 20<221 334.5>
VStem: 37 108<111.5 133> 337 108<291.5 322>
Fore
288 451 m 0
 381 451 445 376 445 268 c 0
 445 112 331 -19 195 -19 c 0
 99 -19 37 55 37 168 c 0
 37 320 154 451 288 451 c 0
288 414 m 0
 259 415 230 391 205 343 c 0
 173 280 145 168 145 98 c 0
 145 45 162 19 195 19 c 0
 223 19 250 39 273 77 c 0
 307 133 337 253 337 330 c 0
 337 384 320 412 288 414 c 0
EndSplineSet
KernsSLIF: 121 9 0 0 120 -6 0 0 119 3 0 0 116 -6 0 0 39 -4 0 0 84 -94 0 0
EndChar
StartChar: p
Encoding: 112 112 81
Width: 553
Flags: W
HStem: -270 20 -264 20 -19 40<229.5 258> -10 20 402 49
VStem: 419 109<276 329.5>
Fore
183 406 m 1x94
 209 492 l 2
 220 528 223 531 257 531 c 0
 296 531 307 527 307 512 c 0
 307 504 307 503 299 480 c 1
 283 430 l 1
 360 447 389 451 426 451 c 0
 495 451 528 407 528 316 c 0
 528 236 494 154 431 86 c 0
 369 17 296 -19 220 -19 c 0x2c
 198 -19 183 -17 151 -10 c 1
 120 -116 l 1
 116 -132 111 -148 106 -162 c 0
 102 -175 99 -188 99 -195 c 0
 99 -222 118 -231 179 -232 c 0
 183 -232 185 -233 185 -235 c 0
 185 -237 185 -237 182 -247 c 1
 179 -260 l 2
 177 -268 175 -270 168 -270 c 0x94
 156 -270 156 -270 104 -266 c 0
 82 -265 62 -264 45 -264 c 0x44
 19 -264 19 -264 -47 -269 c 0
 -53 -270 -65 -270 -70 -270 c 0
 -75 -270 -78 -268 -78 -265 c 0
 -78 -264 -78 -264 -76 -255 c 1
 -74 -241 l 1
 -72 -232 -70 -230 -62 -230 c 0
 -13 -232 7 -207 36 -106 c 2
 171 361 l 1
 130 346 102 334 47 308 c 1
 33 340 l 1
 57 353 76 362 109 375 c 2
 183 406 l 1x94
271 391 m 1
 207 170 l 1
 188 107 186 100 186 80 c 0
 186 45 211 21 248 21 c 0
 283 21 317 40 342 75 c 0
 388 137 419 227 419 298 c 0
 419 361 385 402 333 402 c 0
 316 402 303 400 271 391 c 1
EndSplineSet
KernsSLIF: 121 13 0 0 116 -7 0 0
EndChar
StartChar: q
Encoding: 113 113 82
Width: 535
Flags: W
HStem: -270 20 -265 20 -19 49<158.5 163.5> 431 20<278 379.5 506 516 516 521>
Fore
250 -166 m 1xb0
 342 130 l 1
 268 27 201 -19 126 -19 c 0
 69 -19 29 28 29 94 c 0
 29 268 198 451 358 451 c 0
 401 451 424 438 451 399 c 1
 492 451 492 451 506 451 c 2
 516 451 l 2
 526 451 529 450 529 445 c 0
 529 443 529 443 524 425 c 1
 384 -44 l 1
 363 -117 349 -176 349 -195 c 0
 349 -219 364 -228 408 -230 c 0
 414 -230 417 -232 417 -235 c 0
 417 -237 417 -237 415 -246 c 1
 411 -259 l 1
 409 -269 408 -270 402 -270 c 0xb0
 392 -270 381 -270 368 -269 c 0
 344 -267 293 -265 279 -265 c 0x40
 264 -265 241 -266 191 -269 c 0
 181 -270 170 -270 164 -270 c 0
 158 -270 154 -268 154 -264 c 1
 154 -264 154 -261 155 -257 c 1
 158 -241 l 1
 159 -232 161 -231 171 -230 c 0
 224 -227 234 -219 250 -166 c 1xb0
357 412 m 0
 323 414 274 374 228 302 c 0
 175 221 141 139 137 81 c 0
 135 51 148 30 169 30 c 0
 252 30 404 241 404 356 c 0
 404 389 386 410 357 412 c 0
EndSplineSet
KernsSLIF: 117 -6 0 0 99 -7 0 0
EndChar
StartChar: r
Encoding: 114 114 83
Width: 387
Flags: MW
HStem: -13 20 355 96
Fore
55 305 m 1
 33 318 l 1
 81 413 119 451 167 451 c 0
 201 451 220 426 220 381 c 0
 220 359 218 345 208 295 c 1
 203 272 l 1
 215 291 l 1
 245 345 l 2
 284 417 326 451 374 451 c 0
 403 451 422 433 422 405 c 0
 422 362 404 333 378 333 c 0
 369 333 361 335 344 344 c 0
 327 352 318 355 312 355 c 0
 283 355 237 286 201 187 c 2
 149 43 l 1
 130 -6 124 -13 95 -13 c 0
 62 -13 40 -3 40 13 c 0
 40 22 43 36 48 49 c 0
 119 243 131 283 131 317 c 0
 131 337 123 349 109 349 c 0
 94 349 88 345 60 311 c 2
 55 305 l 1
EndSplineSet
KernsSLIF: 122 29 0 0 121 30 0 0 120 24 0 0 119 26 0 0 118 22 0 0 117 24 0 0 116 25 0 0 59 3 0 0 115 11 0 0 114 24 0 0 39 28 0 0 113 -15 0 0 46 -73 0 0 112 30 0 0 249 4 0 0 305 4 0 0 250 3 0 0 303 4 0 0 306 4 0 0 304 4 0 0 111 4 0 0 110 16 0 0 109 23 0 0 108 -10 0 0 107 -18 0 0 106 22 0 0 105 32 0 0 45 -23 0 0 104 -14 0 0 103 6 0 0 102 35 0 0 296 -2 0 0 297 -2 0 0 295 -2 0 0 101 -2 0 0 100 -8 0 0 44 -70 0 0 58 4 0 0 293 -4 0 0 99 -1 0 0 292 -34 0 0 289 -37 0 0 241 -40 0 0 287 -37 0 0 290 -37 0 0 288 -37 0 0 97 -37 0 0
EndChar
StartChar: s
Encoding: 115 115 84
Width: 332
Flags: MW
HStem: -19 49<146.5 147.5> 394 57
VStem: 64 68 207 82
Fore
52 96 m 0
 69 96 79 90 102 64 c 0
 125 37 137 30 156 30 c 0
 184 30 207 53 207 81 c 0
 207 106 191 128 140 175 c 0
 77 231 64 250 64 286 c 0
 64 372 143 451 229 451 c 0
 280 451 316 426 316 390 c 0
 316 365 303 349 282 349 c 0
 265 349 251 355 226 372 c 0
 203 389 191 394 177 394 c 0
 153 394 132 375 132 354 c 0
 132 339 144 321 171 296 c 2
 242 229 l 2
 278 195 289 176 289 148 c 0
 289 66 194 -19 101 -19 c 0
 55 -19 15 14 15 53 c 0
 15 78 31 96 52 96 c 0
EndSplineSet
KernsSLIF: 39 -2 0 0
EndChar
StartChar: t
Encoding: 116 116 85
Width: 313
Flags: MW
HStem: -19 20 376 45<79 129 241 317>
VStem: 40 111
Fore
270 126 m 1
 294 107 l 1
 231 17 179 -19 115 -19 c 0
 71 -19 40 8 40 46 c 0
 40 65 40 65 79 203 c 1
 129 376 l 1
 68 376 l 2
 56 376 53 377 53 384 c 1
 54 394 l 1
 56 407 l 2
 58 419 61 421 79 421 c 2
 143 421 l 1
 162 488 l 2
 180 550 186 557 222 557 c 0
 260 557 275 551 275 537 c 0
 275 531 275 531 268 510 c 1
 241 421 l 1
 324 421 l 2
 336 421 339 419 339 412 c 0
 339 409 339 405 338 402 c 2
 335 390 l 1
 333 377 331 376 317 376 c 2
 227 376 l 1
 166 155 l 2
 153 107 151 99 151 87 c 0
 151 70 161 59 178 59 c 0
 207 59 231 77 270 126 c 1
EndSplineSet
KernsSLIF: 59 31 0 0 39 4 0 0 303 3 0 0 304 3 0 0 111 3 0 0 295 7 0 0 101 7 0 0 58 39 0 0 292 11 0 0 241 6 0 0 287 9 0 0 288 9 0 0 97 9 0 0 83 10 0 0
EndChar
StartChar: u
Encoding: 117 117 86
Width: 535
Flags: W
HStem: -19 20 426 20<451 478.5> 431 20<178 218>
Fore
492 136 m 1x40
 517 115 l 1
 442 17 398 -19 351 -19 c 0
 319 -19 296 -1 296 24 c 0
 296 41 308 87 323 127 c 2
 371 251 l 1
 382 281 383 286 387 298 c 1
 261 123 l 1
 178 17 135 -19 88 -19 c 0
 62 -19 43 -3 43 17 c 0
 43 38 52 69 94 187 c 0
 134 300 141 322 141 337 c 0
 141 353 134 362 123 362 c 0
 112 362 105 356 75 321 c 2
 68 313 l 1
 44 331 l 1
 123 427 154 451 202 451 c 0xa0
 234 451 256 432 256 406 c 0
 256 377 246 345 198 222 c 0
 192 206 187 191 181 176 c 0
 174 159 168 141 161 123 c 0
 156 113 154 103 154 97 c 0
 154 89 160 83 167 83 c 0
 182 83 220 123 273 196 c 0
 312 249 395 375 414 409 c 0
 430 438 440 446 462 446 c 0
 495 446 517 436 517 419 c 0
 517 410 517 410 505 377 c 2
 424 159 l 2
 414 132 406 101 406 90 c 0
 406 78 414 68 424 68 c 0
 437 68 450 80 492 136 c 1x40
EndSplineSet
KernsSLIF: 39 2 0 0
EndChar
StartChar: v
Encoding: 118 118 87
Width: 572
Flags: W
HStem: -19 89<271 288> 367 84<152.5 153 153 172> 424 20<256 267.5> 430 20<329.5 338.5 475 510.5>
VStem: 35 52 131 84 483 69
Fore
260 367 m 1xce
 153 367 l 2
 126 367 118 366 108 361 c 0
 95 355 87 340 87 324 c 0
 87 314 88 313 101 306 c 0
 117 297 124 285 124 268 c 0
 124 242 105 222 80 222 c 0
 54 222 35 240 35 264 c 0
 35 303 61 362 99 413 c 0
 120 440 139 451 166 451 c 0x4e
 178 451 197 450 217 447 c 0
 236 445 250 444 262 444 c 0x2e
 273 444 288 445 305 447 c 0
 316 449 327 450 332 450 c 0
 345 450 354 447 354 443 c 0
 354 441 351 435 346 428 c 2
 311 380 l 2
 249 295 215 218 215 161 c 0
 215 109 249 70 293 70 c 0
 340 70 391 100 428 150 c 0
 461 194 483 250 483 292 c 0
 483 323 478 332 448 360 c 0
 440 368 435 380 435 392 c 0
 435 425 459 450 491 450 c 0x9e
 530 450 552 421 552 369 c 0
 552 297 519 208 460 121 c 0
 396 27 327 -19 249 -19 c 0
 179 -19 131 28 131 96 c 0
 131 160 169 239 260 367 c 1xce
EndSplineSet
KernsSLIF: 59 21 0 0 115 -11 0 0 46 -35 0 0 249 -7 0 0 305 -6 0 0 303 -6 0 0 304 -6 0 0 111 -6 0 0 108 -16 0 0 45 27 0 0 103 -14 0 0 296 -10 0 0 297 -10 0 0 295 -10 0 0 101 -10 0 0 44 -32 0 0 58 24 0 0 99 -10 0 0 291 -28 0 0 292 -26 0 0 289 -28 0 0 241 -30 0 0 287 -28 0 0 290 -28 0 0 288 -28 0 0 97 -28 0 0
EndChar
StartChar: w
Encoding: 119 119 88
Width: 774
Flags: W
HStem: -19 88<498.5 503> 367 84<149 152 152 170.5> 372 79 424 20
VStem: 28 52 124 84 371 59 526 45<344.5 351.5> 697 70
Fore
254 367 m 1xcf80
 152 367 l 2
 118 367 108 366 97 359 c 0
 87 353 80 339 80 326 c 0
 80 316 83 312 93 306 c 0
 112 294 117 286 117 270 c 0
 117 242 98 221 71 221 c 0
 45 221 28 240 28 269 c 0
 28 304 53 359 91 410 c 0
 114 441 133 451 165 451 c 0x4f80
 176 451 194 450 211 448 c 0
 232 445 249 444 259 444 c 0x1f80
 272 444 287 445 303 448 c 0
 313 450 323 451 328 451 c 0x4f80
 338 451 346 447 346 442 c 0
 346 438 344 434 336 424 c 2x1f80
 305 383 l 2
 245 304 208 219 208 162 c 0
 208 107 242 69 291 69 c 0
 322 69 342 78 375 104 c 1
 372 130 371 142 371 153 c 0
 371 227 409 349 450 405 c 0
 473 437 495 451 523 451 c 0xaf80
 554 451 571 427 571 382 c 0
 571 307 542 248 446 125 c 1
 465 85 484 69 513 69 c 0
 599 69 697 191 697 299 c 0
 697 323 691 334 659 364 c 0
 652 371 648 380 648 392 c 0
 648 425 674 451 707 451 c 0
 744 451 767 420 767 370 c 0
 767 287 719 173 645 83 c 0
 593 19 530 -19 476 -19 c 0
 431 -19 399 8 385 59 c 1
 315 -8 293 -19 238 -19 c 0
 171 -19 124 28 124 95 c 0
 124 150 140 191 195 280 c 0
 223 326 233 340 254 367 c 1xcf80
435 164 m 1x2f80
 489 235 526 306 526 342 c 0
 526 361 516 372 499 372 c 0
 481 372 469 361 456 337 c 0
 441 306 430 255 430 213 c 0
 430 196 431 186 435 164 c 1x2f80
EndSplineSet
KernsSLIF: 59 27 0 0 115 -5 0 0 46 -32 0 0 249 -1 0 0 305 -2 0 0 303 -3 0 0 304 -2 0 0 111 -2 0 0 108 -10 0 0 45 32 0 0 103 -8 0 0 296 -3 0 0 297 -3 0 0 295 -3 0 0 101 -3 0 0 44 -29 0 0 58 30 0 0 99 -4 0 0 291 -21 0 0 292 -19 0 0 289 -21 0 0 241 -23 0 0 287 -21 0 0 290 -21 0 0 288 -21 0 0 97 -21 0 0
EndChar
StartChar: x
Encoding: 120 120 89
Width: 479
Flags: W
HStem: -19 70 -18 20 381 70
Fore
444 128 m 1xa0
 471 112 l 1
 419 10 386 -19 321 -19 c 0x80
 270 -19 246 7 226 84 c 2
 209 151 l 1
 158 81 l 2
 109 12 70 -18 32 -18 c 0x40
 3 -18 -13 0 -13 31 c 0
 -13 58 4 78 25 78 c 0
 35 78 40 76 57 65 c 0
 61 62 67 60 70 60 c 0
 93 60 136 104 185 180 c 2
 195 196 l 1
 175 270 l 2
 157 338 138 372 118 372 c 0
 101 372 92 361 71 313 c 1
 42 323 l 1
 80 417 112 451 162 451 c 0
 209 451 237 419 258 339 c 2
 270 294 l 1
 300 334 l 1
 347 394 364 413 388 429 c 0
 412 444 431 451 452 451 c 0
 478 451 496 430 496 400 c 0
 496 366 480 343 456 343 c 0
 443 343 435 348 424 365 c 0
 416 379 413 381 406 381 c 0
 386 381 365 360 304 279 c 2
 281 248 l 1
 309 144 l 2
 327 76 343 51 368 51 c 0
 394 51 410 68 444 128 c 1xa0
EndSplineSet
KernsSLIF: 113 15 0 0 111 8 0 0 295 12 0 0 101 12 0 0 99 12 0 0 97 14 0 0
EndChar
StartChar: y
Encoding: 121 121 90
Width: 498
Flags: W
HStem: -270 78 361 89<130 142> 431 20<420.5 453.5>
Fore
45 273 m 1xc0
 15 282 l 1
 54 399 99 450 161 450 c 0x40
 210 450 249 407 270 330 c 0
 289 259 291 234 299 43 c 1
 356 139 l 2
 392 199 408 247 408 292 c 0
 408 315 404 333 394 359 c 0
 384 383 382 390 382 401 c 0
 382 430 405 451 436 451 c 0x20
 471 451 489 427 489 380 c 0
 489 317 442 205 358 69 c 0
 235 -129 97 -270 26 -270 c 0
 1 -270 -18 -248 -18 -220 c 0
 -18 -193 0 -174 25 -174 c 0
 39 -174 45 -176 71 -188 c 0
 77 -191 81 -192 84 -192 c 0
 109 -192 160 -144 182 -100 c 0
 194 -74 199 -35 199 51 c 0
 199 244 168 361 116 361 c 0
 86 361 72 343 45 273 c 1xc0
EndSplineSet
KernsSLIF: 59 26 0 0 115 -7 0 0 46 -29 0 0 249 -2 0 0 305 -3 0 0 303 -4 0 0 304 -3 0 0 111 -3 0 0 108 -11 0 0 45 26 0 0 103 -11 0 0 296 -4 0 0 297 -4 0 0 295 -4 0 0 101 -4 0 0 44 -26 0 0 58 29 0 0 99 -5 0 0 291 -22 0 0 292 -20 0 0 289 -22 0 0 241 -24 0 0 287 -22 0 0 290 -22 0 0 288 -22 0 0 97 -22 0 0
EndChar
StartChar: z
Encoding: 122 122 91
Width: 424
Flags: W
HStem: -5 20 -4 20 0 40
Fore
452 443 m 1x40
 453 424 l 1
 121 43 l 1
 160 41 204 40 232 40 c 0x20
 303 40 325 54 357 119 c 0
 360 124 362 126 366 126 c 0
 368 126 369 126 373 125 c 2
 380 123 l 2
 387 121 389 119 389 116 c 0
 389 113 389 113 383 99 c 1
 343 -5 l 1x80
 252 -1 200 0 134 0 c 0x20
 81 0 45 -1 -28 -4 c 1
 -29 17 l 1
 301 397 l 1
 278 399 266 399 239 399 c 0
 114 399 91 389 66 324 c 1
 38 332 l 1
 84 481 l 1
 109 481 l 1
 117 446 125 442 210 442 c 2
 452 443 l 1x40
EndSplineSet
EndChar
StartChar: braceleft
Encoding: 123 123 92
Width: 498
Flags: W
VStem: 119 134<-107.5 -81> 193 121<119.5 154.5>
Fore
86 236 m 1x40
 94 277 l 1
 173 306 207 325 234 358 c 0
 258 386 266 412 266 455 c 0
 266 459 266 473 265 488 c 0
 264 505 264 519 264 530 c 0
 264 591 288 639 337 676 c 0
 397 722 456 742 576 757 c 1
 567 716 l 1
 432 664 402 630 397 524 c 0
 391 362 354 320 171 256 c 1
 277 219 314 186 314 127 c 0x40
 314 104 307 78 287 28 c 0
 262 -36 253 -67 253 -95 c 0
 253 -136 275 -158 354 -195 c 1
 347 -236 l 1
 262 -225 231 -216 193 -193 c 0
 146 -165 119 -127 119 -88 c 0x80
 119 -65 128 -40 151 9 c 0
 182 73 193 105 193 134 c 0
 193 175 165 202 86 236 c 1x40
EndSplineSet
EndChar
StartChar: bar
Encoding: 124 124 93
Width: 498
Flags: MW
VStem: 223 51<-250 750>
Fore
223 750 m 1
 274 750 l 1
 274 -250 l 1
 223 -250 l 1
 223 750 l 1
EndSplineSet
EndChar
StartChar: braceright
Encoding: 125 125 94
Width: 498
Flags: W
VStem: 224 121<366.5 401.5> 285 134<602 628.5>
Fore
452 285 m 1x80
 444 244 l 1
 364 215 331 196 303 163 c 0
 279 135 271 109 271 66 c 0
 271 62 271 48 272 33 c 0
 273 16 273 2 273 -9 c 0
 273 -70 249 -118 201 -155 c 0
 141 -201 82 -221 -38 -236 c 1
 -29 -195 l 1
 106 -143 136 -109 141 -3 c 0
 147 158 184 201 367 265 c 1
 262 301 224 335 224 394 c 0x80
 224 417 231 443 251 492 c 0
 277 558 285 588 285 616 c 0
 285 657 262 679 184 716 c 1
 191 757 l 1
 275 746 307 737 345 714 c 0
 392 686 419 648 419 609 c 0x40
 419 586 410 561 387 512 c 0
 356 448 345 416 345 387 c 0
 345 346 374 319 452 285 c 1x80
EndSplineSet
EndChar
StartChar: asciitilde
Encoding: 126 126 95
Width: 996
Flags: W
HStem: 620 63<584.5 591> 661 61<403.5 407>
Fore
684 733 m 1x80
 702 722 l 1
 668 659 616 620 566 620 c 0x80
 548 620 535 623 481 641 c 0
 434 657 419 661 395 661 c 0
 365 661 349 652 319 618 c 0
 316 615 313 611 311 608 c 1
 293 619 l 1
 334 689 378 722 429 722 c 0x40
 449 722 466 718 515 701 c 0
 557 687 575 683 594 683 c 0
 627 683 657 699 684 733 c 1x80
EndSplineSet
EndChar
StartChar: exclamdown
Encoding: 161 161 96
Width: 258
Flags: W
Fore
64 257 m 1
 93 248 l 1
 47 -105 l 1
 34 -210 11 -247 -40 -247 c 0
 -79 -247 -110 -219 -110 -184 c 0
 -110 -163 -101 -133 -79 -81 c 2
 64 257 l 1
114 468 m 0
 155 468 180 442 180 400 c 0
 180 352 147 315 104 315 c 0
 63 315 37 343 37 384 c 0
 37 433 69 468 114 468 c 0
EndSplineSet
EndChar
StartChar: cent
Encoding: 162 162 97
Width: 498
Flags: MW
HStem: -16 20
VStem: 98 101<263.5 314.5>
Fore
198 3 m 2
 229 105 l 1
 184 115 165 125 143 148 c 0
 114 179 98 223 98 271 c 0
 98 402 225 538 358 551 c 1
 386 646 l 1
 393 668 393 668 404 668 c 2
 422 668 l 2
 427 668 431 665 431 662 c 0
 431 659 429 652 427 644 c 1
 400 551 l 1
 459 545 497 510 497 460 c 0
 497 433 479 415 450 415 c 0
 419 415 404 433 400 478 c 0
 397 497 396 501 387 509 c 1
 283 150 l 1
 323 153 340 162 377 197 c 0
 380 200 384 202 386 202 c 0
 389 202 392 200 395 198 c 1
 405 187 l 2
 408 184 409 182 409 180 c 0
 409 172 386 149 361 132 c 0
 329 111 306 103 268 102 c 1
 239 1 l 2
 235 -13 231 -16 222 -16 c 2
 203 -16 l 2
 198 -16 196 -13 196 -9 c 0
 196 -6 197 -1 198 3 c 2
247 167 m 1
 345 506 l 1
 296 487 277 472 250 435 c 0
 215 387 199 340 199 289 c 0
 199 238 213 202 247 167 c 1
EndSplineSet
EndChar
StartChar: sterling
Encoding: 163 163 98
Width: 498
Flags: W
HStem: -15 88 316 45<87 149 241 364> 610 45<347.5 371.5>
VStem: 395 90 428 42<97.5 110.5>
Fore
364 316 m 1xf0
 232 316 l 1
 205 230 191 187 167 126 c 1
 233 120 273 111 356 82 c 0
 371 76 386 73 396 73 c 0
 413 73 428 89 428 106 c 0
 428 115 424 123 418 129 c 0
 410 137 410 137 369 140 c 0
 333 143 309 164 309 193 c 0
 309 220 331 240 360 240 c 0
 417 240 470 179 470 114 c 0xe8
 470 43 413 -15 342 -15 c 0
 313 -15 293 -7 256 19 c 0
 192 64 185 68 154 81 c 1
 126 17 90 -15 44 -15 c 0
 21 -15 5 1 5 24 c 0
 5 45 16 69 34 88 c 0
 58 114 80 123 126 126 c 1
 142 174 144 192 149 316 c 1
 87 316 l 1
 87 361 l 1
 150 361 l 1
 156 450 162 480 180 522 c 0
 215 606 282 655 360 655 c 0
 432 655 485 608 485 546 c 0
 485 513 463 488 436 488 c 0
 410 488 388 511 388 539 c 0
 388 546 389 554 392 564 c 0
 394 572 395 578 395 583 c 0
 395 597 380 610 363 610 c 0
 332 610 310 584 288 524 c 0
 274 484 270 469 241 361 c 1
 364 361 l 1
 364 316 l 1xf0
EndSplineSet
EndChar
StartChar: fraction
Encoding: 164 8260 99
Width: 111
Flags: MW
HStem: -7 20
Fore
-198 25 m 2
 294 639 l 1
 297 644 300 648 304 651 c 1
 316 668 316 669 332 669 c 2
 362 669 l 2
 372 669 376 667 376 663 c 0
 376 659 376 659 362 639 c 1
 -133 21 l 2
 -153 -3 -153 -3 -155 -5 c 0
 -158 -7 -161 -7 -180 -7 c 2
 -199 -7 l 2
 -209 -7 -214 -5 -214 0 c 0
 -214 4 -211 8 -198 25 c 2
EndSplineSet
EndChar
StartChar: yen
Encoding: 165 165 100
Width: 498
Flags: W
HStem: -6 20 0 20 138 39<104 201 324 414> 246 39<134 230> 669 20
Fore
94 138 m 1xb8
 104 177 l 1
 210 177 l 1
 230 246 l 1
 123 246 l 1
 134 285 l 1
 242 285 l 1
 248 309 l 1
 166 576 l 2
 153 619 152 620 147 628 c 0
 144 633 141 636 137 638 c 2
 118 645 l 2
 115 647 112 652 112 657 c 0
 112 659 112 661 113 663 c 1
 116 675 l 2
 118 684 122 686 132 686 c 0
 136 686 144 685 152 684 c 0
 175 682 206 680 226 680 c 0
 246 680 294 683 310 685 c 0
 317 686 324 686 328 686 c 0
 333 686 337 684 336 680 c 2
 335 677 l 1
 334 664 l 1
 331 653 328 650 316 649 c 0
 288 645 269 633 269 619 c 0
 269 615 269 615 278 579 c 2
 331 367 l 1
 450 577 l 1
 468 610 470 613 470 621 c 0
 470 633 460 641 444 643 c 0
 425 645 421 646 421 653 c 0
 421 655 421 658 422 661 c 2
 425 672 l 1
 427 681 431 685 440 685 c 0
 442 685 446 685 449 684 c 0
 475 681 493 680 512 680 c 0
 529 680 542 681 576 684 c 0
 580 685 583 685 586 685 c 0
 591 685 594 683 594 679 c 0
 594 676 594 673 593 669 c 2
 588 651 l 1
 585 642 584 641 571 639 c 0
 546 635 532 622 505 577 c 1
 369 341 l 1
 355 286 l 1
 455 286 l 1
 444 246 l 1
 344 246 l 1
 324 177 l 1
 425 177 l 1
 414 138 l 1
 314 138 l 1
 302 93 l 2
 298 79 296 67 296 60 c 0
 296 44 307 37 344 30 c 0
 350 29 352 28 352 25 c 0
 352 23 352 23 349 16 c 1
 345 3 l 2
 343 -4 341 -6 335 -6 c 0xb8
 331 -6 321 -5 311 -4 c 0
 292 -1 278 0 254 0 c 0x40
 224 0 180 -2 164 -4 c 0
 155 -5 147 -6 141 -6 c 0
 135 -6 131 -3 131 3 c 2
 131 4 l 1
 132 16 l 1
 133 22 133 23 134 24 c 0
 135 26 136 27 139 28 c 2
 157 34 l 2
 174 40 181 52 191 95 c 2
 201 138 l 1
 94 138 l 1xb8
EndSplineSet
EndChar
StartChar: florin
Encoding: 166 402 101
Width: 498
Flags: MW
HStem: -255 60 396 46<159 226 335 408> 725 44<442.5 455>
Fore
226 396 m 1
 150 396 l 2
 141 396 138 397 138 402 c 2
 138 409 l 1
 142 429 l 1
 143 438 148 442 159 442 c 2
 233 442 l 1
 265 586 283 635 320 685 c 0
 362 742 411 769 474 769 c 0
 530 769 573 740 573 702 c 0
 573 678 553 658 529 658 c 0
 510 658 500 667 486 694 c 0
 474 716 463 725 447 725 c 0
 413 725 393 702 376 641 c 0
 366 608 366 608 335 442 c 1
 420 442 l 2
 426 442 431 437 430 431 c 1
 427 408 l 2
 426 400 419 396 408 396 c 2
 325 396 l 1
 262 92 l 1
 240 -12 211 -100 182 -151 c 0
 142 -219 96 -255 47 -255 c 0
 15 -255 -5 -237 -5 -207 c 0
 -5 -181 14 -158 36 -158 c 0
 49 -158 61 -165 75 -183 c 0
 82 -191 87 -195 92 -195 c 0
 96 -195 101 -190 106 -181 c 0
 116 -160 118 -154 141 -36 c 2
 226 396 l 1
EndSplineSet
EndChar
StartChar: section
Encoding: 167 167 102
Width: 498
Flags: MW
HStem: -255 58<242 251.5> 646 58<253.5 276>
VStem: 52 62<455 498> 157 62 303 62 407 62<-26 17>
Fore
133 -109 m 0
 154 -109 170 -116 184 -131 c 0
 187 -135 196 -148 210 -172 c 0
 221 -189 234 -197 250 -197 c 0
 283 -197 303 -172 303 -132 c 0
 303 -83 291 -53 241 21 c 0
 103 225 52 340 52 447 c 0
 52 588 169 704 311 704 c 0
 386 704 438 671 438 624 c 0
 438 594 415 571 384 571 c 0
 360 571 346 580 316 616 c 0
 298 638 285 646 267 646 c 0
 240 646 219 624 219 596 c 0
 219 555 253 481 323 369 c 0
 398 248 416 218 435 169 c 0
 459 110 469 64 469 11 c 0
 469 -63 441 -129 388 -181 c 0
 330 -238 290 -255 213 -255 c 0
 124 -255 69 -222 69 -169 c 0
 69 -134 96 -109 133 -109 c 0
349 -162 m 1
 391 -112 407 -69 407 -8 c 0
 407 42 395 84 365 139 c 0
 359 150 331 194 281 272 c 0
 197 404 157 488 157 534 c 0
 157 552 161 576 168 605 c 1
 126 550 114 521 114 475 c 0
 114 435 124 396 148 342 c 0
 174 284 174 284 268 135 c 0
 339 23 365 -32 365 -70 c 0
 365 -93 360 -125 349 -162 c 1
EndSplineSet
EndChar
StartChar: currency
Encoding: 168 164 103
Width: 498
Flags: MW
HStem: 106 100<249 299.5> 479 100<253.5 301.5>
VStem: 38 100<317.5 363> 410 100<317 366.5>
Fore
9 536 m 1
 73 601 l 1
 138 538 l 1
 193 568 230 579 277 579 c 0
 326 579 361 568 409 538 c 1
 474 601 l 1
 538 536 l 1
 471 472 l 1
 499 427 510 391 510 342 c 0
 510 292 500 259 471 214 c 1
 538 149 l 1
 474 86 l 1
 410 148 l 1
 358 116 325 106 274 106 c 0
 224 106 191 116 138 148 c 1
 73 86 l 1
 9 149 l 1
 75 214 l 1
 48 262 38 295 38 340 c 0
 38 386 47 419 75 472 c 1
 9 536 l 1
274 479 m 0
 200 479 138 418 138 345 c 0
 138 267 198 206 273 206 c 0
 349 206 410 267 410 342 c 0
 410 418 349 479 274 479 c 0
EndSplineSet
EndChar
StartChar: quotesingle
Encoding: 169 39 104
Width: 258
Flags: MW
HStem: 684 20<243 265.5>
Fore
277 606 m 2
 203 442 l 1
 198 432 195 430 184 430 c 2
 169 430 l 2
 160 430 157 432 157 438 c 0
 157 439 157 439 159 455 c 1
 174 606 l 1
 178 648 182 661 194 675 c 0
 209 693 232 704 254 704 c 0
 277 704 296 687 296 666 c 0
 296 652 292 640 277 606 c 2
EndSplineSet
EndChar
StartChar: quotedblleft
Encoding: 170 8220 105
Width: 424
Flags: MW
HStem: 675 20<320 320 528 528>
VStem: 111 79 319 79
Fore
528 695 m 1
 522 662 l 1
 434 638 398 610 398 566 c 0
 398 547 405 538 430 527 c 0
 466 512 476 501 476 474 c 0
 476 440 449 416 411 416 c 0
 355 416 319 460 319 527 c 0
 319 579 345 619 402 652 c 0
 437 673 470 684 528 695 c 1
320 695 m 1
 314 662 l 1
 227 639 190 610 190 566 c 0
 190 547 198 537 222 527 c 0
 258 512 268 501 268 474 c 0
 268 440 241 416 203 416 c 0
 147 416 111 460 111 528 c 0
 111 579 137 619 194 652 c 0
 228 673 261 684 320 695 c 1
EndSplineSet
KernsSLIF: 89 30 1 0 87 41 1 0 86 44 1 0 84 28 1 0 261 -39 1 0 256 -39 1 0 257 -39 1 0 225 -64 1 0 65 -39 1 0
EndChar
StartChar: guillemotleft
Encoding: 171 171 106
Width: 424
Flags: W
Fore
383 410 m 1
 407 395 l 1
 283 234 l 1
 380 73 l 1
 357 58 l 1
 183 227 l 1
 180 242 l 1
 383 410 l 1
228 410 m 1
 253 395 l 1
 128 234 l 1
 225 73 l 1
 202 58 l 1
 29 227 l 1
 26 242 l 1
 228 410 l 1
EndSplineSet
EndChar
StartChar: guilsinglleft
Encoding: 172 8249 107
Width: 258
Flags: W
Fore
222 410 m 1
 247 395 l 1
 123 234 l 1
 219 73 l 1
 196 58 l 1
 23 227 l 1
 20 242 l 1
 222 410 l 1
EndSplineSet
EndChar
StartChar: guilsinglright
Encoding: 173 8250 108
Width: 258
Flags: W
Fore
23 58 m 1
 -2 73 l 1
 123 234 l 1
 26 395 l 1
 49 410 l 1
 222 241 l 1
 225 226 l 1
 23 58 l 1
EndSplineSet
KernsSLIF: 89 -105 1 0 87 -84 1 0 86 -91 1 0 84 -104 1 0 261 -35 1 0 256 -35 1 0 257 -35 1 0 225 -34 1 0 65 -35 1 0
EndChar
StartChar: fi
Encoding: 174 64257 109
Width: 556
Flags: W
HStem: -255 60<7 8.5> -19 20 375 45<77 137 260 334 334 355> 431 20<474 497.5> 724 44<386 396>
VStem: 316 112 420 113
Fore
252 375 m 1xfa
 188 92 l 1
 137 -128 55 -255 -38 -255 c 0
 -69 -255 -88 -238 -88 -210 c 0
 -88 -182 -68 -158 -45 -158 c 0
 -32 -158 -21 -165 -7 -183 c 0
 0 -191 5 -195 9 -195 c 0
 23 -195 47 -126 63 -36 c 2
 137 375 l 1
 65 375 l 2
 53 375 51 376 51 381 c 0
 51 382 51 384 52 386 c 1
 54 394 l 1
 58 408 l 2
 61 420 61 420 77 420 c 2
 145 420 l 1
 160 510 l 2
 173 588 209 658 260 708 c 0
 302 748 355 768 417 768 c 0
 496 768 561 727 561 677 c 0
 561 654 540 635 515 635 c 0
 492 635 477 645 455 674 c 0
 429 709 407 724 385 724 c 0
 360 724 333 706 316 678 c 0
 307 663 299 635 292 598 c 1
 260 420 l 1
 334 420 l 2
 376 420 393 424 434 441 c 0
 450 447 467 451 481 451 c 0
 514 451 533 431 533 398 c 0xfa
 533 365 529 351 479 223 c 0
 470 202 470 202 463 183 c 0
 455 165 446 141 435 114 c 0
 430 103 428 93 428 86 c 0
 428 74 438 64 449 64 c 0
 466 64 488 83 540 140 c 1
 565 120 l 1
 494 28 430 -19 377 -19 c 0
 341 -19 316 3 316 33 c 0xfc
 316 56 319 66 376 213 c 0
 411 306 420 332 420 345 c 0
 420 371 413 375 363 375 c 2
 252 375 l 1xfa
EndSplineSet
Ligature: 0 0 'liga' f i
EndChar
StartChar: fl
Encoding: 175 64258 110
Width: 556
Flags: MW
HStem: -255 60<4 5.5> -17 20 375 45<74 134 258 336> 724 44<355.5 371.5>
VStem: 310 109
Fore
143 420 m 1
 148 449 l 2
 164 542 165 546 181 587 c 0
 229 708 298 768 389 768 c 0
 425 768 446 761 469 742 c 1
 531 751 544 753 607 771 c 1
 617 761 l 1
 544 544 419 119 419 88 c 0
 419 74 425 66 436 66 c 0
 454 66 462 73 519 137 c 1
 543 117 l 1
 457 15 415 -17 369 -17 c 0
 337 -17 310 10 310 43 c 0
 310 68 323 123 352 218 c 2
 448 534 l 2
 468 600 479 645 479 661 c 0
 479 665 479 669 478 675 c 1
 467 662 457 657 442 657 c 0
 423 657 412 666 400 693 c 0
 390 713 378 724 365 724 c 0
 346 724 321 700 311 674 c 0
 289 613 281 579 258 420 c 1
 347 420 l 2
 358 420 360 419 360 415 c 0
 360 413 360 413 358 406 c 1
 355 389 l 1
 352 375 352 375 336 375 c 2
 249 375 l 1
 185 92 l 1
 134 -128 52 -255 -41 -255 c 0
 -72 -255 -91 -238 -91 -210 c 0
 -91 -182 -71 -158 -48 -158 c 0
 -35 -158 -24 -165 -10 -183 c 0
 -3 -191 2 -195 6 -195 c 0
 20 -195 44 -126 60 -36 c 2
 134 375 l 1
 62 375 l 2
 50 375 48 376 48 381 c 0
 48 382 48 384 49 386 c 1
 51 394 l 1
 55 408 l 2
 58 420 58 420 74 420 c 2
 143 420 l 1
EndSplineSet
Ligature: 0 0 'liga' f l
EndChar
StartChar: endash
Encoding: 177 8211 111
Width: 498
Flags: MW
HStem: 199 72<69 450>
Fore
69 271 m 2
 452 271 l 2
 467 271 471 269 470 260 c 2
 469 252 l 1
 469 214 l 2
 469 199 469 199 450 199 c 2
 67 199 l 2
 52 199 52 199 52 217 c 2
 52 255 l 2
 52 270 53 271 69 271 c 2
EndSplineSet
EndChar
StartChar: dagger
Encoding: 178 8224 112
Width: 498
Flags: MW
HStem: 684 20<251 287>
Fore
251 -231 m 1
 243 -82 l 1
 231 109 229 138 222 181 c 0
 216 212 210 234 188 291 c 1
 241 359 251 383 256 441 c 1
 171 402 132 389 104 389 c 0
 69 389 43 418 43 457 c 0
 43 495 72 525 109 525 c 0
 139 525 178 511 255 473 c 1
 212 587 204 613 204 640 c 0
 204 675 233 704 269 704 c 0
 305 704 334 675 334 641 c 0
 334 613 326 587 283 473 c 1
 357 511 395 525 424 525 c 0
 460 525 488 495 488 457 c 0
 488 418 463 389 429 389 c 0
 401 389 362 402 279 441 c 1
 283 409 285 395 291 378 c 0
 295 368 293 373 298 363 c 0
 309 345 320 327 331 311 c 2
 343 292 l 1
 340 280 336 268 332 255 c 0
 307 178 303 146 289 -85 c 1
 281 -231 l 1
 280 -245 275 -253 266 -253 c 0
 256 -253 252 -246 251 -231 c 1
EndSplineSet
EndChar
StartChar: daggerdbl
Encoding: 179 8225 113
Width: 498
Flags: MW
HStem: -10 20 684 20<245 281>
Fore
186 292 m 1
 235 360 245 383 250 441 c 1
 165 402 128 389 100 389 c 0
 66 389 41 418 41 457 c 0
 41 495 70 525 106 525 c 0
 136 525 174 511 249 473 c 1
 206 587 198 613 198 640 c 0
 198 676 227 704 263 704 c 0
 299 704 328 676 328 641 c 0
 328 613 320 587 277 473 c 1
 352 511 391 525 421 525 c 0
 457 525 486 495 486 457 c 0
 486 418 461 389 427 389 c 0
 399 389 363 402 277 441 c 1
 284 380 285 378 326 317 c 0
 331 308 336 300 341 292 c 1
 338 285 335 278 332 270 c 0
 296 191 287 160 277 74 c 1
 361 113 399 126 427 126 c 0
 461 126 486 97 486 58 c 0
 486 20 457 -10 422 -10 c 0
 392 -10 355 3 279 41 c 1
 323 -74 330 -98 330 -125 c 0
 330 -161 301 -189 264 -189 c 0
 227 -189 198 -161 198 -125 c 0
 198 -98 206 -72 249 41 c 1
 173 3 135 -10 106 -10 c 0
 70 -10 41 20 41 58 c 0
 41 97 66 126 100 126 c 0
 129 126 166 113 250 74 c 1
 240 162 229 200 186 292 c 1
EndSplineSet
EndChar
StartChar: periodcentered
Encoding: 180 183 114
Width: 111
Flags: W
Fore
84 399 m 0
 121 399 148 368 148 327 c 0
 148 285 118 252 79 252 c 0
 44 252 18 283 18 324 c 0
 18 365 48 399 84 399 c 0
EndSplineSet
EndChar
StartChar: paragraph
Encoding: 182 182 115
Width: 498
Flags: MW
HStem: 704 41<420 488 420 420>
VStem: 295 39<-159 279 279 279> 381 39<-159 704>
Fore
488 745 m 1
 488 704 l 1
 420 704 l 1
 420 -159 l 1
 381 -159 l 1
 381 704 l 1
 334 704 l 1
 334 -159 l 1
 295 -159 l 1
 295 279 l 1
 217 295 180 311 144 345 c 0
 100 387 75 444 75 507 c 0
 75 584 113 655 175 693 c 0
 230 728 302 745 396 745 c 2
 488 745 l 1
EndSplineSet
EndChar
StartChar: bullet
Encoding: 183 8226 116
Width: 498
Flags: W
Fore
252 540 m 0
 350 540 431 458 431 359 c 0
 431 258 350 177 250 177 c 0
 149 177 68 258 68 360 c 0
 68 460 150 540 252 540 c 0
EndSplineSet
EndChar
StartChar: quotesinglbase
Encoding: 184 8218 117
Width: 258
Flags: MW
VStem: 70 79
Fore
-60 -147 m 1
 -54 -114 l 1
 34 -90 70 -62 70 -18 c 0
 70 1 62 11 38 21 c 0
 2 36 -8 48 -8 74 c 0
 -8 108 19 132 58 132 c 0
 113 132 149 88 149 21 c 0
 149 -31 123 -71 66 -104 c 0
 31 -125 -2 -136 -60 -147 c 1
EndSplineSet
EndChar
StartChar: quotedblbase
Encoding: 185 8222 118
Width: 424
Flags: MW
VStem: 50 79<-18.5 -5.5> 274 79<-18.5 -5.5>
Fore
-80 -144 m 1
 -74 -111 l 1
 14 -88 50 -60 50 -15 c 0
 50 4 43 13 18 24 c 0
 -18 39 -28 50 -28 77 c 0
 -28 111 -1 135 38 135 c 0
 93 135 129 91 129 24 c 0
 129 -61 55 -120 -80 -144 c 1
144 -144 m 1
 150 -111 l 1
 238 -87 274 -59 274 -15 c 0
 274 4 266 13 242 24 c 0
 205 39 196 50 196 77 c 0
 196 111 223 135 262 135 c 0
 317 135 353 91 353 24 c 0
 353 -61 279 -120 144 -144 c 1
EndSplineSet
KernsSLIF: 89 -60 1 0 87 -78 1 0 86 -79 1 0 84 -55 1 0 225 42 1 0 65 23 1 0
EndChar
StartChar: quotedblright
Encoding: 186 8221 119
Width: 424
Flags: MW
HStem: 675 20<170 217 394 441>
VStem: 202 79 426 79
Fore
72 416 m 1
 78 450 l 1
 168 475 202 501 202 545 c 0
 202 565 194 574 170 584 c 0
 134 599 124 611 124 637 c 0
 124 671 151 695 189 695 c 0
 245 695 281 651 281 584 c 0
 281 532 255 493 198 459 c 0
 164 438 131 427 72 416 c 1
296 416 m 1
 302 450 l 1
 393 475 426 501 426 545 c 0
 426 564 418 574 394 584 c 0
 358 599 348 610 348 637 c 0
 348 671 375 695 413 695 c 0
 469 695 505 651 505 584 c 0
 505 532 479 493 423 459 c 0
 388 438 355 427 296 416 c 1
EndSplineSet
KernsSLIF: 89 25 1 0 87 41 1 0 86 39 1 0 84 33 1 0 261 -44 1 0 256 -44 1 0 257 -44 1 0 225 -68 1 0 65 -44 1 0
EndChar
StartChar: guillemotright
Encoding: 187 187 120
Width: 424
Flags: W
Fore
36 58 m 1
 11 73 l 1
 135 234 l 1
 39 395 l 1
 62 410 l 1
 235 241 l 1
 238 226 l 1
 36 58 l 1
190 58 m 1
 165 73 l 1
 290 234 l 1
 193 395 l 1
 216 410 l 1
 390 241 l 1
 392 226 l 1
 190 58 l 1
EndSplineSet
KernsSLIF: 89 -104 1 0 87 -84 1 0 86 -90 1 0 84 -103 1 0 261 -34 1 0 256 -34 1 0 257 -34 1 0 225 -33 1 0 65 -34 1 0
EndChar
StartChar: ellipsis
Encoding: 188 8230 121
Width: 830
Flags: MW
HStem: -15 20
Fore
102 117 m 0
 133 117 157 89 157 53 c 0
 157 15 131 -15 98 -15 c 0
 67 -15 43 13 43 51 c 0
 43 87 69 117 102 117 c 0
373 117 m 0
 404 117 428 89 428 53 c 0
 428 16 402 -15 369 -15 c 0
 338 -15 314 13 314 51 c 0
 314 87 340 117 373 117 c 0
643 117 m 0
 674 117 698 89 698 53 c 0
 698 15 672 -15 639 -15 c 0
 608 -15 584 13 584 51 c 0
 584 87 610 117 643 117 c 0
EndSplineSet
Ligature: 0 1 'liga' period period period
EndChar
StartChar: perthousand
Encoding: 189 8240 122
Width: 1143
Flags: W
HStem: -13 41<530.5 558 884.5 912> 288 41<596.5 627 950.5 981> 313 41<209.5 237> 623 41<275 306>
VStem: 100 75<413 436.5> 343 76<534.5 566> 421 75<85 108.5> 664 76<202 233.5> 775 75<85 108.5> 1018 76<202 233.5>
Fore
612 329 m 0xdfc0
 686 329 740 272 740 195 c 0
 740 85 650 -13 548 -13 c 0
 475 -13 421 45 421 125 c 0
 421 230 513 329 612 329 c 0xdfc0
612 288 m 0
 581 288 556 268 533 224 c 0
 513 186 496 125 496 92 c 0
 496 52 515 28 546 28 c 0
 570 28 591 41 608 65 c 0
 642 113 664 177 664 227 c 0
 664 262 642 288 612 288 c 0
966 329 m 0
 1040 329 1094 272 1094 195 c 0
 1094 85 1004 -13 902 -13 c 0
 828 -13 775 45 775 125 c 0
 775 231 867 329 966 329 c 0
966 288 m 0
 935 288 910 268 887 224 c 0
 867 187 850 125 850 92 c 0
 850 52 869 28 900 28 c 0
 924 28 945 41 962 65 c 0
 996 113 1018 177 1018 227 c 0
 1018 262 996 288 966 288 c 0
641 681 m 1
 695 681 l 1
 212 -28 l 1
 158 -28 l 1
 641 681 l 1
291 664 m 0
 365 664 419 606 419 526 c 0
 419 414 329 313 228 313 c 0x3fc0
 154 313 100 372 100 454 c 0
 100 507 127 569 167 610 c 0
 203 646 245 664 291 664 c 0
290 623 m 0
 260 623 235 601 212 557 c 0
 192 518 175 454 175 419 c 0
 175 378 194 354 225 354 c 0
 249 354 270 367 287 392 c 0
 321 441 343 509 343 560 c 0
 343 598 322 623 290 623 c 0
EndSplineSet
EndChar
StartChar: questiondown
Encoding: 191 191 123
Width: 387
Flags: MW
HStem: -247 70 172 85
VStem: -80 52<-133.5 -112> 185 51<117.5 133>
Fore
135 172 m 0
 128 172 121 171 109 170 c 0
 99 169 90 168 82 168 c 0
 57 168 39 186 39 212 c 0
 39 239 61 257 94 257 c 0
 164 257 236 174 236 92 c 0
 236 62 225 32 208 13 c 0
 179 -17 170 -21 56 -58 c 0
 -5 -77 -28 -96 -28 -128 c 0
 -28 -155 -7 -177 19 -177 c 0
 29 -177 35 -175 58 -165 c 0
 80 -156 97 -151 111 -151 c 0
 137 -151 156 -169 156 -195 c 0
 156 -226 129 -247 87 -247 c 0
 -10 -247 -80 -180 -80 -87 c 0
 -80 -39 -59 2 -21 27 c 0
 -2 39 29 51 89 68 c 0
 163 89 185 103 185 132 c 0
 185 156 165 172 135 172 c 0
192 468 m 0
 231 468 255 444 255 404 c 0
 255 354 220 315 176 315 c 0
 137 315 112 341 112 380 c 0
 112 430 146 468 192 468 c 0
EndSplineSet
EndChar
StartChar: grave
Encoding: 193 96 124
Width: 498
Flags: W
Fore
380 536 m 2
 367 524 l 2
 364 521 359 519 355 519 c 0
 352 519 349 521 343 526 c 0
 311 558 259 604 213 643 c 0
 179 671 163 693 163 712 c 0
 163 732 184 747 211 747 c 0
 241 747 261 733 284 694 c 0
 323 627 328 620 373 557 c 0
 383 542 383 542 383 540 c 0
 383 539 382 537 380 536 c 2
EndSplineSet
EndChar
StartChar: acute
Encoding: 194 180 125
Width: 498
Flags: W
Fore
295 524 m 2
 282 536 l 2
 280 537 279 539 279 541 c 0
 279 542 279 543 289 557 c 0
 333 618 337 624 378 694 c 0
 401 733 421 747 451 747 c 0
 478 747 499 732 499 712 c 0
 499 693 483 671 449 643 c 0
 396 598 339 547 319 526 c 0
 314 521 310 519 307 519 c 0
 303 519 298 521 295 524 c 2
EndSplineSet
EndChar
StartChar: circumflex
Encoding: 195 710 126
Width: 498
Flags: W
Fore
425 530 m 1
 393 593 l 1
 374 632 371 637 367 654 c 0
 366 658 364 669 361 684 c 1
 340 658 325 640 315 629 c 1
 234 550 l 2
 226 543 219 535 212 528 c 0
 206 521 203 519 199 519 c 0
 198 519 196 520 194 521 c 2
 182 531 l 2
 180 533 179 535 179 537 c 0
 179 539 180 542 182 545 c 2
 187 552 l 1
 288 712 l 2
 321 764 339 779 368 779 c 0
 406 779 429 749 437 687 c 1
 458 538 l 1
 458 536 l 2
 458 532 456 529 452 527 c 2
 442 521 l 2
 439 520 437 519 435 519 c 0
 432 519 428 523 425 530 c 1
EndSplineSet
EndChar
StartChar: tilde
Encoding: 196 732 127
Width: 498
Flags: W
HStem: 534 84<390.5 391.5> 616 84<278.5 283> 673 20<464.5 467.5>
Fore
205 544 m 1x40
 190 550 l 2
 188 551 186 554 186 559 c 0
 186 570 201 609 218 641 c 0
 236 677 266 700 291 700 c 0x40
 316 700 334 685 365 642 c 0
 376 625 386 618 395 618 c 0
 414 618 431 636 456 684 c 0
 460 690 463 693 466 693 c 0
 469 693 472 692 474 691 c 2
 486 686 l 2
 489 685 490 682 490 679 c 0
 490 666 472 622 455 593 c 0
 433 557 404 534 379 534 c 0xa0
 356 534 339 548 315 586 c 0
 301 608 290 616 276 616 c 0
 258 616 240 598 228 568 c 0
 220 548 217 545 205 544 c 1x40
EndSplineSet
EndChar
StartChar: macron
Encoding: 197 175 128
Width: 498
Flags: MW
HStem: 587 57<220 450>
Fore
205 587 m 1
 220 644 l 1
 466 644 l 1
 450 587 l 1
 205 587 l 1
EndSplineSet
EndChar
StartChar: breve
Encoding: 198 728 129
Width: 498
Flags: MW
HStem: 525 45<338 377>
Fore
249 658 m 1
 292 658 l 1
 294 599 317 570 359 570 c 0
 401 570 431 596 459 658 c 1
 501 658 l 1
 489 621 481 605 465 584 c 0
 436 546 398 525 356 525 c 0
 308 525 271 553 256 601 c 0
 250 618 249 628 249 658 c 1
EndSplineSet
EndChar
StartChar: dotaccent
Encoding: 199 729 130
Width: 498
Flags: W
Fore
355 685 m 0
 387 685 410 658 410 620 c 0
 410 581 386 553 352 553 c 0
 319 553 296 580 296 618 c 0
 296 656 322 685 355 685 c 0
EndSplineSet
EndChar
StartChar: dieresis
Encoding: 200 168 131
Width: 498
Flags: W
Fore
247 685 m 0
 279 685 302 658 302 620 c 0
 302 581 278 553 244 553 c 0
 211 553 188 580 188 618 c 0
 188 656 214 685 247 685 c 0
438 685 m 0
 470 685 493 658 493 620 c 0
 493 581 469 553 435 553 c 0
 402 553 379 580 379 618 c 0
 379 656 405 685 438 685 c 0
EndSplineSet
EndChar
StartChar: ring
Encoding: 202 730 132
Width: 498
Flags: MW
HStem: 507 47<337 369> 669 47<338 369.5>
VStem: 249 47<596.5 628> 411 47<595.5 627.5>
Fore
353 716 m 0
 411 716 458 669 458 612 c 0
 458 553 411 507 353 507 c 0
 295 507 249 554 249 613 c 0
 249 669 297 716 353 716 c 0
354 669 m 0
 322 669 296 643 296 613 c 0
 296 580 321 554 353 554 c 0
 385 554 411 579 411 612 c 0
 411 643 385 669 354 669 c 0
EndSplineSet
EndChar
StartChar: cedilla
Encoding: 203 184 133
Width: 498
Flags: MW
HStem: -181 38<200 218>
VStem: 251 63<-117.5 -97.5>
Fore
245 24 m 1
 269 20 l 1
 237 -32 l 1
 286 -35 314 -57 314 -93 c 0
 314 -142 255 -181 181 -181 c 0
 145 -181 126 -171 126 -152 c 0
 126 -137 137 -126 150 -126 c 0
 157 -126 157 -126 178 -138 c 0
 185 -141 194 -143 206 -143 c 0
 231 -143 251 -127 251 -108 c 0
 251 -87 234 -77 201 -77 c 0
 196 -77 193 -77 189 -78 c 2
 176 -79 l 2
 169 -79 161 -76 161 -73 c 0
 161 -70 164 -66 173 -55 c 1
 245 24 l 1
EndSplineSet
EndChar
StartChar: hungarumlaut
Encoding: 205 733 134
Width: 498
Flags: W
Fore
210 524 m 2
 197 536 l 2
 195 537 194 539 194 541 c 0
 194 542 194 543 204 557 c 0
 248 618 252 624 293 694 c 0
 316 733 336 747 366 747 c 0
 393 747 414 732 414 712 c 0
 414 693 398 671 364 643 c 0
 311 598 254 547 234 526 c 0
 229 521 225 519 222 519 c 0
 218 519 213 521 210 524 c 2
383 524 m 2
 370 536 l 2
 368 537 367 539 367 540 c 0
 367 542 367 542 420 618 c 1
 466 694 l 2
 489 733 509 747 539 747 c 0
 566 747 587 732 587 712 c 0
 587 693 571 671 537 643 c 0
 484 598 442 560 407 526 c 0
 401 521 398 519 395 519 c 0
 391 519 386 521 383 524 c 2
EndSplineSet
EndChar
StartChar: ogonek
Encoding: 206 731 135
Width: 498
Flags: MW
HStem: -182 52<297 322.5>
VStem: 201 57<-93 -65.5>
Fore
276 27 m 1
 337 27 l 1
 273 -26 258 -46 258 -78 c 0
 258 -108 281 -130 313 -130 c 0
 332 -130 338 -128 369 -111 c 0
 372 -109 375 -108 378 -108 c 0
 390 -108 402 -121 402 -133 c 0
 402 -157 356 -182 312 -182 c 0
 251 -182 201 -138 201 -84 c 0
 201 -47 210 -33 276 27 c 1
EndSplineSet
EndChar
StartChar: caron
Encoding: 207 711 136
Width: 498
Flags: W
Fore
291 768 m 1
 323 705 l 1
 343 664 344 660 348 643 c 0
 349 640 352 628 355 613 c 1
 382 647 391 659 401 668 c 2
 482 748 l 1
 490 754 497 761 504 770 c 0
 510 777 513 779 516 779 c 0
 518 779 520 778 521 777 c 2
 534 766 l 2
 536 765 537 762 537 760 c 0
 537 759 536 756 534 753 c 2
 428 586 l 2
 395 534 377 519 348 519 c 0
 310 519 287 549 279 610 c 1
 258 760 l 1
 258 766 259 767 264 771 c 1
 274 776 l 2
 277 778 279 779 280 779 c 0
 284 779 288 775 291 768 c 1
EndSplineSet
EndChar
StartChar: emdash
Encoding: 208 8212 137
Width: 830
Flags: MW
HStem: 199 72<67 787>
Fore
67 271 m 2
 789 271 l 2
 804 271 807 269 807 261 c 2
 807 252 l 1
 806 214 l 1
 806 199 806 199 787 199 c 2
 65 199 l 2
 50 199 50 199 50 217 c 2
 50 255 l 2
 50 270 51 271 67 271 c 2
EndSplineSet
EndChar
StartChar: AE
Encoding: 225 198 138
Width: 977
Flags: W
HStem: -5 20 0 38 346 46<598 676 676 686> 347 45<358 474> 650 39<700 723 723 776.5> 674 20<388 393 948 953.5>
Fore
598 392 m 1x98
 676 392 l 2x10
 743 392 767 404 798 456 c 0
 802 462 805 464 813 464 c 2
 830 464 l 2
 839 464 842 462 842 457 c 0
 842 454 841 452 837 442 c 0
 823 404 798 325 785 273 c 1
 783 260 780 258 765 258 c 2
 748 258 l 2
 738 258 735 260 735 265 c 0
 735 267 736 270 737 273 c 0
 745 299 748 310 748 320 c 0
 748 341 736 346 686 346 c 2
 587 346 l 1
 529 140 l 1
 514 81 514 81 514 73 c 0
 514 46 550 38 675 38 c 0x60
 777 38 823 60 855 123 c 0
 871 155 872 157 878 157 c 0
 879 157 879 157 885 154 c 2
 901 146 l 2
 909 142 911 140 911 136 c 0
 911 134 911 134 906 122 c 2
 871 42 l 2
 867 33 863 23 859 12 c 0
 853 -3 851 -5 842 -5 c 0x80
 839 -5 829 -5 821 -4 c 0
 801 -3 603 0 564 0 c 0x60
 548 0 528 0 500 -1 c 2
 433 -1 l 1
 360 -3 l 2
 338 -4 318 -5 314 -5 c 0
 308 -5 304 -2 305 3 c 2
 306 8 l 1
 308 20 l 1
 309 28 309 28 310 29 c 0
 312 33 315 33 337 35 c 0
 381 39 388 47 404 106 c 1
 474 347 l 1
 325 347 l 1
 153 149 l 2
 114 104 93 72 93 56 c 0
 93 41 106 35 140 34 c 0
 164 34 167 33 167 27 c 0
 167 25 167 25 165 19 c 2
 161 8 l 2
 157 -2 154 -5 146 -5 c 0
 134 -5 134 -5 84 -2 c 0
 68 -1 55 0 47 0 c 0
 40 0 37 0 -31 -4 c 0
 -42 -5 -50 -5 -55 -5 c 0
 -61 -5 -63 -3 -63 3 c 0
 -63 5 -63 6 -62 12 c 1
 -59 24 l 1
 -58 31 -54 34 -41 36 c 0
 -5 39 2 45 61 119 c 1
 433 566 l 1
 455 594 465 612 465 627 c 0
 465 638 458 647 446 650 c 0x98
 436 653 434 653 396 654 c 0
 376 655 375 655 375 661 c 0
 375 664 375 666 376 672 c 2
 378 682 l 2
 380 692 383 694 393 694 c 2
 434 693 l 2
 454 692 669 689 729 689 c 0
 824 689 900 691 932 693 c 0
 939 694 946 694 950 694 c 0x04
 957 694 961 692 961 687 c 0
 961 686 961 684 960 681 c 2
 958 673 l 1
 927 559 l 1
 923 541 923 541 922 540 c 0
 920 539 919 539 912 539 c 2
 895 539 l 2
 885 539 883 540 883 548 c 2
 883 550 l 1
 884 562 884 574 884 580 c 0
 884 604 878 622 868 633 c 0
 856 646 838 650 789 650 c 2
 723 650 l 2
 677 650 671 643 651 574 c 2
 598 392 l 1x98
485 392 m 1x20
 556 647 l 1
 358 392 l 1
 485 392 l 1x20
EndSplineSet
EndChar
StartChar: ordfeminine
Encoding: 227 170 139
Width: 424
Flags: MW
HStem: 426 20<409.5 412.5>
VStem: 100 83<407 445.5>
Fore
416 444 m 2
 426 434 l 2
 428 433 429 431 429 429 c 0
 429 424 417 406 401 386 c 0
 370 349 340 328 316 328 c 0
 293 328 276 345 276 369 c 0
 276 382 278 394 286 427 c 1
 217 347 193 328 156 328 c 0
 121 328 100 355 100 400 c 0
 100 491 186 600 293 648 c 0
 320 659 341 663 383 663 c 1
 389 670 l 2
 393 675 396 677 401 676 c 2
 405 675 l 1
 437 673 l 2
 442 673 445 669 445 664 c 0
 445 660 443 654 437 642 c 0
 409 585 356 433 356 411 c 0
 356 405 359 401 364 401 c 0
 369 401 377 407 387 421 c 0
 403 442 407 446 412 446 c 0
 413 446 414 446 416 444 c 2
323 614 m 0
 267 618 183 499 183 416 c 0
 183 398 190 386 201 386 c 0
 222 386 259 431 302 512 c 0
 333 568 340 585 340 599 c 0
 340 608 334 613 323 614 c 0
EndSplineSet
EndChar
StartChar: Lslash
Encoding: 232 321 140
Width: 627
Flags: W
HStem: -5 20 0 38 669 20 674 20<168.5 179 464 470.5>
Fore
160 341 m 1x80
 223 557 l 1
 238 604 238 605 238 618 c 0
 238 642 222 651 178 654 c 0
 155 655 153 656 153 662 c 1
 154 670 l 1
 156 680 l 1
 159 692 162 694 175 694 c 0x10
 183 694 204 693 231 692 c 0
 266 690 298 689 329 689 c 0x20
 367 689 381 690 444 693 c 0
 450 694 461 694 467 694 c 0x10
 474 694 477 690 476 681 c 1
 474 669 l 1
 473 656 471 655 444 655 c 0
 388 652 376 640 350 557 c 1
 298 382 l 1
 463 432 l 1
 448 372 l 1
 280 321 l 1
 231 161 l 1
 213 96 213 96 213 85 c 0
 213 51 245 38 328 38 c 0x60
 402 38 459 47 493 65 c 0
 522 80 526 84 572 154 c 0
 574 157 577 159 579 159 c 0
 581 159 585 158 589 156 c 2
 603 150 l 2
 610 147 612 145 612 142 c 0
 612 139 610 134 608 130 c 2
 558 14 l 2
 551 -2 548 -5 537 -5 c 0x80
 521 -5 362 -2 256 0 c 1x60
 187 -1 l 1
 114 -1 l 1
 37 -3 l 2
 22 -4 8 -5 4 -5 c 0
 -3 -5 -5 -3 -5 3 c 2
 -5 8 l 1
 -3 20 l 1
 -2 28 -2 29 1 31 c 0
 2 32 4 33 6 33 c 2
 23 35 l 2
 66 43 76 56 99 132 c 1
 142 280 l 1
 41 250 l 1
 59 311 l 1
 160 341 l 1x80
EndSplineSet
EndChar
StartChar: Oslash
Encoding: 233 216 141
Width: 830
Flags: MW
HStem: -20 44<367 434.5> 667 44<461 528.5>
VStem: 76 131<252 334> 691 131<363.5 439.5>
Fore
92 -9 m 1
 161 65 l 1
 104 125 76 204 76 300 c 0
 76 536 255 711 496 711 c 0
 576 711 645 691 699 653 c 1
 771 731 l 2
 777 738 779 739 781 739 c 0
 784 739 784 739 792 732 c 2
 807 718 l 2
 814 712 815 710 815 708 c 0
 815 706 815 706 802 691 c 2
 738 621 l 1
 796 558 822 488 822 391 c 0
 822 151 645 -20 398 -20 c 0
 318 -20 252 -2 199 34 c 1
 127 -43 l 2
 118 -53 115 -56 112 -56 c 0
 110 -56 110 -56 103 -49 c 2
 89 -36 l 2
 81 -28 81 -27 81 -25 c 0
 81 -23 81 -23 92 -9 c 1
227 138 m 1
 648 597 l 1
 612 644 562 667 495 667 c 0
 427 667 367 640 319 587 c 0
 248 508 207 394 207 274 c 0
 207 223 213 181 227 138 c 1
674 551 m 1
 252 93 l 1
 289 46 335 24 399 24 c 0
 470 24 536 55 582 109 c 0
 650 189 691 306 691 421 c 0
 691 467 685 512 674 551 c 1
EndSplineSet
KernsSLIF: 65 -38 0 0
EndChar
StartChar: OE
Encoding: 234 338 142
Width: 1033
Flags: W
HStem: -20 45<351.5 420> -5 20 -2 41<691 768.5> 346 46<692 772 772 782> 665 45<499.5 528> 670 20<839 923.5> 674 20
VStem: 69 145<199.5 339.5>
Fore
692 392 m 1x13
 772 392 l 2
 839 392 864 405 894 456 c 0
 898 463 901 464 909 464 c 2
 926 464 l 2
 934 464 937 462 937 457 c 0
 937 454 936 452 932 442 c 0
 915 396 893 322 881 273 c 0
 878 259 876 258 861 258 c 2
 844 258 l 2
 834 258 831 260 831 265 c 0
 831 267 832 270 833 273 c 0
 842 304 844 310 844 320 c 0
 844 341 832 346 782 346 c 2
 680 346 l 1
 622 140 l 1
 607 81 607 81 607 72 c 0
 607 44 627 39 750 39 c 0x31
 864 39 912 59 949 123 c 0
 968 156 969 157 974 157 c 0
 976 157 976 157 982 154 c 2
 998 146 l 2
 1006 142 1008 140 1008 136 c 0
 1008 133 1008 133 1003 122 c 2
 968 42 l 2
 964 33 960 23 956 12 c 0
 950 -3 948 -5 939 -5 c 0x41
 936 -5 927 -5 918 -4 c 0
 894 -3 798 -2 739 -2 c 0x31
 643 -2 614 -4 492 -16 c 0
 462 -19 434 -20 406 -20 c 0
 196 -20 69 95 69 283 c 0
 69 397 114 503 196 581 c 0
 280 660 405 710 519 710 c 0x89
 537 710 565 708 602 704 c 0
 693 694 780 690 898 690 c 0x05
 949 690 1005 691 1029 693 c 0
 1036 694 1043 694 1047 694 c 0
 1054 694 1058 692 1058 687 c 0
 1058 685 1058 685 1055 674 c 2
 1024 559 l 1
 1020 542 1020 542 1019 541 c 0
 1018 540 1016 539 1009 539 c 2
 993 539 l 2
 982 539 980 541 980 548 c 2
 980 551 l 1
 981 563 981 575 981 581 c 0
 981 637 962 651 886 651 c 2
 816 651 l 2
 770 651 764 644 744 575 c 1
 692 392 l 1x13
511 130 m 1x89
 621 519 l 1
 634 563 638 583 638 598 c 0
 638 640 602 665 540 665 c 0
 459 665 384 637 332 587 c 0
 258 515 214 401 214 278 c 0
 214 121 290 25 413 25 c 0
 443 25 464 32 477 46 c 0
 490 60 495 72 511 130 c 1x89
EndSplineSet
EndChar
StartChar: ordmasculine
Encoding: 235 186 143
Width: 424
Flags: MW
HStem: 328 30<224 247> 645 30<289.5 312>
VStem: 116 83<425 444.5> 338 83<559 580>
Fore
299 675 m 0
 369 675 421 618 421 542 c 0
 421 431 334 328 238 328 c 0
 167 328 116 385 116 465 c 0
 116 519 146 586 187 627 c 1
 219 657 259 675 299 675 c 0
299 645 m 0
 280 645 264 631 246 599 c 0
 222 555 199 469 199 420 c 0
 199 379 212 358 236 358 c 0
 258 358 275 375 296 417 c 0
 321 469 338 536 338 582 c 0
 338 624 325 645 299 645 c 0
EndSplineSet
EndChar
StartChar: ae
Encoding: 241 230 144
Width: 701
Flags: W
HStem: -19 64<472.5 492> -19 89 412 39<562.5 577>
VStem: 32 102<101 139.5> 306 109<115 131.5> 608 92<331.5 376>
Fore
615 104 m 1xbc
 636 86 l 1
 576 8 530 -19 454 -19 c 0xbc
 408 -19 367 -4 343 23 c 0
 321 47 306 89 306 126 c 0
 306 137 307 146 310 164 c 1
 286 129 271 110 253 87 c 0
 202 22 142 -19 97 -19 c 0x5c
 57 -19 32 13 32 63 c 0
 32 216 232 427 377 427 c 0
 387 427 397 426 419 422 c 1
 449 464 452 466 477 466 c 0
 500 466 513 462 513 456 c 0
 513 454 512 448 510 445 c 1
 505 433 l 1
 527 446 546 451 579 451 c 0
 654 451 700 416 700 360 c 0
 700 270 600 212 421 197 c 1
 416 172 415 161 415 145 c 0
 415 85 448 45 497 45 c 0
 536 45 571 62 615 104 c 1xbc
426 237 m 1
 431 237 431 237 437 238 c 0
 531 243 608 300 608 363 c 0
 608 389 588 412 566 412 c 0
 521 412 464 340 426 237 c 1
334 363 m 0x5c
 299 365 246 331 202 280 c 1
 161 230 134 167 134 117 c 0
 134 85 145 70 167 70 c 0
 200 70 231 100 288 187 c 1
 335 256 370 321 370 337 c 0
 370 352 356 362 334 363 c 0x5c
EndSplineSet
KernsSLIF: 121 18 0 0 119 13 0 0 118 9 0 0
EndChar
StartChar: dotlessi
Encoding: 245 305 145
Width: 313
Flags: W
HStem: -19 20 431 20<191 228.5>
VStem: 50 109 151 113
Fore
261 140 m 1xe0
 286 120 l 1
 218 28 158 -19 108 -19 c 0
 74 -19 50 3 50 33 c 0xe0
 50 56 58 82 108 213 c 0
 138 291 151 332 151 342 c 0
 151 353 143 361 133 361 c 0
 118 361 101 349 66 312 c 0
 64 310 62 309 60 309 c 0
 59 309 58 310 54 313 c 2
 45 322 l 2
 42 325 41 327 41 329 c 0
 41 331 44 336 53 347 c 0
 105 408 170 451 212 451 c 0
 245 451 264 431 264 398 c 0xd0
 264 363 244 304 182 156 c 0
 167 120 159 96 159 87 c 0
 159 74 168 64 179 64 c 0
 195 64 210 78 261 140 c 1xe0
EndSplineSet
EndChar
StartChar: lslash
Encoding: 248 322 146
Width: 295
Flags: MW
HStem: -17 20
VStem: 37 109
Fore
129 385 m 1
 175 534 l 2
 195 600 206 646 206 664 c 0
 206 692 185 701 123 702 c 1
 129 733 l 1
 257 750 263 751 333 772 c 1
 344 761 l 1
 331 723 283 570 246 447 c 2
 240 426 l 1
 336 463 l 1
 321 408 l 1
 223 371 l 1
 178 225 146 105 146 87 c 0
 146 74 152 66 163 66 c 0
 181 66 184 68 246 137 c 1
 270 117 l 1
 183 15 142 -17 96 -17 c 0
 64 -17 37 10 37 43 c 0
 37 69 49 119 79 218 c 1
 112 329 l 1
 30 298 l 1
 46 353 l 1
 129 385 l 1
EndSplineSet
EndChar
StartChar: oslash
Encoding: 249 248 147
Width: 480
Flags: MW
HStem: -19 38<183 212.5> 414 37<270.5 298>
Fore
443 455 m 2
 401 401 l 1
 433 361 446 322 446 268 c 0
 446 112 332 -19 195 -19 c 0
 156 -19 131 -10 102 12 c 1
 91 -3 l 2
 82 -14 81 -15 71 -15 c 2
 46 -15 l 2
 39 -15 34 -13 34 -9 c 0
 34 -7 37 -2 41 3 c 2
 72 44 l 1
 48 80 37 115 37 164 c 0
 37 320 152 451 288 451 c 0
 320 451 340 445 368 429 c 1
 393 462 l 2
 400 471 400 471 411 471 c 2
 439 471 l 2
 447 471 449 470 449 467 c 0
 449 464 448 462 443 455 c 2
337 318 m 1
 147 70 l 1
 153 37 170 19 196 19 c 0
 229 19 262 48 285 99 c 0
 314 164 333 244 337 318 c 1
149 144 m 1
 330 380 l 1
 321 403 308 414 288 414 c 0
 253 414 220 381 194 316 c 1
 170 261 157 207 149 144 c 1
EndSplineSet
EndChar
StartChar: oe
Encoding: 250 339 148
Width: 719
Flags: W
HStem: -19 38<178.5 209> -19 64<492.5 512> 412 39<568.5 595.5>
VStem: 37 108<109.5 133> 629 91<341 366>
Fore
635 104 m 1x78
 656 86 l 1
 597 8 550 -19 474 -19 c 0x58
 415 -19 374 1 348 43 c 1
 299 0 252 -19 194 -19 c 0xb8
 101 -19 37 55 37 164 c 0
 37 320 152 451 288 451 c 0
 347 451 394 422 423 367 c 1
 477 424 534 451 603 451 c 0
 674 451 720 415 720 359 c 0
 720 310 685 266 621 236 c 0
 580 217 519 204 441 197 c 1
 436 173 435 162 435 145 c 0
 435 85 468 45 517 45 c 0
 556 45 591 62 635 104 c 1x78
288 414 m 0xb8
 259 415 230 391 205 343 c 0
 173 280 145 168 145 98 c 0
 145 45 162 19 195 19 c 0
 223 19 250 39 273 77 c 0
 307 133 337 253 337 330 c 0
 337 384 320 412 288 414 c 0xb8
447 237 m 1
 480 239 506 244 529 252 c 0
 586 273 629 320 629 362 c 0
 629 370 626 380 618 396 c 0
 612 406 602 412 589 412 c 0
 542 412 485 342 447 237 c 1
EndSplineSet
EndChar
StartChar: germandbls
Encoding: 251 223 149
Width: 535
Flags: W
HStem: -270 63 -19 47 727 48<377 433.5>
VStem: 332 91 425 93 507 90<628 657>
Fore
21 -105 m 1xf4
 145 450 l 2
 189 646 308 775 446 775 c 0
 537 775 597 727 597 654 c 0xe4
 597 602 573 565 497 503 c 0
 439 454 423 434 423 407 c 0
 423 391 431 373 466 309 c 0
 508 229 518 204 518 169 c 0
 518 77 403 -19 293 -19 c 0
 255 -19 232 -1 232 27 c 0
 232 54 254 78 278 78 c 0
 294 78 304 71 321 50 c 0
 334 33 343 28 355 28 c 0
 391 28 425 66 425 105 c 0xf8
 425 136 413 168 378 235 c 0
 340 308 332 330 332 360 c 0
 332 396 351 424 400 462 c 0
 481 523 507 563 507 627 c 0
 507 687 465 727 402 727 c 0
 333 727 297 677 266 539 c 2
 187 188 l 1
 158 62 104 -86 55 -166 c 0
 10 -241 -27 -270 -79 -270 c 0
 -113 -270 -137 -253 -137 -228 c 0
 -137 -203 -114 -180 -87 -180 c 0
 -75 -180 -70 -182 -46 -201 c 0
 -40 -206 -37 -207 -33 -207 c 0
 -25 -207 -18 -201 -11 -189 c 0
 -3 -175 17 -124 21 -105 c 1xf4
EndSplineSet
EndChar
StartChar: Adieresis
Encoding: 256 196 150
Width: 738
Flags: W
HStem: -6 20 -5 20 0 20
Fore
469 268 m 1x80
 232 268 l 1
 187 185 l 2
 152 119 136 83 136 67 c 0
 136 61 139 54 143 50 c 0
 154 39 154 39 203 33 c 0
 209 32 212 30 212 26 c 0
 212 24 211 19 210 17 c 1
 207 7 l 2
 204 -2 202 -5 195 -5 c 2
 136 -3 l 2
 114 -1 98 0 95 0 c 0
 92 0 76 -1 54 -3 c 2
 -7 -5 l 2
 -17 -5 -21 -2 -21 3 c 0
 -21 5 -21 9 -20 12 c 1
 -18 22 l 1
 -15 33 -14 34 4 34 c 0
 36 36 45 46 100 140 c 2
 431 705 l 1
 465 708 504 713 521 718 c 1
 606 113 l 1
 615 42 621 35 668 33 c 0
 691 32 692 32 692 27 c 0
 692 26 692 22 691 19 c 1
 689 8 l 2
 687 -2 684 -5 674 -5 c 0x40
 660 -5 613 -4 596 -3 c 0
 568 -1 548 0 542 0 c 0x20
 536 0 517 -1 493 -3 c 0
 475 -4 429 -6 413 -6 c 0
 404 -6 399 -4 399 1 c 0
 399 2 399 2 401 9 c 1
 404 22 l 1
 405 28 406 31 409 33 c 2
 416 35 l 1
 437 35 l 2
 471 36 488 50 488 78 c 0
 488 89 488 89 482 146 c 2
 469 268 l 1x80
462 317 m 1
 427 618 l 1
 259 318 l 1
 462 317 l 1
410 890 m 0
 443 890 466 863 466 826 c 0
 466 787 441 758 408 758 c 0
 375 758 352 786 352 824 c 0
 352 862 377 890 410 890 c 0
601 890 m 0
 634 890 657 863 657 826 c 0
 657 787 632 758 599 758 c 0
 566 758 543 786 543 824 c 0
 543 862 568 890 601 890 c 0
EndSplineSet
KernsSLIF: 121 -45 0 0 119 -39 0 0 118 -42 0 0 117 -4 0 0 116 -3 0 0 39 -71 0 0 186 -56 0 0 113 -3 0 0 46 -4 0 0 111 -20 0 0 45 2 0 0 172 -26 0 0 171 -29 0 0 103 -28 0 0 100 -6 0 0 44 -4 0 0 99 -13 0 0 98 -2 0 0 97 1 0 0 89 -49 0 0 87 -100 0 0 86 -102 0 0 85 -56 0 0 84 -47 0 0 81 -53 0 0 79 -53 0 0 71 -61 0 0 67 -57 0 0
EndChar
StartChar: Aacute
Encoding: 257 193 151
Width: 738
Flags: W
HStem: -6 20 -5 20 0 20
Fore
469 268 m 1x80
 232 268 l 1
 187 185 l 2
 152 119 136 83 136 67 c 0
 136 61 139 54 143 50 c 0
 154 39 154 39 203 33 c 0
 209 32 212 30 212 26 c 0
 212 24 211 19 210 17 c 1
 207 7 l 2
 204 -2 202 -5 195 -5 c 2
 136 -3 l 2
 114 -1 98 0 95 0 c 0
 92 0 76 -1 54 -3 c 2
 -7 -5 l 2
 -17 -5 -21 -2 -21 3 c 0
 -21 5 -21 9 -20 12 c 1
 -18 22 l 1
 -15 33 -14 34 4 34 c 0
 36 36 45 46 100 140 c 2
 431 705 l 1
 465 708 504 713 521 718 c 1
 606 113 l 1
 615 42 621 35 668 33 c 0
 691 32 692 32 692 27 c 0
 692 26 692 22 691 19 c 1
 689 8 l 2
 687 -2 684 -5 674 -5 c 0x40
 660 -5 613 -4 596 -3 c 0
 568 -1 548 0 542 0 c 0x20
 536 0 517 -1 493 -3 c 0
 475 -4 429 -6 413 -6 c 0
 404 -6 399 -4 399 1 c 0
 399 2 399 2 401 9 c 1
 404 22 l 1
 405 28 406 31 409 33 c 2
 416 35 l 1
 437 35 l 2
 471 36 488 50 488 78 c 0
 488 89 488 89 482 146 c 2
 469 268 l 1x80
462 317 m 1
 427 618 l 1
 259 318 l 1
 462 317 l 1
434 799 m 2
 527 902 l 2
 554 932 574 943 600 943 c 0
 628 943 648 927 648 904 c 0
 648 884 621 858 564 824 c 2
 466 766 l 2
 452 758 452 758 449 758 c 0
 446 758 443 760 441 763 c 2
 429 780 l 2
 427 782 426 785 426 787 c 0
 426 790 426 790 434 799 c 2
EndSplineSet
KernsSLIF: 121 -45 0 0 119 -39 0 0 118 -42 0 0 117 -4 0 0 116 -3 0 0 39 -71 0 0 113 -3 0 0 46 -4 0 0 111 -20 0 0 45 2 0 0 172 -26 0 0 171 -29 0 0 103 -28 0 0 101 -11 0 0 100 -6 0 0 44 -4 0 0 99 -13 0 0 98 -2 0 0 97 1 0 0 89 -49 0 0 87 -100 0 0 86 -102 0 0 85 -56 0 0 84 -47 0 0 81 -53 0 0 79 -53 0 0 71 -61 0 0 67 -57 0 0
EndChar
StartChar: Agrave
Encoding: 258 192 152
Width: 738
Flags: W
HStem: -6 20 -5 20 0 20
Fore
469 268 m 1x80
 232 268 l 1
 187 185 l 2
 152 119 136 83 136 67 c 0
 136 61 139 54 143 50 c 0
 154 39 154 39 203 33 c 0
 209 32 212 30 212 26 c 0
 212 24 211 19 210 17 c 1
 207 7 l 2
 204 -2 202 -5 195 -5 c 2
 136 -3 l 2
 114 -1 98 0 95 0 c 0
 92 0 76 -1 54 -3 c 2
 -7 -5 l 2
 -17 -5 -21 -2 -21 3 c 0
 -21 5 -21 9 -20 12 c 1
 -18 22 l 1
 -15 33 -14 34 4 34 c 0
 36 36 45 46 100 140 c 2
 431 705 l 1
 465 708 504 713 521 718 c 1
 606 113 l 1
 615 42 621 35 668 33 c 0
 691 32 692 32 692 27 c 0
 692 26 692 22 691 19 c 1
 689 8 l 2
 687 -2 684 -5 674 -5 c 0x40
 660 -5 613 -4 596 -3 c 0
 568 -1 548 0 542 0 c 0x20
 536 0 517 -1 493 -3 c 0
 475 -4 429 -6 413 -6 c 0
 404 -6 399 -4 399 1 c 0
 399 2 399 2 401 9 c 1
 404 22 l 1
 405 28 406 31 409 33 c 2
 416 35 l 1
 437 35 l 2
 471 36 488 50 488 78 c 0
 488 89 488 89 482 146 c 2
 469 268 l 1x80
462 317 m 1
 427 618 l 1
 259 318 l 1
 462 317 l 1
545 766 m 2
 447 824 l 2
 392 857 364 884 364 904 c 0
 364 927 384 943 412 943 c 0
 438 943 458 932 485 902 c 2
 578 799 l 2
 586 790 586 790 586 787 c 0
 586 785 585 783 583 780 c 2
 571 763 l 1
 568 760 565 758 563 758 c 0
 560 758 559 758 545 766 c 2
EndSplineSet
KernsSLIF: 46 -4 0 0 44 -4 0 0 89 -49 0 0 87 -100 0 0 86 -102 0 0 85 -56 0 0 84 -47 0 0 81 -53 0 0 79 -53 0 0 71 -61 0 0 67 -57 0 0
EndChar
StartChar: Acircumflex
Encoding: 259 194 153
Width: 738
Flags: W
HStem: -6 20 -5 20 0 20
Fore
469 268 m 1x80
 232 268 l 1
 187 185 l 2
 152 119 136 83 136 67 c 0
 136 61 139 54 143 50 c 0
 154 39 154 39 203 33 c 0
 209 32 212 30 212 26 c 0
 212 24 211 19 210 17 c 1
 207 7 l 2
 204 -2 202 -5 195 -5 c 2
 136 -3 l 2
 114 -1 98 0 95 0 c 0
 92 0 76 -1 54 -3 c 2
 -7 -5 l 2
 -17 -5 -21 -2 -21 3 c 0
 -21 5 -21 9 -20 12 c 1
 -18 22 l 1
 -15 33 -14 34 4 34 c 0
 36 36 45 46 100 140 c 2
 431 705 l 1
 465 708 504 713 521 718 c 1
 606 113 l 1
 615 42 621 35 668 33 c 0
 691 32 692 32 692 27 c 0
 692 26 692 22 691 19 c 1
 689 8 l 2
 687 -2 684 -5 674 -5 c 0x40
 660 -5 613 -4 596 -3 c 0
 568 -1 548 0 542 0 c 0x20
 536 0 517 -1 493 -3 c 0
 475 -4 429 -6 413 -6 c 0
 404 -6 399 -4 399 1 c 0
 399 2 399 2 401 9 c 1
 404 22 l 1
 405 28 406 31 409 33 c 2
 416 35 l 1
 437 35 l 2
 471 36 488 50 488 78 c 0
 488 89 488 89 482 146 c 2
 469 268 l 1x80
462 317 m 1
 427 618 l 1
 259 318 l 1
 462 317 l 1
637 763 m 1
 571 815 l 2
 533 846 531 849 520 874 c 1
 506 856 501 851 474 831 c 2
 381 761 l 2
 378 759 376 758 375 758 c 0
 373 758 371 759 367 764 c 2
 351 780 l 2
 348 783 346 786 346 788 c 0
 346 791 346 791 383 827 c 0
 391 835 403 848 417 865 c 2
 465 924 l 2
 483 946 503 956 527 956 c 0
 554 956 571 945 589 917 c 2
 630 852 l 2
 642 833 652 821 674 794 c 0
 677 791 678 789 678 787 c 0
 678 786 676 782 674 779 c 2
 657 760 l 2
 655 758 653 756 651 756 c 0
 647 756 645 758 637 763 c 1
EndSplineSet
KernsSLIF: 46 -4 0 0 44 -4 0 0 89 -49 0 0 87 -100 0 0 86 -102 0 0 85 -56 0 0 84 -47 0 0 81 -53 0 0 79 -53 0 0 71 -61 0 0 67 -57 0 0
EndChar
StartChar: Atilde
Encoding: 260 195 154
Width: 738
Flags: W
HStem: -6 20 -5 20 0 20 758 82 839 82<462.5 467>
Fore
469 268 m 1x80
 232 268 l 1
 187 185 l 2
 152 119 136 83 136 67 c 0
 136 61 139 54 143 50 c 0
 154 39 154 39 203 33 c 0
 209 32 212 30 212 26 c 0
 212 24 211 19 210 17 c 1
 207 7 l 2
 204 -2 202 -5 195 -5 c 2
 136 -3 l 2
 114 -1 98 0 95 0 c 0
 92 0 76 -1 54 -3 c 2
 -7 -5 l 2
 -17 -5 -21 -2 -21 3 c 0
 -21 5 -21 9 -20 12 c 1
 -18 22 l 1
 -15 33 -14 34 4 34 c 0
 36 36 45 46 100 140 c 2
 431 705 l 1
 465 708 504 713 521 718 c 1
 606 113 l 1
 615 42 621 35 668 33 c 0
 691 32 692 32 692 27 c 0
 692 26 692 22 691 19 c 1
 689 8 l 2
 687 -2 684 -5 674 -5 c 0x48
 660 -5 613 -4 596 -3 c 0
 568 -1 548 0 542 0 c 0x20
 536 0 517 -1 493 -3 c 0
 475 -4 429 -6 413 -6 c 0
 404 -6 399 -4 399 1 c 0
 399 2 399 2 401 9 c 1
 404 22 l 1
 405 28 406 31 409 33 c 2
 416 35 l 1
 437 35 l 2
 471 36 488 50 488 78 c 0
 488 89 488 89 482 146 c 2
 469 268 l 1x80
462 317 m 1
 427 618 l 1
 259 318 l 1
 462 317 l 1
350 767 m 2
 337 778 l 2
 335 780 333 782 333 784 c 0
 333 788 344 807 359 828 c 0
 400 886 446 921 479 921 c 0x08
 503 921 509 917 563 859 c 0
 574 847 585 840 595 840 c 0
 605 840 621 847 634 858 c 0
 637 860 647 872 666 892 c 0
 681 909 686 914 690 914 c 0
 692 914 695 913 696 912 c 2
 704 906 l 2
 713 900 714 899 714 896 c 0
 714 888 690 848 670 823 c 0
 636 782 601 758 573 758 c 0x10
 555 758 541 767 511 801 c 0
 480 834 474 839 460 839 c 0
 438 839 406 818 382 786 c 0
 366 765 363 763 358 763 c 0
 356 763 354 764 350 767 c 2
EndSplineSet
KernsSLIF: 46 -5 0 0 44 -4 0 0 89 -49 0 0 87 -99 0 0 86 -101 0 0 85 -56 0 0 84 -47 0 0 81 -50 0 0 79 -50 0 0 71 -63 0 0 67 -58 0 0
EndChar
StartChar: Aring
Encoding: 261 197 155
Width: 738
Flags: W
HStem: -6 20 -5 20 0 20 744 52<511.5 538.5> 893 52<512 538.5>
VStem: 425 52<831.5 858> 574 52<831 857.5>
Fore
469 268 m 1x86
 232 268 l 1
 187 185 l 2
 152 119 136 83 136 67 c 0
 136 61 139 54 143 50 c 0
 154 39 154 39 203 33 c 0
 209 32 212 30 212 26 c 0
 212 24 211 19 210 17 c 1
 207 7 l 2
 204 -2 202 -5 195 -5 c 2
 136 -3 l 2
 114 -1 98 0 95 0 c 0
 92 0 76 -1 54 -3 c 2
 -7 -5 l 2
 -17 -5 -21 -2 -21 3 c 0
 -21 5 -21 9 -20 12 c 1
 -18 22 l 1
 -15 33 -14 34 4 34 c 0
 36 36 45 46 100 140 c 2
 431 705 l 1
 465 708 504 713 521 718 c 1
 606 113 l 1
 615 42 621 35 668 33 c 0
 691 32 692 32 692 27 c 0
 692 26 692 22 691 19 c 1
 689 8 l 2
 687 -2 684 -5 674 -5 c 0x5e
 660 -5 613 -4 596 -3 c 0
 568 -1 548 0 542 0 c 0x26
 536 0 517 -1 493 -3 c 0
 475 -4 429 -6 413 -6 c 0
 404 -6 399 -4 399 1 c 0
 399 2 399 2 401 9 c 1
 404 22 l 1
 405 28 406 31 409 33 c 2
 416 35 l 1
 437 35 l 2
 471 36 488 50 488 78 c 0
 488 89 488 89 482 146 c 2
 469 268 l 1x86
462 317 m 1
 427 618 l 1
 259 318 l 1
 462 317 l 1
526 945 m 0
 581 945 626 900 626 844 c 0
 626 789 581 744 525 744 c 0
 469 744 425 789 425 846 c 0
 425 900 471 945 526 945 c 0
525 893 m 0
 499 893 477 871 477 845 c 0
 477 818 498 796 525 796 c 0
 552 796 574 818 574 844 c 0
 574 871 552 893 525 893 c 0
EndSplineSet
KernsSLIF: 121 -46 0 0 119 -39 0 0 118 -42 0 0 117 -4 0 0 116 -3 0 0 39 -71 0 0 186 -56 0 0 113 -3 0 0 46 -4 0 0 111 -20 0 0 45 2 0 0 172 -26 0 0 171 -29 0 0 103 -28 0 0 101 -11 0 0 100 -6 0 0 44 -4 0 0 99 -13 0 0 98 -2 0 0 97 1 0 0 89 -49 0 0 87 -100 0 0 86 -102 0 0 85 -56 0 0 84 -47 0 0 81 -53 0 0 79 -53 0 0 71 -65 0 0 67 -57 0 0
EndChar
StartChar: Ccedilla
Encoding: 262 199 156
Width: 738
Flags: W
HStem: -230 51<308 324.5> -20 44<406 446.5> -18 20 667 44<434 539>
VStem: 82 131<221.5 383> 356 83<-152.5 -131.5>
Fore
371 -18 m 1x2c
 354 -56 l 1
 413 -66 439 -88 439 -128 c 0
 439 -181 368 -230 291 -230 c 0
 237 -230 209 -215 209 -187 c 0
 209 -169 223 -155 241 -155 c 0
 252 -155 252 -155 286 -173 c 0
 294 -177 303 -179 313 -179 c 0
 336 -179 356 -162 356 -143 c 0
 356 -120 333 -106 288 -104 c 0
 283 -103 275 -100 275 -97 c 0
 275 -94 280 -88 306 -56 c 0
 311 -50 320 -37 323 -32 c 1
 332 -12 l 1
 172 26 82 140 82 303 c 0
 82 532 267 711 504 711 c 0
 606 711 689 681 764 617 c 1
 719 499 l 2
 714 485 714 485 711 485 c 2
 708 485 l 1
 701 487 l 1
 686 489 l 2
 676 491 673 493 673 498 c 0
 673 501 674 504 675 509 c 0
 680 522 684 545 684 558 c 0
 684 591 669 614 635 635 c 0
 604 655 560 667 518 667 c 0
 350 667 213 491 213 275 c 0
 213 113 285 24 414 24 c 0
 485 24 539 49 582 103 c 0
 592 116 592 116 624 166 c 0
 625 169 628 171 629 171 c 0
 630 171 630 171 637 169 c 2
 657 162 l 2
 662 160 663 159 663 157 c 0
 663 155 663 155 660 147 c 2
 617 27 l 1
 534 -8 480 -20 413 -20 c 0xdc
 399 -20 389 -20 371 -18 c 1x2c
EndSplineSet
KernsSLIF: 65 -5 0 0
EndChar
StartChar: Eth
Encoding: 263 208 157
Width: 774
Flags: W
HStem: -5 43<313.5 411.5> 0 20 342 50<102 168 302 434> 666 43<408.5 504>
VStem: 653 131<313 504>
Fore
183 392 m 1x68
 220 515 l 1
 235 568 244 606 244 624 c 0
 244 647 229 659 200 659 c 0
 193 659 185 658 177 657 c 0
 168 656 161 655 156 655 c 0
 151 655 147 658 147 663 c 1
 148 671 l 1
 152 684 l 2
 155 694 161 697 190 700 c 0
 241 705 340 709 396 709 c 0
 662 709 784 614 784 406 c 0
 784 167 591 -5 324 -5 c 0xb8
 303 -5 275 -4 239 -2 c 0
 205 -1 183 0 168 0 c 0
 108 0 55 -2 24 -4 c 0
 19 -5 12 -5 7 -5 c 0
 0 -5 -2 -3 -2 3 c 2
 -2 8 l 1
 0 20 l 1
 1 28 2 29 4 31 c 0
 5 32 7 33 9 33 c 2
 29 34 l 1
 73 44 82 55 105 132 c 2
 168 342 l 1
 88 342 l 1
 102 392 l 1
 183 392 l 1x68
302 392 m 1
 449 392 l 1
 434 342 l 1
 288 342 l 1
 230 140 l 1
 215 84 215 84 215 76 c 0
 215 53 253 38 312 38 c 0
 511 38 653 200 653 426 c 0
 653 582 576 666 432 666 c 0
 385 666 380 661 362 601 c 1
 302 392 l 1
EndSplineSet
EndChar
StartChar: Edieresis
Encoding: 264 203 158
Width: 627
Flags: W
HStem: -5 20 0 39 346 46<290 369 369 379> 650 39<441 476> 674 20
Fore
290 392 m 1x30
 369 392 l 2
 435 392 463 406 491 456 c 0
 495 462 498 464 506 464 c 2
 523 464 l 2
 532 464 535 462 535 457 c 0
 535 454 534 452 530 442 c 0
 515 401 489 316 479 273 c 0
 476 260 474 258 458 258 c 2
 441 258 l 2
 431 258 428 260 428 265 c 0
 428 268 428 268 433 285 c 0
 438 300 441 312 441 320 c 0
 441 341 429 346 379 346 c 2
 278 346 l 1
 221 140 l 1
 206 81 206 81 206 72 c 0
 206 44 228 39 343 39 c 0x60
 416 39 446 43 476 58 c 0
 505 72 528 94 545 123 c 0
 564 155 565 157 570 157 c 0
 572 157 572 157 578 154 c 2
 594 146 l 2
 602 142 604 140 604 136 c 0
 604 133 604 133 599 122 c 2
 564 42 l 2
 560 33 556 23 552 12 c 0
 546 -2 544 -5 535 -5 c 0x80
 532 -5 522 -5 514 -4 c 0
 495 -3 296 0 257 0 c 0x60
 242 0 221 0 192 -1 c 2
 125 -1 l 1
 36 -3 l 2
 21 -4 6 -5 1 -5 c 0
 -6 -5 -8 -3 -8 3 c 2
 -8 8 l 1
 -6 20 l 1
 -5 28 -5 29 -2 31 c 0
 -1 32 1 33 3 33 c 2
 18 35 l 2
 64 41 75 55 99 132 c 1
 217 556 l 2
 227 592 230 605 230 617 c 0
 230 641 214 651 169 653 c 0
 146 655 144 656 144 662 c 0
 144 665 144 667 145 670 c 1
 147 681 l 1
 150 693 152 694 165 694 c 2x88
 441 689 l 1x10
 511 689 598 691 625 693 c 0
 632 694 639 694 643 694 c 0
 650 694 654 692 654 687 c 0
 654 685 654 685 651 674 c 2x88
 620 559 l 1
 616 539 616 539 605 539 c 2
 589 539 l 2
 578 539 576 540 576 548 c 2
 576 550 l 1
 577 562 577 574 577 581 c 0
 577 636 558 650 482 650 c 2
 415 650 l 2
 369 650 362 643 343 574 c 1
 290 392 l 1x30
355 890 m 0
 388 890 411 863 411 826 c 0
 411 787 386 758 353 758 c 0
 320 758 297 786 297 824 c 0
 297 862 322 890 355 890 c 0
546 890 m 0
 579 890 602 863 602 826 c 0
 602 787 577 758 544 758 c 0
 511 758 488 786 488 824 c 0
 488 862 513 890 546 890 c 0
EndSplineSet
EndChar
StartChar: Eacute
Encoding: 265 201 159
Width: 627
Flags: W
HStem: -5 20 0 39 346 46<290 369 369 379> 650 39<441 476> 674 20
Fore
290 392 m 1x30
 369 392 l 2
 435 392 463 406 491 456 c 0
 495 462 498 464 506 464 c 2
 523 464 l 2
 532 464 535 462 535 457 c 0
 535 454 534 452 530 442 c 0
 515 401 489 316 479 273 c 0
 476 260 474 258 458 258 c 2
 441 258 l 2
 431 258 428 260 428 265 c 0
 428 268 428 268 433 285 c 0
 438 300 441 312 441 320 c 0
 441 341 429 346 379 346 c 2
 278 346 l 1
 221 140 l 1
 206 81 206 81 206 72 c 0
 206 44 228 39 343 39 c 0x60
 416 39 446 43 476 58 c 0
 505 72 528 94 545 123 c 0
 564 155 565 157 570 157 c 0
 572 157 572 157 578 154 c 2
 594 146 l 2
 602 142 604 140 604 136 c 0
 604 133 604 133 599 122 c 2
 564 42 l 2
 560 33 556 23 552 12 c 0
 546 -2 544 -5 535 -5 c 0x80
 532 -5 522 -5 514 -4 c 0
 495 -3 296 0 257 0 c 0x60
 242 0 221 0 192 -1 c 2
 125 -1 l 1
 36 -3 l 2
 21 -4 6 -5 1 -5 c 0
 -6 -5 -8 -3 -8 3 c 2
 -8 8 l 1
 -6 20 l 1
 -5 28 -5 29 -2 31 c 0
 -1 32 1 33 3 33 c 2
 18 35 l 2
 64 41 75 55 99 132 c 1
 217 556 l 2
 227 592 230 605 230 617 c 0
 230 641 214 651 169 653 c 0
 146 655 144 656 144 662 c 0
 144 665 144 667 145 670 c 1
 147 681 l 1
 150 693 152 694 165 694 c 2x88
 441 689 l 1x10
 511 689 598 691 625 693 c 0
 632 694 639 694 643 694 c 0
 650 694 654 692 654 687 c 0
 654 685 654 685 651 674 c 2x88
 620 559 l 1
 616 539 616 539 605 539 c 2
 589 539 l 2
 578 539 576 540 576 548 c 2
 576 550 l 1
 577 562 577 574 577 581 c 0
 577 636 558 650 482 650 c 2
 415 650 l 2
 369 650 362 643 343 574 c 1
 290 392 l 1x30
379 799 m 2
 472 902 l 2
 499 932 519 943 545 943 c 0
 573 943 593 927 593 904 c 0
 593 884 566 857 510 824 c 2
 412 766 l 2
 398 758 397 758 394 758 c 0
 392 758 389 760 386 763 c 1
 374 780 l 2
 372 783 371 785 371 787 c 0
 371 790 371 790 379 799 c 2
EndSplineSet
EndChar
StartChar: Egrave
Encoding: 266 200 160
Width: 627
Flags: W
HStem: -5 20 0 39 346 46<290 369 369 379> 650 39<441 476> 674 20
Fore
290 392 m 1x30
 369 392 l 2
 435 392 463 406 491 456 c 0
 495 462 498 464 506 464 c 2
 523 464 l 2
 532 464 535 462 535 457 c 0
 535 454 534 452 530 442 c 0
 515 401 489 316 479 273 c 0
 476 260 474 258 458 258 c 2
 441 258 l 2
 431 258 428 260 428 265 c 0
 428 268 428 268 433 285 c 0
 438 300 441 312 441 320 c 0
 441 341 429 346 379 346 c 2
 278 346 l 1
 221 140 l 1
 206 81 206 81 206 72 c 0
 206 44 228 39 343 39 c 0x60
 416 39 446 43 476 58 c 0
 505 72 528 94 545 123 c 0
 564 155 565 157 570 157 c 0
 572 157 572 157 578 154 c 2
 594 146 l 2
 602 142 604 140 604 136 c 0
 604 133 604 133 599 122 c 2
 564 42 l 2
 560 33 556 23 552 12 c 0
 546 -2 544 -5 535 -5 c 0x80
 532 -5 522 -5 514 -4 c 0
 495 -3 296 0 257 0 c 0x60
 242 0 221 0 192 -1 c 2
 125 -1 l 1
 36 -3 l 2
 21 -4 6 -5 1 -5 c 0
 -6 -5 -8 -3 -8 3 c 2
 -8 8 l 1
 -6 20 l 1
 -5 28 -5 29 -2 31 c 0
 -1 32 1 33 3 33 c 2
 18 35 l 2
 64 41 75 55 99 132 c 1
 217 556 l 2
 227 592 230 605 230 617 c 0
 230 641 214 651 169 653 c 0
 146 655 144 656 144 662 c 0
 144 665 144 667 145 670 c 1
 147 681 l 1
 150 693 152 694 165 694 c 2x88
 441 689 l 1x10
 511 689 598 691 625 693 c 0
 632 694 639 694 643 694 c 0
 650 694 654 692 654 687 c 0
 654 685 654 685 651 674 c 2x88
 620 559 l 1
 616 539 616 539 605 539 c 2
 589 539 l 2
 578 539 576 540 576 548 c 2
 576 550 l 1
 577 562 577 574 577 581 c 0
 577 636 558 650 482 650 c 2
 415 650 l 2
 369 650 362 643 343 574 c 1
 290 392 l 1x30
491 766 m 2
 393 824 l 2
 337 857 309 884 309 904 c 0
 309 927 329 943 357 943 c 0
 383 943 403 932 430 902 c 2
 523 799 l 2
 531 790 531 790 531 786 c 0
 531 785 530 782 528 780 c 2
 516 763 l 1
 513 760 511 758 508 758 c 0
 505 758 505 758 491 766 c 2
EndSplineSet
EndChar
StartChar: Ecircumflex
Encoding: 267 202 161
Width: 627
Flags: W
HStem: -5 20 0 39 346 46<290 369 369 379> 650 39<441 476> 674 20
Fore
290 392 m 1x30
 369 392 l 2
 435 392 463 406 491 456 c 0
 495 462 498 464 506 464 c 2
 523 464 l 2
 532 464 535 462 535 457 c 0
 535 454 534 452 530 442 c 0
 515 401 489 316 479 273 c 0
 476 260 474 258 458 258 c 2
 441 258 l 2
 431 258 428 260 428 265 c 0
 428 268 428 268 433 285 c 0
 438 300 441 312 441 320 c 0
 441 341 429 346 379 346 c 2
 278 346 l 1
 221 140 l 1
 206 81 206 81 206 72 c 0
 206 44 228 39 343 39 c 0x60
 416 39 446 43 476 58 c 0
 505 72 528 94 545 123 c 0
 564 155 565 157 570 157 c 0
 572 157 572 157 578 154 c 2
 594 146 l 2
 602 142 604 140 604 136 c 0
 604 133 604 133 599 122 c 2
 564 42 l 2
 560 33 556 23 552 12 c 0
 546 -2 544 -5 535 -5 c 0x80
 532 -5 522 -5 514 -4 c 0
 495 -3 296 0 257 0 c 0x60
 242 0 221 0 192 -1 c 2
 125 -1 l 1
 36 -3 l 2
 21 -4 6 -5 1 -5 c 0
 -6 -5 -8 -3 -8 3 c 2
 -8 8 l 1
 -6 20 l 1
 -5 28 -5 29 -2 31 c 0
 -1 32 1 33 3 33 c 2
 18 35 l 2
 64 41 75 55 99 132 c 1
 217 556 l 2
 227 592 230 605 230 617 c 0
 230 641 214 651 169 653 c 0
 146 655 144 656 144 662 c 0
 144 665 144 667 145 670 c 1
 147 681 l 1
 150 693 152 694 165 694 c 2x88
 441 689 l 1x10
 511 689 598 691 625 693 c 0
 632 694 639 694 643 694 c 0
 650 694 654 692 654 687 c 0
 654 685 654 685 651 674 c 2x88
 620 559 l 1
 616 539 616 539 605 539 c 2
 589 539 l 2
 578 539 576 540 576 548 c 2
 576 550 l 1
 577 562 577 574 577 581 c 0
 577 636 558 650 482 650 c 2
 415 650 l 2
 369 650 362 643 343 574 c 1
 290 392 l 1x30
582 763 m 2
 517 815 l 2
 479 846 476 849 465 874 c 1
 451 856 446 851 420 831 c 2
 326 761 l 2
 324 759 321 758 320 758 c 0
 318 758 316 759 312 764 c 2
 296 780 l 2
 293 783 291 786 291 788 c 0
 291 791 291 791 328 827 c 1
 340 841 352 853 362 865 c 2
 411 924 l 1
 428 946 448 956 472 956 c 0
 499 956 516 945 534 917 c 2
 576 852 l 1
 586 835 597 821 620 794 c 0
 623 791 624 789 624 787 c 0
 624 786 623 784 619 779 c 2
 603 760 l 2
 601 758 598 756 596 756 c 0
 593 756 590 757 582 763 c 2
EndSplineSet
EndChar
StartChar: Idieresis
Encoding: 268 207 162
Width: 387
Flags: W
HStem: -5 20 0 20 669 20 674 20<171.5 182 460 465.5>
Fore
107 132 m 2x40
 229 557 l 2
 238 588 242 606 242 617 c 0
 242 642 226 651 182 654 c 0
 159 655 157 656 157 662 c 0
 157 664 157 667 158 670 c 1
 160 680 l 2
 163 693 165 694 178 694 c 0x10
 186 694 188 694 235 691 c 0
 266 690 297 689 329 689 c 0x20
 371 689 384 689 443 693 c 0
 450 694 458 694 462 694 c 0x10
 469 694 471 692 471 686 c 2
 471 681 l 1
 469 669 l 1
 468 661 468 660 465 658 c 0
 463 656 461 656 440 655 c 0
 387 650 377 638 353 557 c 1
 231 132 l 2
 222 101 218 83 218 71 c 0
 218 47 235 37 278 35 c 0
 301 34 303 33 303 27 c 1
 302 19 l 1
 300 9 l 1
 297 -3 295 -5 283 -5 c 0xa0
 274 -5 272 -5 225 -2 c 0
 194 -1 163 0 132 0 c 0x40
 93 0 63 -1 17 -4 c 0
 10 -5 3 -5 0 -5 c 0xa0
 -7 -5 -9 -3 -9 3 c 2
 -9 8 l 1
 -7 20 l 1
 -6 28 -5 29 -3 31 c 0
 0 33 0 33 22 34 c 0
 73 39 84 52 107 132 c 2x40
236 890 m 0
 268 890 291 863 291 826 c 0
 291 787 266 758 233 758 c 0
 201 758 178 786 178 824 c 0
 178 862 203 890 236 890 c 0
427 890 m 0
 460 890 483 863 483 826 c 0
 483 787 458 758 425 758 c 0
 392 758 369 785 369 824 c 0
 369 862 394 890 427 890 c 0
EndSplineSet
EndChar
StartChar: Iacute
Encoding: 269 205 163
Width: 387
Flags: W
HStem: -5 20 0 20 669 20 674 20<170.5 181 459 464.5>
Fore
106 132 m 2x40
 228 557 l 2
 237 588 241 606 241 617 c 0
 241 642 225 651 181 654 c 0
 158 655 156 656 156 662 c 0
 156 664 156 667 157 670 c 1
 159 680 l 2
 162 693 164 694 177 694 c 0x10
 185 694 187 694 234 691 c 0
 265 690 296 689 328 689 c 0x20
 370 689 383 689 442 693 c 0
 449 694 457 694 461 694 c 0x10
 468 694 470 692 470 686 c 2
 470 681 l 1
 468 669 l 1
 467 661 467 660 464 658 c 0
 462 656 460 656 439 655 c 0
 386 650 376 638 352 557 c 1
 230 132 l 2
 221 101 217 83 217 71 c 0
 217 47 234 37 277 35 c 0
 300 34 302 33 302 27 c 1
 301 19 l 1
 299 9 l 1
 296 -3 294 -5 282 -5 c 0xa0
 273 -5 271 -5 224 -2 c 0
 193 -1 162 0 131 0 c 0x40
 92 0 62 -1 16 -4 c 0
 9 -5 2 -5 -1 -5 c 0xa0
 -8 -5 -10 -3 -10 3 c 2
 -10 8 l 1
 -8 20 l 1
 -7 28 -6 29 -4 31 c 0
 -1 33 -1 33 21 34 c 0
 72 39 83 52 106 132 c 2x40
258 799 m 2
 351 902 l 2
 378 932 398 943 424 943 c 0
 452 943 472 927 472 904 c 0
 472 884 444 857 389 824 c 2
 291 766 l 2
 277 758 277 758 273 758 c 0
 271 758 268 760 265 763 c 1
 253 780 l 2
 251 783 250 785 250 786 c 0
 250 790 250 790 258 799 c 2
EndSplineSet
EndChar
StartChar: Igrave
Encoding: 270 204 164
Width: 387
Flags: W
HStem: -5 20 0 20 669 20 674 20<171.5 182 460 465.5>
Fore
107 132 m 2x40
 229 557 l 2
 238 588 242 606 242 617 c 0
 242 642 226 651 182 654 c 0
 159 655 157 656 157 662 c 0
 157 664 157 667 158 670 c 1
 160 680 l 2
 163 693 165 694 178 694 c 0x10
 186 694 188 694 235 691 c 0
 266 690 297 689 329 689 c 0x20
 371 689 384 689 443 693 c 0
 450 694 458 694 462 694 c 0x10
 469 694 471 692 471 686 c 2
 471 681 l 1
 469 669 l 1
 468 661 468 660 465 658 c 0
 463 656 461 656 440 655 c 0
 387 650 377 638 353 557 c 1
 231 132 l 2
 222 101 218 83 218 71 c 0
 218 47 235 37 278 35 c 0
 301 34 303 33 303 27 c 1
 302 19 l 1
 300 9 l 1
 297 -3 295 -5 283 -5 c 0xa0
 274 -5 272 -5 225 -2 c 0
 194 -1 163 0 132 0 c 0x40
 93 0 63 -1 17 -4 c 0
 10 -5 3 -5 0 -5 c 0xa0
 -7 -5 -9 -3 -9 3 c 2
 -9 8 l 1
 -7 20 l 1
 -6 28 -5 29 -3 31 c 0
 0 33 0 33 22 34 c 0
 73 39 84 52 107 132 c 2x40
371 766 m 2
 273 824 l 2
 218 857 190 884 190 904 c 0
 190 927 210 943 238 943 c 0
 264 943 283 932 310 902 c 2
 403 799 l 2
 409 792 411 789 411 786 c 0
 411 784 410 782 409 780 c 2
 396 763 l 2
 394 760 391 758 388 758 c 0
 385 758 385 758 371 766 c 2
EndSplineSet
EndChar
StartChar: Icircumflex
Encoding: 271 206 165
Width: 387
Flags: W
HStem: -5 20 0 20 669 20 674 20<170.5 181 459 464.5>
Fore
106 132 m 2x40
 228 557 l 2
 237 588 241 606 241 617 c 0
 241 642 225 651 181 654 c 0
 158 655 156 656 156 662 c 0
 156 664 156 667 157 670 c 1
 159 680 l 2
 162 693 164 694 177 694 c 0x10
 185 694 187 694 234 691 c 0
 265 690 296 689 328 689 c 0x20
 370 689 383 689 442 693 c 0
 449 694 457 694 461 694 c 0x10
 468 694 470 692 470 686 c 2
 470 681 l 1
 468 669 l 1
 467 661 467 660 464 658 c 0
 462 656 460 656 439 655 c 0
 386 650 376 638 352 557 c 1
 230 132 l 2
 221 101 217 83 217 71 c 0
 217 47 234 37 277 35 c 0
 300 34 302 33 302 27 c 1
 301 19 l 1
 299 9 l 1
 296 -3 294 -5 282 -5 c 0xa0
 273 -5 271 -5 224 -2 c 0
 193 -1 162 0 131 0 c 0x40
 92 0 62 -1 16 -4 c 0
 9 -5 2 -5 -1 -5 c 0xa0
 -8 -5 -10 -3 -10 3 c 2
 -10 8 l 1
 -8 20 l 1
 -7 28 -6 29 -4 31 c 0
 -1 33 -1 33 21 34 c 0
 72 39 83 52 106 132 c 2x40
462 763 m 2
 396 815 l 2
 358 846 355 849 345 874 c 1
 331 856 326 852 299 831 c 2
 205 761 l 2
 203 759 200 758 199 758 c 0
 198 758 195 760 191 764 c 2
 175 780 l 2
 172 784 170 787 170 788 c 0
 170 791 170 791 207 827 c 1
 220 841 232 853 241 865 c 2
 290 924 l 1
 307 946 327 956 351 956 c 0
 379 956 396 945 413 917 c 1
 455 852 l 1
 477 821 l 1
 499 794 l 2
 502 791 503 789 503 787 c 0
 503 786 502 785 498 779 c 1
 482 760 l 2
 480 758 477 756 475 756 c 0
 472 756 469 757 462 763 c 2
EndSplineSet
EndChar
StartChar: Ntilde
Encoding: 272 209 166
Width: 793
Flags: W
HStem: -5 20 0 20 669 20 674 20<129 138.5 327 327 669 673 878 882.5> 758 82 839 82<490 494.5>
Fore
377 767 m 1xa4
 365 778 l 2
 363 780 361 782 361 784 c 0
 361 788 373 808 387 828 c 0
 430 888 473 921 507 921 c 0xa4
 521 921 536 914 552 900 c 0
 556 897 556 897 590 859 c 0
 601 847 613 840 623 840 c 0
 642 840 656 850 693 892 c 0
 708 909 714 914 718 914 c 0
 720 914 722 913 724 912 c 2
 731 906 l 2
 740 900 741 899 741 896 c 0
 741 888 716 848 697 823 c 1
 663 782 628 758 600 758 c 0x08
 582 758 569 767 538 801 c 0
 507 834 501 839 488 839 c 0
 466 839 435 819 410 786 c 0
 392 764 391 763 386 763 c 0
 383 763 382 764 377 767 c 1xa4
570 -5 m 1
 274 531 l 1
 175 190 l 1
 162 144 151 91 151 71 c 0
 151 43 165 36 216 34 c 0
 235 33 238 33 238 28 c 0
 238 26 237 20 236 18 c 1
 233 7 l 2
 230 -4 229 -5 220 -5 c 0x80
 213 -5 213 -5 117 0 c 1x40
 70 -2 l 2
 52 -4 16 -5 4 -5 c 0
 -3 -5 -5 -4 -5 2 c 0
 -5 5 -5 7 -4 9 c 1
 -1 22 l 1
 0 30 1 31 5 33 c 2
 10 34 l 1
 34 35 l 1
 69 40 78 52 98 123 c 1
 242 600 l 1
 215 641 189 654 130 655 c 0
 121 655 117 657 117 662 c 0
 117 664 117 664 118 671 c 1
 120 680 l 1
 122 692 124 694 134 694 c 0x90
 143 694 161 693 177 692 c 0
 198 690 212 689 223 689 c 0x20
 230 689 258 690 296 693 c 2
 327 694 l 1
 615 160 l 1
 716 517 l 1
 728 558 737 603 737 619 c 0
 737 644 719 656 682 655 c 0
 662 655 658 656 658 664 c 1
 659 673 l 1
 661 681 l 1
 663 691 665 694 673 694 c 2
 702 693 l 2
 728 691 767 689 779 689 c 0
 789 689 837 691 854 693 c 2
 878 694 l 2x90
 887 694 889 691 889 682 c 1
 888 669 l 1
 888 659 886 657 879 656 c 0
 820 650 804 633 781 548 c 1
 648 93 l 1
 693 6 l 2
 695 3 695 3 695 2 c 0
 695 -2 690 -5 683 -5 c 2
 570 -5 l 1
EndSplineSet
EndChar
StartChar: Odieresis
Encoding: 273 214 167
Width: 830
Flags: MW
HStem: -20 44<334 429.5> 667 44<456 551.5>
VStem: 75 131<204.5 338.5> 682 131<364 487.5>
Fore
492 711 m 0
 687 711 813 585 813 390 c 0
 813 151 638 -20 394 -20 c 0
 195 -20 75 103 75 306 c 0
 75 536 256 711 492 711 c 0
490 667 m 0
 422 667 364 640 317 587 c 0
 248 511 206 395 206 282 c 0
 206 116 273 24 395 24 c 0
 464 24 529 55 575 110 c 0
 642 190 682 306 682 422 c 0
 682 578 613 667 490 667 c 0
457 890 m 0
 489 890 512 863 512 826 c 0
 512 787 487 758 454 758 c 0
 422 758 399 786 399 824 c 0
 399 862 424 890 457 890 c 0
648 890 m 0
 681 890 704 863 704 826 c 0
 704 787 679 758 646 758 c 0
 613 758 590 786 590 824 c 0
 590 862 615 890 648 890 c 0
EndSplineSet
KernsSLIF: 89 -70 0 0 88 -48 0 0 87 -51 0 0 86 -56 0 0 84 -39 0 0 65 -48 0 0
EndChar
StartChar: Oacute
Encoding: 274 211 168
Width: 830
Flags: MW
HStem: -20 44<334 429.5> 667 44<456 551.5>
VStem: 75 131<204.5 338.5> 682 131<364 487.5>
Fore
492 711 m 0
 687 711 813 585 813 390 c 0
 813 151 638 -20 394 -20 c 0
 195 -20 75 103 75 306 c 0
 75 536 256 711 492 711 c 0
490 667 m 0
 422 667 364 640 317 587 c 0
 248 511 206 395 206 282 c 0
 206 116 273 24 395 24 c 0
 464 24 529 55 575 110 c 0
 642 190 682 306 682 422 c 0
 682 578 613 667 490 667 c 0
481 799 m 2
 574 902 l 2
 600 932 620 943 646 943 c 0
 674 943 694 927 694 904 c 0
 694 884 666 857 611 824 c 2
 513 766 l 2
 499 758 499 758 495 758 c 0
 493 758 490 760 488 763 c 2
 475 780 l 2
 474 782 473 784 473 786 c 0
 473 790 475 792 481 799 c 2
EndSplineSet
KernsSLIF: 89 -70 0 0 87 -51 0 0 86 -56 0 0 84 -39 0 0 65 -48 0 0
EndChar
StartChar: Ograve
Encoding: 275 210 169
Width: 830
Flags: MW
HStem: -20 44<334 429.5> 667 44<456 551.5>
VStem: 75 131<204.5 338.5> 682 131<364 487.5>
Fore
492 711 m 0
 687 711 813 585 813 390 c 0
 813 151 638 -20 394 -20 c 0
 195 -20 75 103 75 306 c 0
 75 536 256 711 492 711 c 0
490 667 m 0
 422 667 364 640 317 587 c 0
 248 511 206 395 206 282 c 0
 206 116 273 24 395 24 c 0
 464 24 529 55 575 110 c 0
 642 190 682 306 682 422 c 0
 682 578 613 667 490 667 c 0
592 766 m 2
 494 824 l 2
 439 857 411 884 411 904 c 0
 411 927 430 943 459 943 c 0
 485 943 505 932 531 902 c 2
 624 799 l 2
 630 792 632 789 632 786 c 0
 632 785 631 782 630 780 c 2
 617 763 l 2
 615 760 612 758 609 758 c 0
 606 758 606 758 592 766 c 2
EndSplineSet
KernsSLIF: 89 -70 0 0 86 -56 0 0 84 -39 0 0
EndChar
StartChar: Ocircumflex
Encoding: 276 212 170
Width: 830
Flags: MW
HStem: -20 44<334 429.5> 667 44<456 551.5>
VStem: 75 131<204.5 338.5> 682 131<364 487.5>
Fore
492 711 m 0
 687 711 813 585 813 390 c 0
 813 151 638 -20 394 -20 c 0
 195 -20 75 103 75 306 c 0
 75 536 256 711 492 711 c 0
490 667 m 0
 422 667 364 640 317 587 c 0
 248 511 206 395 206 282 c 0
 206 116 273 24 395 24 c 0
 464 24 529 55 575 110 c 0
 642 190 682 306 682 422 c 0
 682 578 613 667 490 667 c 0
684 763 m 2
 618 815 l 2
 580 846 577 849 567 874 c 1
 553 856 548 851 521 831 c 2
 427 761 l 2
 425 759 423 758 421 758 c 0
 420 758 417 760 413 764 c 2
 398 780 l 2
 394 784 392 787 392 788 c 0
 392 791 392 791 429 827 c 1
 442 841 453 853 463 865 c 2
 512 924 l 1
 529 946 549 956 573 956 c 0
 601 956 618 945 635 917 c 1
 677 852 l 2
 691 831 691 830 721 794 c 0
 724 791 725 789 725 787 c 0
 725 786 724 784 720 779 c 2
 704 760 l 2
 702 758 699 756 697 756 c 0
 694 756 691 757 684 763 c 2
EndSplineSet
KernsSLIF: 89 -70 0 0 86 -56 0 0 84 -39 0 0
EndChar
StartChar: Otilde
Encoding: 277 213 171
Width: 830
Flags: W
HStem: -20 44<334 429.5> 667 44<456 551.5> 758 82 839 82<509 513.5>
VStem: 75 131<204.5 338.5> 682 131<364 487.5>
Fore
492 711 m 0xdc
 687 711 813 585 813 390 c 0
 813 151 638 -20 394 -20 c 0
 195 -20 75 103 75 306 c 0
 75 536 256 711 492 711 c 0xdc
490 667 m 0
 422 667 364 640 317 587 c 0
 248 511 206 395 206 282 c 0
 206 116 273 24 395 24 c 0
 464 24 529 55 575 110 c 0
 642 190 682 306 682 422 c 0
 682 578 613 667 490 667 c 0
396 767 m 2
 384 778 l 2
 382 780 380 782 380 784 c 0
 380 788 392 808 406 828 c 0
 449 887 492 921 526 921 c 0x1c
 540 921 555 914 571 900 c 0
 575 897 575 897 609 859 c 0
 620 847 632 840 642 840 c 0
 662 840 674 849 712 892 c 0
 728 909 733 914 737 914 c 0
 739 914 741 913 743 912 c 2
 751 906 l 2
 759 900 760 899 760 896 c 0
 760 888 735 847 716 823 c 0
 683 782 647 758 619 758 c 0x2c
 601 758 588 767 557 801 c 0
 527 834 520 839 507 839 c 0
 485 839 453 818 429 786 c 0
 411 764 410 763 405 763 c 0
 402 763 401 763 396 767 c 2
EndSplineSet
KernsSLIF: 89 -70 0 0 86 -56 0 0 84 -39 0 0
EndChar
StartChar: Scaron
Encoding: 278 352 172
Width: 498
Flags: MW
HStem: -20 44<192.5 243> 667 44<322.5 385.5>
VStem: 130 109<527 532> 333 115<113.5 161.5>
Fore
479 530 m 2
 460 535 l 2
 452 538 449 540 449 544 c 1
 450 550 l 1
 455 563 457 573 457 583 c 0
 457 632 415 667 356 667 c 0
 288 667 239 620 239 554 c 0
 239 500 260 462 332 388 c 0
 422 294 448 246 448 171 c 0
 448 56 357 -20 219 -20 c 0
 166 -20 93 -5 43 16 c 0
 27 23 21 29 21 38 c 0
 21 43 22 45 27 59 c 0
 29 67 31 74 33 80 c 2
 48 126 l 1
 50 134 55 155 57 165 c 0
 58 170 60 172 64 172 c 0
 66 172 66 172 72 171 c 2
 88 169 l 2
 98 167 100 166 100 162 c 1
 99 153 l 1
 95 136 93 122 93 112 c 0
 93 62 142 24 207 24 c 0
 279 24 333 72 333 134 c 0
 333 189 310 228 227 317 c 0
 153 395 130 439 130 505 c 0
 130 559 152 611 191 650 c 0
 233 691 287 711 358 711 c 0
 416 711 472 695 511 666 c 0
 522 659 527 654 527 650 c 0
 527 647 525 641 520 629 c 0
 505 589 495 555 492 534 c 0
 491 529 490 528 487 528 c 0
 486 528 484 528 479 530 c 2
305 928 m 2
 370 878 l 2
 408 848 411 845 422 820 c 1
 436 838 440 842 468 863 c 2
 561 931 l 2
 564 933 566 934 567 934 c 0
 569 934 571 932 575 928 c 2
 591 912 l 2
 594 908 596 905 596 903 c 0
 596 901 596 901 559 866 c 0
 550 858 543 850 536 841 c 0
 529 833 532 837 525 828 c 2
 475 767 l 2
 459 747 441 738 418 738 c 0
 388 738 372 748 353 777 c 2
 312 841 l 2
 305 852 299 858 271 894 c 0
 265 902 264 903 264 905 c 0
 264 906 266 910 268 913 c 2
 284 932 l 2
 287 935 289 936 291 936 c 0
 294 936 296 935 305 928 c 2
EndSplineSet
EndChar
StartChar: Udieresis
Encoding: 279 220 173
Width: 812
Flags: W
HStem: -21 50<351.5 435.5> 669 20 674 20<165.5 173 443 450 671 677.5 882 888>
VStem: 114 123<123.5 180>
Fore
332 556 m 1x50
 266 328 l 1
 246 257 237 208 237 166 c 0
 237 81 300 29 403 29 c 0
 540 29 610 100 659 289 c 2
 712 494 l 1
 736 601 736 601 736 618 c 0
 736 641 716 654 680 654 c 0
 659 654 657 655 657 659 c 0
 657 661 658 664 659 668 c 2
 663 683 l 1
 665 692 667 694 675 694 c 0xb0
 680 694 695 693 709 692 c 0
 734 691 771 689 781 689 c 2x50
 856 692 l 2
 869 693 879 694 885 694 c 0
 891 694 895 691 895 686 c 0
 895 685 895 681 894 677 c 2
 893 672 l 2
 890 657 888 655 878 654 c 0
 827 654 808 634 789 562 c 2
 711 270 l 2
 680 154 647 87 600 45 c 1
 553 1 482 -21 389 -21 c 0
 220 -21 114 49 114 162 c 0
 114 198 129 267 165 394 c 1
 212 556 l 2
 223 594 225 604 225 617 c 0
 225 641 210 652 170 654 c 0
 148 655 146 655 146 661 c 0
 146 663 147 665 149 671 c 1
 154 681 l 2
 159 692 161 694 170 694 c 0xb0
 176 694 183 694 191 693 c 0
 222 691 289 689 315 689 c 0x50
 345 689 354 689 420 693 c 0
 429 694 439 694 447 694 c 0xb0
 453 694 456 692 456 689 c 0
 456 688 455 685 454 681 c 2
 451 669 l 1
 449 663 447 659 445 658 c 0
 443 656 438 655 420 655 c 1
 367 651 355 638 332 556 c 1x50
447 890 m 0
 480 890 503 863 503 826 c 0
 503 787 478 758 445 758 c 0
 412 758 389 786 389 824 c 0
 389 862 414 890 447 890 c 0
638 890 m 0
 671 890 694 863 694 826 c 0
 694 787 669 758 636 758 c 0
 603 758 580 785 580 824 c 0
 580 862 605 890 638 890 c 0
EndSplineSet
KernsSLIF: 114 -19 0 0 46 -32 0 0 112 -16 0 0 110 -28 0 0 109 -22 0 0 44 -24 0 0 98 -18 0 0 65 -53 0 0
EndChar
StartChar: Uacute
Encoding: 280 218 174
Width: 812
Flags: W
HStem: -21 50<351.5 435.5> 669 20 674 20<165.5 173 443 450 671 677.5 882 888>
VStem: 114 123<123.5 180>
Fore
332 556 m 1x50
 266 328 l 1
 246 257 237 208 237 166 c 0
 237 81 300 29 403 29 c 0
 540 29 610 100 659 289 c 2
 712 494 l 1
 736 601 736 601 736 618 c 0
 736 641 716 654 680 654 c 0
 659 654 657 655 657 659 c 0
 657 661 658 664 659 668 c 2
 663 683 l 1
 665 692 667 694 675 694 c 0xb0
 680 694 695 693 709 692 c 0
 734 691 771 689 781 689 c 2x50
 856 692 l 2
 869 693 879 694 885 694 c 0
 891 694 895 691 895 686 c 0
 895 685 895 681 894 677 c 2
 893 672 l 2
 890 657 888 655 878 654 c 0
 827 654 808 634 789 562 c 2
 711 270 l 2
 680 154 647 87 600 45 c 1
 553 1 482 -21 389 -21 c 0
 220 -21 114 49 114 162 c 0
 114 198 129 267 165 394 c 1
 212 556 l 2
 223 594 225 604 225 617 c 0
 225 641 210 652 170 654 c 0
 148 655 146 655 146 661 c 0
 146 663 147 665 149 671 c 1
 154 681 l 2
 159 692 161 694 170 694 c 0xb0
 176 694 183 694 191 693 c 0
 222 691 289 689 315 689 c 0x50
 345 689 354 689 420 693 c 0
 429 694 439 694 447 694 c 0xb0
 453 694 456 692 456 689 c 0
 456 688 455 685 454 681 c 2
 451 669 l 1
 449 663 447 659 445 658 c 0
 443 656 438 655 420 655 c 1
 367 651 355 638 332 556 c 1x50
471 799 m 2
 564 902 l 2
 590 932 610 943 636 943 c 0
 665 943 684 927 684 904 c 0
 684 884 656 857 601 824 c 2
 503 766 l 2
 489 758 489 758 486 758 c 0
 483 758 480 760 478 763 c 2
 465 780 l 2
 464 782 463 784 463 787 c 0
 463 790 464 791 471 799 c 2
EndSplineSet
KernsSLIF: 114 -19 0 0 46 -32 0 0 112 -16 0 0 110 -28 0 0 109 -22 0 0 44 -24 0 0 65 -53 0 0
EndChar
StartChar: Ugrave
Encoding: 281 217 175
Width: 812
Flags: W
HStem: -21 50<351.5 435.5> 669 20 674 20<165.5 173 443 450 671 677.5 882 888>
VStem: 114 123<123.5 180>
Fore
332 556 m 1x50
 266 328 l 1
 246 257 237 208 237 166 c 0
 237 81 300 29 403 29 c 0
 540 29 610 100 659 289 c 2
 712 494 l 1
 736 601 736 601 736 618 c 0
 736 641 716 654 680 654 c 0
 659 654 657 655 657 659 c 0
 657 661 658 664 659 668 c 2
 663 683 l 1
 665 692 667 694 675 694 c 0xb0
 680 694 695 693 709 692 c 0
 734 691 771 689 781 689 c 2x50
 856 692 l 2
 869 693 879 694 885 694 c 0
 891 694 895 691 895 686 c 0
 895 685 895 681 894 677 c 2
 893 672 l 2
 890 657 888 655 878 654 c 0
 827 654 808 634 789 562 c 2
 711 270 l 2
 680 154 647 87 600 45 c 1
 553 1 482 -21 389 -21 c 0
 220 -21 114 49 114 162 c 0
 114 198 129 267 165 394 c 1
 212 556 l 2
 223 594 225 604 225 617 c 0
 225 641 210 652 170 654 c 0
 148 655 146 655 146 661 c 0
 146 663 147 665 149 671 c 1
 154 681 l 2
 159 692 161 694 170 694 c 0xb0
 176 694 183 694 191 693 c 0
 222 691 289 689 315 689 c 0x50
 345 689 354 689 420 693 c 0
 429 694 439 694 447 694 c 0xb0
 453 694 456 692 456 689 c 0
 456 688 455 685 454 681 c 2
 451 669 l 1
 449 663 447 659 445 658 c 0
 443 656 438 655 420 655 c 1
 367 651 355 638 332 556 c 1x50
582 766 m 2
 484 824 l 2
 429 857 401 884 401 904 c 0
 401 927 421 943 449 943 c 0
 475 943 495 932 522 902 c 2
 615 799 l 2
 623 790 623 789 623 787 c 0
 623 785 622 783 620 780 c 2
 607 763 l 2
 605 760 602 758 600 758 c 0
 597 758 596 758 582 766 c 2
EndSplineSet
KernsSLIF: 65 -53 0 0
EndChar
StartChar: Ucircumflex
Encoding: 282 219 176
Width: 812
Flags: W
HStem: -21 50<351.5 435.5> 669 20 674 20<165.5 173 443 450 671 677.5 882 888>
VStem: 114 123<123.5 180>
Fore
332 556 m 1x50
 266 328 l 1
 246 257 237 208 237 166 c 0
 237 81 300 29 403 29 c 0
 540 29 610 100 659 289 c 2
 712 494 l 1
 736 601 736 601 736 618 c 0
 736 641 716 654 680 654 c 0
 659 654 657 655 657 659 c 0
 657 661 658 664 659 668 c 2
 663 683 l 1
 665 692 667 694 675 694 c 0xb0
 680 694 695 693 709 692 c 0
 734 691 771 689 781 689 c 2x50
 856 692 l 2
 869 693 879 694 885 694 c 0
 891 694 895 691 895 686 c 0
 895 685 895 681 894 677 c 2
 893 672 l 2
 890 657 888 655 878 654 c 0
 827 654 808 634 789 562 c 2
 711 270 l 2
 680 154 647 87 600 45 c 1
 553 1 482 -21 389 -21 c 0
 220 -21 114 49 114 162 c 0
 114 198 129 267 165 394 c 1
 212 556 l 2
 223 594 225 604 225 617 c 0
 225 641 210 652 170 654 c 0
 148 655 146 655 146 661 c 0
 146 663 147 665 149 671 c 1
 154 681 l 2
 159 692 161 694 170 694 c 0xb0
 176 694 183 694 191 693 c 0
 222 691 289 689 315 689 c 0x50
 345 689 354 689 420 693 c 0
 429 694 439 694 447 694 c 0xb0
 453 694 456 692 456 689 c 0
 456 688 455 685 454 681 c 2
 451 669 l 1
 449 663 447 659 445 658 c 0
 443 656 438 655 420 655 c 1
 367 651 355 638 332 556 c 1x50
674 763 m 2
 608 815 l 2
 570 846 568 849 557 874 c 1
 543 856 538 851 511 831 c 2
 418 761 l 2
 415 759 413 758 412 758 c 0
 410 758 408 759 404 764 c 2
 388 780 l 2
 385 783 383 786 383 788 c 0
 383 791 383 791 420 827 c 1
 429 834 436 842 443 852 c 1
 454 865 l 1
 502 924 l 2
 520 946 540 956 564 956 c 0
 591 956 608 945 626 917 c 2
 667 852 l 2
 673 842 680 831 689 821 c 2
 711 794 l 2
 714 791 715 789 715 787 c 0
 715 786 713 783 710 779 c 2
 694 760 l 2
 692 758 690 756 687 756 c 0
 684 756 681 758 674 763 c 2
EndSplineSet
KernsSLIF: 65 -53 0 0
EndChar
StartChar: Yacute
Encoding: 283 221 177
Width: 738
Flags: W
HStem: -5 20 0 20 669 20<287 291.5 695 696 813 813> 674 20<144 149 583 587 796.5 808> 675 20<406 415.5>
Fore
422 371 m 1x08
 596 556 l 2
 633 595 646 614 646 630 c 0
 646 646 629 654 596 655 c 0
 574 656 572 657 572 664 c 0
 572 666 572 666 574 671 c 1
 576 684 l 1
 577 692 579 694 587 694 c 2x10
 652 692 l 2
 676 690 694 689 696 689 c 0
 758 693 788 694 805 694 c 0
 811 694 813 693 813 689 c 1
 813 689 813 688 812 679 c 1
 810 665 l 1
 808 657 807 655 799 654 c 0
 755 644 726 625 683 576 c 1
 447 322 l 1
 395 132 l 1
 384 95 382 84 382 72 c 0
 382 46 396 39 450 34 c 0
 457 34 460 31 460 27 c 0
 460 26 459 23 458 19 c 2
 456 9 l 1
 454 -3 451 -5 442 -5 c 0xa0
 437 -5 432 -5 425 -4 c 0
 393 -2 323 0 299 0 c 0x40
 277 0 252 -1 225 -3 c 0
 187 -5 184 -5 151 -5 c 0xa0
 144 -5 142 -3 142 3 c 2
 142 8 l 1
 144 20 l 1
 145 31 147 33 152 33 c 2
 171 34 l 1
 196 36 l 2
 250 39 259 49 280 132 c 1
 323 307 l 1
 218 594 l 1
 202 641 192 651 158 653 c 0
 129 654 129 654 129 659 c 0
 129 661 130 664 131 670 c 1
 134 683 l 1
 137 692 139 694 149 694 c 2x50
 237 692 l 1
 265 690 285 689 289 689 c 0x20
 294 689 314 690 341 692 c 0
 362 693 400 695 412 695 c 0
 419 695 422 693 422 688 c 0
 422 686 422 683 421 679 c 2
 418 667 l 2
 415 654 414 654 387 654 c 0
 356 654 340 644 340 624 c 0
 340 618 340 618 356 563 c 1
 422 371 l 1x08
434 799 m 2
 527 902 l 2
 554 932 574 943 600 943 c 0
 628 943 648 927 648 904 c 0
 648 884 621 857 564 824 c 2
 466 766 l 2
 452 758 452 758 449 758 c 0
 446 758 443 760 441 763 c 2
 429 780 l 2
 427 782 426 785 426 786 c 0
 426 790 426 790 434 799 c 2
EndSplineSet
EndChar
StartChar: Zcaron
Encoding: 284 381 178
Width: 664
Flags: W
HStem: -5 20 0 20 651 45<318 517>
Fore
517 651 m 1xa0
 280 651 l 2
 212 651 181 633 158 580 c 0
 155 573 153 571 147 571 c 0
 145 571 140 572 138 573 c 2
 126 578 l 2
 120 581 118 583 118 587 c 0
 118 589 118 590 120 594 c 1
 172 740 l 1
 204 740 l 1
 240 700 250 696 318 696 c 2
 661 696 l 2
 672 696 675 695 675 690 c 0
 675 687 671 680 664 670 c 2
 213 67 l 1
 204 57 204 57 204 54 c 0
 204 50 210 48 226 48 c 2
 398 49 l 2
 465 50 485 52 500 59 c 0
 510 65 520 73 528 82 c 0
 537 94 543 103 548 112 c 2
 566 141 l 2
 575 155 580 160 584 160 c 2
 591 159 l 1
 603 154 l 2
 610 152 614 148 614 143 c 0
 614 141 613 137 611 132 c 0
 596 95 581 45 572 9 c 0
 570 -3 567 -5 559 -5 c 2xa0
 499 -4 l 2
 459 -2 331 0 301 0 c 2x40
 123 -3 l 2
 96 -4 74 -5 60 -5 c 0
 45 -5 38 0 38 9 c 0
 38 14 43 22 54 37 c 2
 517 651 l 1xa0
388 928 m 2
 454 878 l 2
 492 848 494 845 505 820 c 1
 519 838 524 843 551 863 c 2
 644 931 l 2
 647 933 649 934 650 934 c 0
 652 934 654 932 658 928 c 2
 674 912 l 2
 677 908 679 905 679 904 c 0
 679 901 679 901 642 866 c 0
 629 855 618 842 608 828 c 1
 558 767 l 2
 542 747 524 738 501 738 c 0
 471 738 455 748 436 777 c 2
 395 841 l 2
 388 851 383 858 354 894 c 0
 347 902 347 903 347 905 c 0
 347 906 349 909 352 913 c 2
 368 932 l 2
 370 935 372 936 375 936 c 0
 378 936 379 935 388 928 c 2
EndSplineSet
EndChar
StartChar: Thorn
Encoding: 285 222 179
Width: 627
Flags: W
HStem: -6 20 0 20 146 47<372.5 392.5> 669 20<361 367 367 369.5>
VStem: 493 122<328 403>
Fore
374 677 m 1x98
 341 551 l 1
 430 548 462 544 506 528 c 0
 572 504 615 440 615 366 c 0
 615 245 513 146 387 146 c 0
 358 146 321 152 294 161 c 0
 289 163 287 164 287 169 c 2
 287 173 l 1
 292 189 l 2
 294 195 297 197 302 197 c 0
 304 197 310 196 325 195 c 0
 335 194 345 193 354 193 c 0
 431 193 493 276 493 380 c 0
 493 453 448 501 379 501 c 0
 339 501 322 486 310 442 c 2
 232 153 l 1
 216 81 216 81 216 71 c 0
 216 42 239 32 306 32 c 0
 315 32 319 29 318 24 c 1
 318 23 l 1
 313 5 l 1
 312 -3 307 -6 296 -6 c 0xa8
 288 -6 245 -4 221 -3 c 0
 191 -1 168 0 157 0 c 0x48
 146 0 122 -1 90 -3 c 0
 65 -4 24 -6 15 -6 c 0
 7 -6 2 -4 2 1 c 1
 3 8 l 1
 8 23 l 1
 11 30 15 32 28 32 c 0
 85 35 92 47 127 179 c 1
 212 487 l 1
 227 546 227 546 233 572 c 0
 239 594 240 599 240 613 c 0
 240 646 227 655 177 654 c 0
 157 654 157 654 157 658 c 2
 157 662 l 1
 160 673 l 2
 162 679 163 681 166 682 c 0
 168 683 172 684 196 684 c 2
 231 685 l 1
 309 688 l 1
 331 688 l 1
 361 689 l 1
 367 689 l 2
 372 689 375 687 375 684 c 1
 374 677 l 1x98
EndSplineSet
EndChar
StartChar: Ydieresis
Encoding: 286 376 180
Width: 738
Flags: W
HStem: -5 20 0 20 669 20<287 291.5 695 696 813 813> 674 20<144 149 583 587 796.5 808> 675 20<406 415.5>
Fore
422 371 m 1x08
 596 556 l 2
 633 595 646 614 646 630 c 0
 646 646 629 654 596 655 c 0
 574 656 572 657 572 664 c 0
 572 666 572 666 574 671 c 1
 576 684 l 1
 577 692 579 694 587 694 c 2x10
 652 692 l 2
 676 690 694 689 696 689 c 0
 758 693 788 694 805 694 c 0
 811 694 813 693 813 689 c 1
 813 689 813 688 812 679 c 1
 810 665 l 1
 808 657 807 655 799 654 c 0
 755 644 726 625 683 576 c 1
 447 322 l 1
 395 132 l 1
 384 95 382 84 382 72 c 0
 382 46 396 39 450 34 c 0
 457 34 460 31 460 27 c 0
 460 26 459 23 458 19 c 2
 456 9 l 1
 454 -3 451 -5 442 -5 c 0xa0
 437 -5 432 -5 425 -4 c 0
 393 -2 323 0 299 0 c 0x40
 277 0 252 -1 225 -3 c 0
 187 -5 184 -5 151 -5 c 0xa0
 144 -5 142 -3 142 3 c 2
 142 8 l 1
 144 20 l 1
 145 31 147 33 152 33 c 2
 171 34 l 1
 196 36 l 2
 250 39 259 49 280 132 c 1
 323 307 l 1
 218 594 l 1
 202 641 192 651 158 653 c 0
 129 654 129 654 129 659 c 0
 129 661 130 664 131 670 c 1
 134 683 l 1
 137 692 139 694 149 694 c 2x50
 237 692 l 1
 265 690 285 689 289 689 c 0x20
 294 689 314 690 341 692 c 0
 362 693 400 695 412 695 c 0
 419 695 422 693 422 688 c 0
 422 686 422 683 421 679 c 2
 418 667 l 2
 415 654 414 654 387 654 c 0
 356 654 340 644 340 624 c 0
 340 618 340 618 356 563 c 1
 422 371 l 1x08
410 890 m 0
 443 890 466 863 466 826 c 0
 466 787 441 758 408 758 c 0
 375 758 352 786 352 824 c 0
 352 862 377 890 410 890 c 0
601 890 m 0
 634 890 657 863 657 826 c 0
 657 787 632 758 599 758 c 0
 566 758 543 786 543 824 c 0
 543 862 568 890 601 890 c 0
EndSplineSet
EndChar
StartChar: adieresis
Encoding: 287 228 181
Width: 516
Flags: MW
HStem: -19 89
VStem: 28 102<101 139.5> 282 100
Fore
471 146 m 1
 494 126 l 1
 430 30 376 -19 333 -19 c 0
 303 -19 282 1 282 31 c 0
 282 58 282 58 318 166 c 0
 321 174 324 184 326 193 c 1
 285 134 274 118 249 87 c 0
 198 22 138 -19 93 -19 c 0
 53 -19 28 13 28 63 c 0
 28 216 228 427 373 427 c 0
 383 427 393 426 415 422 c 1
 445 464 448 466 473 466 c 0
 496 466 509 462 509 456 c 0
 509 454 508 448 506 445 c 1
 440 281 l 2
 401 183 382 125 382 102 c 0
 382 87 390 76 400 76 c 0
 414 76 424 85 471 146 c 1
330 363 m 0
 295 365 242 331 198 280 c 1
 157 230 130 167 130 117 c 0
 130 85 141 70 163 70 c 0
 196 70 227 100 284 187 c 1
 331 256 366 321 366 337 c 0
 366 352 352 362 330 363 c 0
249 685 m 0
 281 685 304 658 304 620 c 0
 304 581 280 553 246 553 c 0
 213 553 190 580 190 618 c 0
 190 656 216 685 249 685 c 0
439 685 m 0
 471 685 494 658 494 620 c 0
 494 581 470 553 437 553 c 0
 404 553 381 580 381 618 c 0
 381 656 407 685 439 685 c 0
EndSplineSet
KernsSLIF: 121 -8 0 0 119 -7 0 0 118 -11 0 0
EndChar
StartChar: aacute
Encoding: 288 225 182
Width: 516
Flags: MW
HStem: -19 89
VStem: 28 102<101 139.5> 282 100
Fore
471 146 m 1
 494 126 l 1
 430 30 376 -19 333 -19 c 0
 303 -19 282 1 282 31 c 0
 282 58 282 58 318 166 c 0
 321 174 324 184 326 193 c 1
 285 134 274 118 249 87 c 0
 198 22 138 -19 93 -19 c 0
 53 -19 28 13 28 63 c 0
 28 216 228 427 373 427 c 0
 383 427 393 426 415 422 c 1
 445 464 448 466 473 466 c 0
 496 466 509 462 509 456 c 0
 509 454 508 448 506 445 c 1
 440 281 l 2
 401 183 382 125 382 102 c 0
 382 87 390 76 400 76 c 0
 414 76 424 85 471 146 c 1
330 363 m 0
 295 365 242 331 198 280 c 1
 157 230 130 167 130 117 c 0
 130 85 141 70 163 70 c 0
 196 70 227 100 284 187 c 1
 331 256 366 321 366 337 c 0
 366 352 352 362 330 363 c 0
304 524 m 2
 291 536 l 2
 289 537 288 539 288 541 c 0
 288 542 288 543 298 557 c 0
 342 618 343 620 387 694 c 0
 410 733 430 747 460 747 c 0
 487 747 508 732 508 711 c 0
 508 693 492 671 458 643 c 0
 406 599 361 559 328 526 c 0
 322 521 319 519 315 519 c 0
 312 519 307 521 304 524 c 2
EndSplineSet
KernsSLIF: 121 -8 0 0 119 -7 0 0 118 -11 0 0
EndChar
StartChar: agrave
Encoding: 289 224 183
Width: 516
Flags: MW
HStem: -19 89
VStem: 28 102<101 139.5> 282 100
Fore
471 146 m 1
 494 126 l 1
 430 30 376 -19 333 -19 c 0
 303 -19 282 1 282 31 c 0
 282 58 282 58 318 166 c 0
 321 174 324 184 326 193 c 1
 285 134 274 118 249 87 c 0
 198 22 138 -19 93 -19 c 0
 53 -19 28 13 28 63 c 0
 28 216 228 427 373 427 c 0
 383 427 393 426 415 422 c 1
 445 464 448 466 473 466 c 0
 496 466 509 462 509 456 c 0
 509 454 508 448 506 445 c 1
 440 281 l 2
 401 183 382 125 382 102 c 0
 382 87 390 76 400 76 c 0
 414 76 424 85 471 146 c 1
330 363 m 0
 295 365 242 331 198 280 c 1
 157 230 130 167 130 117 c 0
 130 85 141 70 163 70 c 0
 196 70 227 100 284 187 c 1
 331 256 366 321 366 337 c 0
 366 352 352 362 330 363 c 0
389 536 m 2
 376 524 l 2
 373 521 368 519 364 519 c 0
 361 519 358 521 352 526 c 0
 321 556 266 606 222 643 c 0
 187 671 172 693 172 712 c 0
 172 732 193 747 220 747 c 0
 250 747 270 733 293 694 c 0
 307 668 323 642 339 618 c 0
 353 598 367 577 382 557 c 0
 384 553 387 549 390 545 c 0
 392 543 392 541 392 540 c 0
 392 539 391 537 389 536 c 2
EndSplineSet
KernsSLIF: 121 -8 0 0 119 -7 0 0 118 -11 0 0
EndChar
StartChar: acircumflex
Encoding: 290 226 184
Width: 516
Flags: MW
HStem: -19 89
VStem: 28 102<101 139.5> 282 100
Fore
471 146 m 1
 494 126 l 1
 430 30 376 -19 333 -19 c 0
 303 -19 282 1 282 31 c 0
 282 58 282 58 318 166 c 0
 321 174 324 184 326 193 c 1
 285 134 274 118 249 87 c 0
 198 22 138 -19 93 -19 c 0
 53 -19 28 13 28 63 c 0
 28 216 228 427 373 427 c 0
 383 427 393 426 415 422 c 1
 445 464 448 466 473 466 c 0
 496 466 509 462 509 456 c 0
 509 454 508 448 506 445 c 1
 440 281 l 2
 401 183 382 125 382 102 c 0
 382 87 390 76 400 76 c 0
 414 76 424 85 471 146 c 1
330 363 m 0
 295 365 242 331 198 280 c 1
 157 230 130 167 130 117 c 0
 130 85 141 70 163 70 c 0
 196 70 227 100 284 187 c 1
 331 256 366 321 366 337 c 0
 366 352 352 362 330 363 c 0
424 530 m 1
 392 593 l 1
 373 632 371 636 366 654 c 0
 366 656 363 668 360 684 c 1
 339 658 325 641 314 629 c 1
 233 550 l 1
 211 528 l 2
 205 521 202 519 199 519 c 0
 197 519 195 520 193 521 c 2
 181 531 l 2
 179 533 178 535 178 537 c 0
 178 539 179 542 181 545 c 2
 186 552 l 1
 287 712 l 2
 320 764 338 779 367 779 c 0
 405 779 428 749 436 687 c 1
 457 538 l 1
 457 536 l 2
 457 532 455 529 451 527 c 2
 441 521 l 2
 438 520 436 519 434 519 c 0
 431 519 427 523 424 530 c 1
EndSplineSet
EndChar
StartChar: atilde
Encoding: 291 227 185
Width: 516
Flags: W
HStem: -19 89 534 84<381.5 382.5> 616 84<269.5 274> 673 20<455.5 458.5>
VStem: 28 102<101 139.5> 282 100
Fore
471 146 m 1xac
 494 126 l 1
 430 30 376 -19 333 -19 c 0
 303 -19 282 1 282 31 c 0
 282 58 282 58 318 166 c 0
 321 174 324 184 326 193 c 1
 285 134 274 118 249 87 c 0
 198 22 138 -19 93 -19 c 0
 53 -19 28 13 28 63 c 0
 28 216 228 427 373 427 c 0
 383 427 393 426 415 422 c 1
 445 464 448 466 473 466 c 0
 496 466 509 462 509 456 c 0
 509 454 508 448 506 445 c 1
 440 281 l 2
 401 183 382 125 382 102 c 0
 382 87 390 76 400 76 c 0
 414 76 424 85 471 146 c 1xac
330 363 m 0
 295 365 242 331 198 280 c 1
 157 230 130 167 130 117 c 0
 130 85 141 70 163 70 c 0
 196 70 227 100 284 187 c 1
 331 256 366 321 366 337 c 0
 366 352 352 362 330 363 c 0
196 544 m 1
 181 550 l 2
 179 551 177 554 177 558 c 0
 177 570 192 610 209 641 c 0
 228 677 257 700 282 700 c 0x2c
 307 700 325 685 356 642 c 0
 367 625 377 618 386 618 c 0
 405 618 420 634 447 684 c 0
 451 690 454 693 457 693 c 0
 460 693 463 692 465 691 c 2
 477 686 l 2
 480 685 481 683 481 679 c 0
 481 666 463 622 446 593 c 0
 424 557 395 534 370 534 c 0x5c
 347 534 329 548 306 586 c 0
 292 608 281 616 267 616 c 0
 249 616 231 598 219 568 c 0
 210 548 208 545 196 544 c 1
EndSplineSet
EndChar
StartChar: aring
Encoding: 292 229 186
Width: 516
Flags: W
HStem: -19 89 507 47<399 431> 669 47<400 431.5>
VStem: 24 102<101 139.5> 278 100 311 47<596 627.5> 473 47<595.5 627.5>
Fore
467 146 m 1xf8
 490 126 l 1
 426 30 372 -19 329 -19 c 0
 299 -19 278 1 278 31 c 0
 278 58 278 58 314 166 c 0
 317 174 320 184 322 193 c 1
 281 134 270 118 245 87 c 0
 194 22 134 -19 89 -19 c 0
 49 -19 24 13 24 63 c 0
 24 216 224 427 369 427 c 0
 379 427 389 426 411 422 c 1
 441 464 444 466 469 466 c 0
 492 466 505 462 505 456 c 0
 505 454 504 448 502 445 c 1
 436 281 l 2
 397 183 378 125 378 102 c 0
 378 87 386 76 396 76 c 0
 410 76 420 85 467 146 c 1xf8
326 363 m 0
 291 365 238 331 194 280 c 1
 153 230 126 167 126 117 c 0
 126 85 137 70 159 70 c 0
 192 70 223 100 280 187 c 1
 327 256 362 321 362 337 c 0
 362 352 348 362 326 363 c 0
415 716 m 0xe6
 473 716 520 669 520 612 c 0
 520 553 473 507 415 507 c 0
 357 507 311 554 311 613 c 0
 311 669 359 716 415 716 c 0xe6
416 669 m 0
 384 669 358 643 358 612 c 0
 358 580 383 554 415 554 c 0
 447 554 473 579 473 612 c 0
 473 643 447 669 416 669 c 0
EndSplineSet
KernsSLIF: 121 -10 0 0 119 -12 0 0 118 -16 0 0
EndChar
StartChar: ccedilla
Encoding: 293 231 187
Width: 424
Flags: MW
HStem: -182 38<150.5 168.5> 412 39<256.5 299>
VStem: 34 108<126.5 223> 201 63<-118 -98>
Fore
196 -18 m 1
 187 -32 l 1
 236 -35 264 -58 264 -93 c 0
 264 -143 206 -182 131 -182 c 0
 95 -182 76 -171 76 -152 c 0
 76 -138 87 -126 100 -126 c 0
 107 -126 107 -126 129 -138 c 0
 135 -142 145 -144 156 -144 c 0
 181 -144 201 -128 201 -108 c 0
 201 -88 184 -77 151 -77 c 0
 146 -77 142 -77 139 -78 c 2
 126 -79 l 2
 119 -79 111 -76 111 -73 c 0
 111 -70 114 -67 123 -56 c 2
 157 -18 l 1
 78 -6 34 51 34 142 c 0
 34 305 165 451 310 451 c 0
 385 451 437 414 437 361 c 0
 437 327 414 304 380 304 c 0
 344 304 328 322 328 364 c 0
 328 386 327 393 323 399 c 0
 318 406 305 412 293 412 c 0
 220 412 142 284 142 162 c 0
 142 91 173 52 229 52 c 0
 271 52 300 66 348 112 c 1
 371 94 l 1
 319 21 266 -13 196 -18 c 1
EndSplineSet
EndChar
StartChar: edieresis
Encoding: 294 235 188
Width: 424
Flags: MW
HStem: -19 64<199.5 219> 412 39<276.5 302.5>
VStem: 33 109<115.5 154> 336 91<341 366>
Fore
342 104 m 1
 363 86 l 1
 303 8 257 -19 181 -19 c 0
 88 -19 33 37 33 132 c 0
 33 218 70 306 134 372 c 0
 185 425 243 451 310 451 c 0
 381 451 427 415 427 359 c 0
 427 310 392 266 328 236 c 0
 287 217 226 204 148 197 c 1
 143 173 142 162 142 146 c 0
 142 85 175 45 224 45 c 0
 263 45 298 62 342 104 c 1
153 237 m 1
 187 239 213 244 236 252 c 0
 293 273 336 320 336 362 c 0
 336 370 333 380 325 396 c 0
 319 406 309 412 296 412 c 0
 249 412 192 343 153 237 c 1
211 685 m 0
 243 685 266 658 266 620 c 0
 266 581 242 553 208 553 c 0
 175 553 152 580 152 618 c 0
 152 656 178 685 211 685 c 0
401 685 m 0
 433 685 456 658 456 620 c 0
 456 581 432 553 398 553 c 0
 365 553 342 580 342 618 c 0
 342 656 368 685 401 685 c 0
EndSplineSet
EndChar
StartChar: eacute
Encoding: 295 233 189
Width: 424
Flags: MW
HStem: -19 64<199.5 219> 412 39<276.5 302.5>
VStem: 33 109<115.5 154> 336 91<341 366>
Fore
342 104 m 1
 363 86 l 1
 303 8 257 -19 181 -19 c 0
 88 -19 33 37 33 132 c 0
 33 218 70 306 134 372 c 0
 185 425 243 451 310 451 c 0
 381 451 427 415 427 359 c 0
 427 310 392 266 328 236 c 0
 287 217 226 204 148 197 c 1
 143 173 142 162 142 146 c 0
 142 85 175 45 224 45 c 0
 263 45 298 62 342 104 c 1
153 237 m 1
 187 239 213 244 236 252 c 0
 293 273 336 320 336 362 c 0
 336 370 333 380 325 396 c 0
 319 406 309 412 296 412 c 0
 249 412 192 343 153 237 c 1
258 524 m 2
 245 536 l 2
 243 537 242 539 242 541 c 0
 242 542 242 543 252 557 c 0
 296 619 299 623 341 694 c 0
 364 733 384 747 414 747 c 0
 441 747 462 732 462 712 c 0
 462 693 446 671 412 643 c 0
 360 599 316 560 282 526 c 0
 277 521 273 519 270 519 c 0
 266 519 262 521 258 524 c 2
EndSplineSet
KernsSLIF: 121 20 0 0 119 15 0 0 118 11 0 0
EndChar
StartChar: egrave
Encoding: 296 232 190
Width: 424
Flags: MW
HStem: -19 64<199.5 219> 412 39<276.5 302.5>
VStem: 33 109<115.5 154> 336 91<341 366>
Fore
342 104 m 1
 363 86 l 1
 303 8 257 -19 181 -19 c 0
 88 -19 33 37 33 132 c 0
 33 218 70 306 134 372 c 0
 185 425 243 451 310 451 c 0
 381 451 427 415 427 359 c 0
 427 310 392 266 328 236 c 0
 287 217 226 204 148 197 c 1
 143 173 142 162 142 146 c 0
 142 85 175 45 224 45 c 0
 263 45 298 62 342 104 c 1
153 237 m 1
 187 239 213 244 236 252 c 0
 293 273 336 320 336 362 c 0
 336 370 333 380 325 396 c 0
 319 406 309 412 296 412 c 0
 249 412 192 343 153 237 c 1
343 536 m 2
 330 524 l 2
 327 521 322 519 319 519 c 0
 315 519 312 521 307 526 c 0
 274 558 223 604 176 643 c 0
 142 671 126 693 126 712 c 0
 126 732 147 747 174 747 c 0
 205 747 224 733 247 694 c 0
 288 626 294 616 337 557 c 0
 346 543 347 542 347 541 c 0
 347 539 346 538 343 536 c 2
EndSplineSet
EndChar
StartChar: ecircumflex
Encoding: 297 234 191
Width: 424
Flags: MW
HStem: -19 64<199.5 219> 412 39<276.5 302.5>
VStem: 33 109<115.5 154> 336 91<341 366>
Fore
342 104 m 1
 363 86 l 1
 303 8 257 -19 181 -19 c 0
 88 -19 33 37 33 132 c 0
 33 218 70 306 134 372 c 0
 185 425 243 451 310 451 c 0
 381 451 427 415 427 359 c 0
 427 310 392 266 328 236 c 0
 287 217 226 204 148 197 c 1
 143 173 142 162 142 146 c 0
 142 85 175 45 224 45 c 0
 263 45 298 62 342 104 c 1
153 237 m 1
 187 239 213 244 236 252 c 0
 293 273 336 320 336 362 c 0
 336 370 333 380 325 396 c 0
 319 406 309 412 296 412 c 0
 249 412 192 343 153 237 c 1
378 530 m 2
 346 593 l 1
 327 632 325 637 321 654 c 0
 320 658 317 669 314 684 c 1
 296 661 279 640 268 629 c 2
 187 550 l 2
 180 543 173 535 165 528 c 1
 160 521 156 519 153 519 c 0
 151 519 149 520 148 521 c 2
 135 531 l 2
 133 533 132 535 132 537 c 0
 132 539 133 542 136 545 c 1
 140 552 l 1
 241 712 l 2
 274 764 292 779 322 779 c 0
 360 779 382 749 391 687 c 1
 411 538 l 1
 411 531 410 530 405 527 c 2
 395 521 l 2
 392 520 390 519 389 519 c 0
 386 519 382 523 378 530 c 2
EndSplineSet
KernsSLIF: 121 20 0 0 119 15 0 0 118 11 0 0
EndChar
StartChar: idieresis
Encoding: 298 239 192
Width: 313
Flags: W
HStem: -19 20 431 20<192 229.5>
VStem: 51 109 152 113
Fore
262 140 m 1xe0
 287 120 l 1
 219 28 159 -19 109 -19 c 0
 75 -19 51 3 51 33 c 0xe0
 51 56 59 82 109 213 c 0
 139 291 152 332 152 342 c 0
 152 353 144 361 134 361 c 0
 119 361 102 349 67 312 c 0
 65 310 63 309 61 309 c 0
 60 309 59 310 55 313 c 2
 46 322 l 2
 43 325 42 327 42 329 c 0
 42 331 45 336 54 347 c 0
 106 408 171 451 213 451 c 0
 246 451 265 431 265 398 c 0xd0
 265 363 245 304 183 156 c 0
 168 120 160 96 160 87 c 0
 160 74 169 64 180 64 c 0
 196 64 211 78 262 140 c 1xe0
155 685 m 0
 187 685 210 658 210 620 c 0
 210 581 186 553 152 553 c 0
 119 553 96 580 96 618 c 0
 96 656 122 685 155 685 c 0
346 685 m 0
 378 685 401 658 401 620 c 0
 401 581 377 553 343 553 c 0
 310 553 287 580 287 618 c 0
 287 656 313 685 346 685 c 0
EndSplineSet
EndChar
StartChar: iacute
Encoding: 299 237 193
Width: 313
Flags: W
HStem: -19 20 431 20<192 229.5>
VStem: 51 109 152 113
Fore
262 140 m 1xe0
 287 120 l 1
 219 28 159 -19 109 -19 c 0
 75 -19 51 3 51 33 c 0xe0
 51 56 59 82 109 213 c 0
 139 291 152 332 152 342 c 0
 152 353 144 361 134 361 c 0
 119 361 102 349 67 312 c 0
 65 310 63 309 61 309 c 0
 60 309 59 310 55 313 c 2
 46 322 l 2
 43 325 42 327 42 329 c 0
 42 331 45 336 54 347 c 0
 106 408 171 451 213 451 c 0
 246 451 265 431 265 398 c 0xd0
 265 363 245 304 183 156 c 0
 168 120 160 96 160 87 c 0
 160 74 169 64 180 64 c 0
 196 64 211 78 262 140 c 1xe0
203 524 m 2
 190 536 l 2
 188 537 187 539 187 541 c 0
 187 542 187 543 197 557 c 0
 241 619 245 624 286 694 c 0
 309 733 329 747 359 747 c 0
 386 747 407 732 407 712 c 0
 407 693 391 671 357 643 c 0
 308 601 259 557 227 526 c 0
 221 521 218 519 215 519 c 0
 211 519 206 521 203 524 c 2
EndSplineSet
EndChar
StartChar: igrave
Encoding: 300 236 194
Width: 313
Flags: W
HStem: -19 20 431 20<191 228.5>
VStem: 50 109 151 113
Fore
261 140 m 1xe0
 286 120 l 1
 218 28 158 -19 108 -19 c 0
 74 -19 50 3 50 33 c 0xe0
 50 56 58 82 108 213 c 0
 138 291 151 332 151 342 c 0
 151 353 143 361 133 361 c 0
 118 361 101 349 66 312 c 0
 64 310 62 309 60 309 c 0
 59 309 58 310 54 313 c 2
 45 322 l 2
 42 325 41 327 41 329 c 0
 41 331 44 336 53 347 c 0
 105 408 170 451 212 451 c 0
 245 451 264 431 264 398 c 0xd0
 264 363 244 304 182 156 c 0
 167 120 159 96 159 87 c 0
 159 74 168 64 179 64 c 0
 195 64 210 78 261 140 c 1xe0
287 536 m 2
 274 524 l 2
 271 521 266 519 263 519 c 0
 259 519 256 521 251 526 c 0
 220 556 162 608 120 643 c 0
 85 671 70 693 70 712 c 0
 70 732 91 747 118 747 c 0
 148 747 168 733 191 694 c 1
 205 667 220 642 237 618 c 2
 288 545 l 2
 290 543 290 541 290 540 c 0
 290 539 289 537 287 536 c 2
EndSplineSet
EndChar
StartChar: icircumflex
Encoding: 301 238 195
Width: 313
Flags: W
HStem: -19 20 431 20<192 229.5>
VStem: 51 109 152 113
Fore
262 140 m 1xe0
 287 120 l 1
 219 28 159 -19 109 -19 c 0
 75 -19 51 3 51 33 c 0xe0
 51 56 59 82 109 213 c 0
 139 291 152 332 152 342 c 0
 152 353 144 361 134 361 c 0
 119 361 102 349 67 312 c 0
 65 310 63 309 61 309 c 0
 60 309 59 310 55 313 c 2
 46 322 l 2
 43 325 42 327 42 329 c 0
 42 331 45 336 54 347 c 0
 106 408 171 451 213 451 c 0
 246 451 265 431 265 398 c 0xd0
 265 363 245 304 183 156 c 0
 168 120 160 96 160 87 c 0
 160 74 169 64 180 64 c 0
 196 64 211 78 262 140 c 1xe0
333 530 m 1
 301 593 l 1
 282 632 280 637 275 654 c 0
 275 657 272 669 269 684 c 1
 248 658 233 640 223 629 c 1
 142 550 l 1
 135 542 127 535 120 528 c 0
 114 521 111 519 107 519 c 0
 106 519 103 520 102 521 c 2
 90 531 l 2
 88 533 87 535 87 537 c 0
 87 539 88 542 90 545 c 2
 95 552 l 1
 196 712 l 2
 229 764 247 779 276 779 c 0
 314 779 337 749 345 687 c 1
 366 538 l 1
 366 536 l 2
 366 532 364 529 360 527 c 2
 350 521 l 2
 347 520 345 519 343 519 c 0
 340 519 336 523 333 530 c 1
EndSplineSet
EndChar
StartChar: ntilde
Encoding: 302 241 196
Width: 553
Flags: W
HStem: -19 20 -13 20 381 70 534 84<399.5 400.5> 616 84<287.5 292> 673 20<474 477>
VStem: 153 91 294 114 396 108
Fore
75 301 m 1x6280
 53 319 l 1
 85 370 94 383 113 406 c 0
 136 434 166 451 193 451 c 0
 225 451 244 431 244 396 c 0
 244 382 240 355 234 327 c 1
 228 302 l 1
 263 344 275 358 293 377 c 0
 337 423 392 451 441 451 c 0
 475 451 504 421 504 387 c 0xaa80
 504 356 498 337 454 228 c 0
 425 158 408 106 408 92 c 0
 408 79 416 70 427 70 c 0
 442 70 453 80 491 123 c 1
 501 136 l 1
 523 115 l 1
 442 14 398 -19 344 -19 c 0
 313 -19 294 2 294 36 c 0xa9
 294 67 310 117 372 279 c 0
 389 322 396 345 396 357 c 0
 396 362 396 362 387 374 c 0
 381 381 381 381 374 381 c 0
 322 381 258 299 204 163 c 2
 153 36 l 2
 149 27 146 18 143 9 c 0
 136 -10 130 -13 106 -13 c 0
 66 -13 46 -6 46 8 c 0
 46 13 48 28 50 31 c 1
 113 186 l 2
 135 240 153 300 153 318 c 0
 153 336 143 348 129 348 c 0
 113 348 100 337 75 301 c 1x6280
214 544 m 1
 199 550 l 2
 197 551 195 554 195 559 c 0
 195 570 210 609 227 641 c 0
 246 677 275 700 300 700 c 0x0a80
 325 700 344 685 374 642 c 0
 386 625 395 618 404 618 c 0
 423 618 439 635 466 684 c 0
 469 690 472 693 476 693 c 0
 478 693 481 692 483 691 c 2
 495 686 l 2
 498 685 499 682 499 679 c 0
 499 667 479 618 464 593 c 0
 440 555 413 534 388 534 c 0x1680
 365 534 348 548 324 586 c 0
 310 607 299 616 285 616 c 0
 267 616 249 598 237 568 c 0
 229 548 226 545 214 544 c 1
EndSplineSet
EndChar
StartChar: odieresis
Encoding: 303 246 197
Width: 480
Flags: MW
HStem: -19 38<179.5 210> 431 20<222 335.5>
VStem: 38 108<111.5 133> 338 108<291.5 322>
Fore
289 451 m 0
 382 451 446 376 446 268 c 0
 446 112 332 -19 196 -19 c 0
 100 -19 38 55 38 168 c 0
 38 320 155 451 289 451 c 0
289 414 m 0
 260 415 231 391 206 343 c 0
 174 280 146 168 146 98 c 0
 146 45 163 19 196 19 c 0
 224 19 251 39 274 77 c 0
 308 133 338 253 338 330 c 0
 338 384 321 412 289 414 c 0
238 685 m 0
 270 685 293 658 293 620 c 0
 293 581 269 553 235 553 c 0
 202 553 179 580 179 618 c 0
 179 656 205 685 238 685 c 0
429 685 m 0
 461 685 484 658 484 620 c 0
 484 581 460 553 426 553 c 0
 393 553 370 580 370 618 c 0
 370 656 396 685 429 685 c 0
EndSplineSet
KernsSLIF: 121 9 0 0 120 -6 0 0 119 3 0 0 116 -5 0 0
EndChar
StartChar: oacute
Encoding: 304 243 198
Width: 480
Flags: MW
HStem: -19 38<178.5 209> 431 20<221 334.5>
VStem: 37 108<111.5 133> 337 108<291.5 322>
Fore
288 451 m 0
 381 451 445 376 445 268 c 0
 445 112 331 -19 195 -19 c 0
 99 -19 37 55 37 168 c 0
 37 320 154 451 288 451 c 0
288 414 m 0
 259 415 230 391 205 343 c 0
 173 280 145 168 145 98 c 0
 145 45 162 19 195 19 c 0
 223 19 250 39 273 77 c 0
 307 133 337 253 337 330 c 0
 337 384 320 412 288 414 c 0
285 524 m 2
 272 536 l 2
 270 538 269 539 269 541 c 0
 269 542 269 543 279 557 c 0
 324 619 324 619 368 694 c 0
 391 733 411 747 441 747 c 0
 468 747 489 732 489 712 c 0
 489 693 473 671 439 643 c 0
 390 601 342 558 309 526 c 0
 304 521 300 519 297 519 c 0
 294 519 289 521 285 524 c 2
EndSplineSet
KernsSLIF: 121 8 0 0 119 3 0 0
EndChar
StartChar: ograve
Encoding: 305 242 199
Width: 479
Flags: MW
HStem: -19 38<178.5 209> 431 20<221 334.5>
VStem: 37 108<111.5 133> 337 108<291.5 322>
Fore
288 451 m 0
 381 451 445 376 445 268 c 0
 445 112 331 -19 195 -19 c 0
 99 -19 37 55 37 168 c 0
 37 320 154 451 288 451 c 0
288 414 m 0
 259 415 230 391 205 343 c 0
 173 280 145 168 145 98 c 0
 145 45 162 19 195 19 c 0
 223 19 250 39 273 77 c 0
 307 133 337 253 337 330 c 0
 337 384 320 412 288 414 c 0
371 536 m 2
 358 524 l 2
 354 521 349 519 346 519 c 0
 343 519 339 521 334 526 c 0
 304 555 244 609 204 643 c 0
 169 671 154 693 154 712 c 0
 154 732 175 747 202 747 c 0
 232 747 252 733 275 694 c 0
 297 657 313 629 321 618 c 2
 372 545 l 2
 373 543 374 542 374 541 c 0
 374 539 373 538 371 536 c 2
EndSplineSet
KernsSLIF: 121 9 0 0 119 3 0 0
EndChar
StartChar: ocircumflex
Encoding: 306 244 200
Width: 479
Flags: MW
HStem: -19 38<178.5 209> 431 20<221 334.5>
VStem: 37 108<111.5 133> 337 108<291.5 322>
Fore
288 451 m 0
 381 451 445 376 445 268 c 0
 445 112 331 -19 195 -19 c 0
 99 -19 37 55 37 168 c 0
 37 320 154 451 288 451 c 0
288 414 m 0
 259 415 230 391 205 343 c 0
 173 280 145 168 145 98 c 0
 145 45 162 19 195 19 c 0
 223 19 250 39 273 77 c 0
 307 133 337 253 337 330 c 0
 337 384 320 412 288 414 c 0
405 530 m 1
 374 593 l 1
 354 632 352 637 348 654 c 0
 347 657 345 669 341 684 c 1
 322 659 306 641 295 629 c 1
 215 550 l 2
 207 543 200 535 193 528 c 0
 187 521 183 519 180 519 c 0
 178 519 176 520 175 521 c 2
 162 531 l 2
 161 532 160 535 160 537 c 0
 160 540 160 540 167 552 c 2
 269 712 l 2
 301 763 320 779 349 779 c 0
 387 779 409 749 418 687 c 1
 438 538 l 1
 439 536 l 2
 440 533 437 529 432 527 c 2
 422 521 l 2
 420 520 417 519 416 519 c 0
 413 519 409 523 405 530 c 1
EndSplineSet
KernsSLIF: 116 -6 0 0
EndChar
StartChar: otilde
Encoding: 307 245 201
Width: 480
Flags: W
HStem: -19 38<179.5 210> 431 20<222 335.5> 534 84<380.5 382> 616 84<268.5 273.5> 673 20<455 458>
VStem: 38 108<111.5 133> 338 108<291.5 322>
Fore
289 451 m 0xd6
 382 451 446 376 446 268 c 0
 446 112 332 -19 196 -19 c 0
 100 -19 38 55 38 168 c 0
 38 320 155 451 289 451 c 0xd6
289 414 m 0
 260 415 231 391 206 343 c 0
 174 280 146 168 146 98 c 0
 146 45 163 19 196 19 c 0
 224 19 251 39 274 77 c 0
 308 133 338 253 338 330 c 0
 338 384 321 412 289 414 c 0
195 544 m 1
 180 550 l 2
 178 551 176 555 176 560 c 0
 176 570 191 608 208 641 c 0
 226 676 256 700 281 700 c 0x16
 306 700 324 686 355 642 c 0
 367 625 376 618 385 618 c 0
 404 618 421 635 447 684 c 0
 450 690 453 693 457 693 c 0
 459 693 462 692 465 691 c 2
 477 686 l 2
 480 684 481 682 481 679 c 0
 481 667 461 618 446 593 c 0
 422 555 395 534 369 534 c 0x2e
 347 534 329 548 305 586 c 0
 291 608 281 616 266 616 c 0
 249 616 231 598 218 568 c 0
 210 548 207 545 195 544 c 1
EndSplineSet
EndChar
StartChar: scaron
Encoding: 308 353 202
Width: 332
Flags: MW
HStem: -19 49<146.5 147.5> 394 57
VStem: 64 68 207 82
Fore
52 96 m 0
 69 96 79 90 102 64 c 0
 125 37 137 30 156 30 c 0
 184 30 207 53 207 81 c 0
 207 106 191 128 140 175 c 0
 77 231 64 250 64 286 c 0
 64 372 143 451 229 451 c 0
 280 451 316 426 316 390 c 0
 316 365 303 349 282 349 c 0
 265 349 251 355 226 372 c 0
 203 389 191 394 177 394 c 0
 153 394 132 375 132 354 c 0
 132 339 144 321 171 296 c 2
 242 229 l 2
 278 195 289 176 289 148 c 0
 289 66 194 -19 101 -19 c 0
 55 -19 15 14 15 53 c 0
 15 78 31 96 52 96 c 0
196 768 m 1
 228 705 l 2
 248 665 250 660 254 643 c 0
 255 639 257 628 260 613 c 1
 287 647 297 659 306 668 c 2
 387 748 l 2
 395 755 402 763 409 770 c 0
 415 777 418 779 422 779 c 0
 423 779 425 778 427 777 c 2
 439 766 l 2
 441 765 442 762 442 760 c 0
 442 759 441 756 439 753 c 2
 333 586 l 2
 300 534 282 519 253 519 c 0
 215 519 192 549 184 610 c 1
 163 760 l 1
 163 762 l 2
 163 765 165 768 170 771 c 2
 179 776 l 2
 182 778 184 779 186 779 c 0
 189 779 193 775 196 768 c 1
EndSplineSet
EndChar
StartChar: udieresis
Encoding: 309 252 203
Width: 535
Flags: W
HStem: -19 20 426 20<451 478.5> 431 20<178 218>
Fore
492 136 m 1x40
 517 115 l 1
 442 17 398 -19 351 -19 c 0
 319 -19 296 -1 296 24 c 0
 296 41 308 87 323 127 c 2
 371 251 l 1
 382 281 383 286 387 298 c 1
 261 123 l 1
 178 17 135 -19 88 -19 c 0
 62 -19 43 -3 43 17 c 0
 43 38 52 69 94 187 c 0
 134 300 141 322 141 337 c 0
 141 353 134 362 123 362 c 0
 112 362 105 356 75 321 c 2
 68 313 l 1
 44 331 l 1
 123 427 154 451 202 451 c 0xa0
 234 451 256 432 256 406 c 0
 256 377 246 345 198 222 c 0
 192 206 187 191 181 176 c 0
 174 159 168 141 161 123 c 0
 156 113 154 103 154 97 c 0
 154 89 160 83 167 83 c 0
 182 83 220 123 273 196 c 0
 312 249 395 375 414 409 c 0
 430 438 440 446 462 446 c 0
 495 446 517 436 517 419 c 0
 517 410 517 410 505 377 c 2
 424 159 l 2
 414 132 406 101 406 90 c 0
 406 78 414 68 424 68 c 0
 437 68 450 80 492 136 c 1x40
257 685 m 0
 289 685 312 658 312 620 c 0
 312 581 288 553 254 553 c 0
 221 553 198 580 198 618 c 0
 198 656 224 685 257 685 c 0
448 685 m 0
 480 685 503 658 503 620 c 0
 503 581 479 553 445 553 c 0
 412 553 389 580 389 618 c 0
 389 656 415 685 448 685 c 0
EndSplineSet
EndChar
StartChar: uacute
Encoding: 310 250 204
Width: 535
Flags: W
HStem: -19 20 426 20<451 478.5> 431 20<178 218>
Fore
492 136 m 1x40
 517 115 l 1
 442 17 398 -19 351 -19 c 0
 319 -19 296 -1 296 24 c 0
 296 41 308 87 323 127 c 2
 371 251 l 1
 382 281 383 286 387 298 c 1
 261 123 l 1
 178 17 135 -19 88 -19 c 0
 62 -19 43 -3 43 17 c 0
 43 38 52 69 94 187 c 0
 134 300 141 322 141 337 c 0
 141 353 134 362 123 362 c 0
 112 362 105 356 75 321 c 2
 68 313 l 1
 44 331 l 1
 123 427 154 451 202 451 c 0xa0
 234 451 256 432 256 406 c 0
 256 377 246 345 198 222 c 0
 192 206 187 191 181 176 c 0
 174 159 168 141 161 123 c 0
 156 113 154 103 154 97 c 0
 154 89 160 83 167 83 c 0
 182 83 220 123 273 196 c 0
 312 249 395 375 414 409 c 0
 430 438 440 446 462 446 c 0
 495 446 517 436 517 419 c 0
 517 410 517 410 505 377 c 2
 424 159 l 2
 414 132 406 101 406 90 c 0
 406 78 414 68 424 68 c 0
 437 68 450 80 492 136 c 1x40
312 524 m 2
 299 536 l 2
 297 538 296 539 296 541 c 0
 296 542 297 543 298 545 c 2
 335 598 l 2
 351 620 358 632 395 694 c 0
 418 733 438 747 468 747 c 0
 495 747 516 732 516 712 c 0
 516 693 500 671 466 643 c 0
 409 594 373 562 336 526 c 0
 331 521 328 519 324 519 c 0
 320 519 316 521 312 524 c 2
EndSplineSet
EndChar
StartChar: ugrave
Encoding: 311 249 205
Width: 535
Flags: W
HStem: -19 20 426 20<451 478.5> 431 20<178 218>
Fore
492 136 m 1x40
 517 115 l 1
 442 17 398 -19 351 -19 c 0
 319 -19 296 -1 296 24 c 0
 296 41 308 87 323 127 c 2
 371 251 l 1
 382 281 383 286 387 298 c 1
 261 123 l 1
 178 17 135 -19 88 -19 c 0
 62 -19 43 -3 43 17 c 0
 43 38 52 69 94 187 c 0
 134 300 141 322 141 337 c 0
 141 353 134 362 123 362 c 0
 112 362 105 356 75 321 c 2
 68 313 l 1
 44 331 l 1
 123 427 154 451 202 451 c 0xa0
 234 451 256 432 256 406 c 0
 256 377 246 345 198 222 c 0
 192 206 187 191 181 176 c 0
 174 159 168 141 161 123 c 0
 156 113 154 103 154 97 c 0
 154 89 160 83 167 83 c 0
 182 83 220 123 273 196 c 0
 312 249 395 375 414 409 c 0
 430 438 440 446 462 446 c 0
 495 446 517 436 517 419 c 0
 517 410 517 410 505 377 c 2
 424 159 l 2
 414 132 406 101 406 90 c 0
 406 78 414 68 424 68 c 0
 437 68 450 80 492 136 c 1x40
398 536 m 2
 385 524 l 2
 381 521 376 519 373 519 c 0
 369 519 366 521 361 526 c 0
 327 559 277 604 231 643 c 0
 197 671 181 693 181 712 c 0
 181 732 202 747 229 747 c 0
 259 747 279 733 302 694 c 0
 341 628 348 618 391 557 c 0
 401 543 401 542 401 541 c 0
 401 539 400 538 398 536 c 2
EndSplineSet
EndChar
StartChar: ucircumflex
Encoding: 312 251 206
Width: 535
Flags: W
HStem: -19 20 426 20<451 478.5> 431 20<178 218>
Fore
492 136 m 1x40
 517 115 l 1
 442 17 398 -19 351 -19 c 0
 319 -19 296 -1 296 24 c 0
 296 41 308 87 323 127 c 2
 371 251 l 1
 382 281 383 286 387 298 c 1
 261 123 l 1
 178 17 135 -19 88 -19 c 0
 62 -19 43 -3 43 17 c 0
 43 38 52 69 94 187 c 0
 134 300 141 322 141 337 c 0
 141 353 134 362 123 362 c 0
 112 362 105 356 75 321 c 2
 68 313 l 1
 44 331 l 1
 123 427 154 451 202 451 c 0xa0
 234 451 256 432 256 406 c 0
 256 377 246 345 198 222 c 0
 192 206 187 191 181 176 c 0
 174 159 168 141 161 123 c 0
 156 113 154 103 154 97 c 0
 154 89 160 83 167 83 c 0
 182 83 220 123 273 196 c 0
 312 249 395 375 414 409 c 0
 430 438 440 446 462 446 c 0
 495 446 517 436 517 419 c 0
 517 410 517 410 505 377 c 2
 424 159 l 2
 414 132 406 101 406 90 c 0
 406 78 414 68 424 68 c 0
 437 68 450 80 492 136 c 1x40
432 530 m 1
 401 593 l 1
 381 632 379 638 375 654 c 0
 374 659 371 670 368 684 c 1
 348 658 332 640 322 629 c 1
 242 550 l 1
 220 528 l 2
 214 521 211 519 207 519 c 0
 205 519 203 520 202 521 c 2
 190 531 l 2
 188 533 187 535 187 537 c 0
 187 540 187 541 194 552 c 2
 296 712 l 1
 328 764 347 779 376 779 c 0
 414 779 436 749 445 687 c 1
 465 538 l 1
 466 536 l 2
 467 533 464 530 459 527 c 2
 449 521 l 2
 447 520 445 519 443 519 c 0
 440 519 436 523 432 530 c 1
EndSplineSet
EndChar
